<svg width="20" height="20" viewBox="0 0 20 20" fill="none" xmlns="http://www.w3.org/2000/svg">
<g clip-path="url(#clip0_332_16878)">
<path d="M19.9439 9.79127C18.9526 8.07766 17.527 6.64039 15.8215 5.63496C14.0641 4.59898 12.051 4.05139 9.99996 4.05139C7.94891 4.05139 5.93581 4.59898 4.1784 5.63496C2.47283 6.64043 1.04732 8.07766 0.0559863 9.79127C-0.0186621 9.92038 -0.0186621 10.0795 0.0559863 10.2086C1.04732 11.9223 2.47283 13.3595 4.1784 14.3649C5.93585 15.4009 7.94891 15.9485 9.99996 15.9485C12.051 15.9485 14.0641 15.4009 15.8215 14.3649C17.527 13.3595 18.9526 11.9223 19.9439 10.2086C20.0186 10.0795 20.0186 9.92038 19.9439 9.79127ZM15.3983 13.647C13.7689 14.6075 11.9023 15.1152 9.99992 15.1152C8.09757 15.1152 6.23085 14.6075 4.60158 13.647C3.08906 12.7554 1.81395 11.4977 0.901197 9.9999C1.81395 8.50211 3.08906 7.24443 4.60158 6.3528C6.23085 5.39235 8.09757 4.88467 9.99992 4.88467C11.9023 4.88467 13.7689 5.39235 15.3983 6.3528C16.9107 7.24443 18.1858 8.50207 19.0986 9.9999C18.1858 11.4977 16.9108 12.7554 15.3983 13.647Z" fill="#9D9DA5"/>
<path d="M9.99991 6.25586C7.93541 6.25586 6.25586 7.93541 6.25586 9.99991C6.25586 12.0644 7.93541 13.744 9.99991 13.744C12.0644 13.744 13.744 12.0644 13.744 9.99991C13.744 7.93545 12.0644 6.25586 9.99991 6.25586ZM9.99991 12.9107C8.39493 12.9107 7.08918 11.6049 7.08918 9.99991C7.08918 8.39493 8.39493 7.08918 9.99991 7.08918C11.6049 7.08918 12.9107 8.39493 12.9107 9.99991C12.9107 11.6049 11.6049 12.9107 9.99991 12.9107Z" fill="#9D9DA5"/>
</g>
<defs>
<clipPath id="clip0_332_16878">
<rect width="20" height="20" fill="white"/>
</clipPath>
</defs>
</svg>
