<svg width="20" height="20" viewBox="0 0 20 20" fill="none" xmlns="http://www.w3.org/2000/svg">
<path d="M11.0994 9.99997L15.7719 5.32726C16.076 5.02332 16.076 4.5319 15.7719 4.22796C15.468 3.92401 14.9766 3.92401 14.6726 4.22796L9.99993 8.90066L5.32737 4.22796C5.02329 3.92401 4.532 3.92401 4.22806 4.22796C3.92398 4.5319 3.92398 5.02332 4.22806 5.32726L8.90062 9.99997L4.22806 14.6727C3.92398 14.9766 3.92398 15.468 4.22806 15.772C4.37953 15.9236 4.5787 15.9998 4.77772 15.9998C4.97674 15.9998 5.17576 15.9236 5.32737 15.772L9.99993 11.0993L14.6726 15.772C14.8243 15.9236 15.0233 15.9998 15.2223 15.9998C15.4213 15.9998 15.6203 15.9236 15.7719 15.772C16.076 15.468 16.076 14.9766 15.7719 14.6727L11.0994 9.99997Z" fill="#9D9DA5"/>
</svg>
