<svg width="20" height="20" viewBox="0 0 20 20" fill="none" xmlns="http://www.w3.org/2000/svg">
<path d="M12.3567 7.64287C12.1942 7.48037 11.93 7.48037 11.7675 7.64287C11.605 7.80537 11.605 8.07037 11.7675 8.23205C12.2392 8.70373 12.5 9.33123 12.5 9.99955C12.5 11.3779 11.3784 12.4996 10 12.4996C9.33172 12.4996 8.70422 12.2396 8.23254 11.7671C8.07004 11.6046 7.80586 11.6046 7.64336 11.7671C7.48086 11.9287 7.48086 12.1937 7.64336 12.3562C8.27168 12.9862 9.10918 13.3329 10 13.3329C11.8384 13.3329 13.3334 11.8379 13.3334 9.99959C13.3334 9.10869 12.9867 8.27119 12.3567 7.64287Z" fill="#9D9DA5"/>
<path d="M10.5821 6.72352C10.3929 6.6902 10.1996 6.66602 10.0013 6.66602C8.16297 6.66602 6.66797 8.16101 6.66797 9.99933C6.66797 10.1977 6.69215 10.391 6.72629 10.5801C6.76211 10.7818 6.93797 10.9243 7.13547 10.9243C7.15965 10.9243 7.18379 10.9226 7.20879 10.9176C7.43461 10.8776 7.58629 10.661 7.54629 10.4351C7.52047 10.2935 7.50129 10.1493 7.50129 9.99933C7.50129 8.62101 8.62297 7.49933 10.0013 7.49933C10.1513 7.49933 10.2955 7.51851 10.4371 7.54351C10.6588 7.58851 10.8796 7.43183 10.9196 7.20601C10.9596 6.98019 10.808 6.76352 10.5821 6.72352Z" fill="#9D9DA5"/>
<path d="M19.8994 9.7301C19.8053 9.61842 17.5511 6.9876 14.442 5.37679C14.2403 5.27097 13.9861 5.35097 13.8803 5.55597C13.7745 5.76015 13.8545 6.01179 14.0595 6.11765C16.4545 7.35764 18.3678 9.29264 19.0219 9.99932C18.0286 11.0751 14.1195 14.9993 9.99865 14.9993C8.60033 14.9993 7.19115 14.6618 5.80865 13.9951C5.60366 13.8943 5.35284 13.9818 5.25284 14.1893C5.15202 14.396 5.23952 14.6451 5.44702 14.7451C6.94283 15.4676 8.47451 15.8326 9.99869 15.8326C15.1329 15.8326 19.7078 10.496 19.9003 10.2685C20.0319 10.1134 20.0311 9.88592 19.8994 9.7301Z" fill="#9D9DA5"/>
<path d="M12.7342 4.64614C11.7859 4.32696 10.8659 4.16614 10 4.16614C4.86587 4.16614 0.290876 9.50281 0.0983768 9.73031C-0.0233027 9.87363 -0.0333027 10.082 0.0750565 10.2378C0.132556 10.3203 1.51005 12.2761 3.89755 13.862C3.96837 13.9095 4.04755 13.932 4.12755 13.932C4.26173 13.932 4.39423 13.867 4.47423 13.7445C4.60173 13.5537 4.54923 13.2945 4.35755 13.1678C2.60423 12.002 1.40423 10.5945 0.955055 10.022C1.91423 8.98031 5.84923 4.9995 10 4.9995C10.7759 4.9995 11.6067 5.14617 12.4684 5.43532C12.6867 5.51364 12.9234 5.39282 12.9959 5.17364C13.0692 4.95532 12.9525 4.7195 12.7342 4.64614Z" fill="#9D9DA5"/>
<path d="M17.3777 2.62236C17.2152 2.45986 16.951 2.45986 16.7885 2.62236L2.62187 16.789C2.45938 16.9515 2.45938 17.2157 2.62187 17.3782C2.70355 17.459 2.81019 17.4999 2.91687 17.4999C3.02355 17.4999 3.13019 17.4591 3.21105 17.3782L17.3777 3.21154C17.5402 3.04904 17.5402 2.78486 17.3777 2.62236Z" fill="#9D9DA5"/>
</svg>
