<svg class="icon-logo" width="120" height="40" viewBox="0 0 120 40" fill="none" xmlns="http://www.w3.org/2000/svg">
  <path
    class="icon-logo__letter"
    d="M45.4968 25.2726C44.5317 25.2726 43.5883 25.1176 42.6664 24.8077C41.7446 24.4977 40.9668 24.0398 40.333 23.434L41.5214 21.2997C42.2128 21.7928 42.8825 22.1661 43.5307 22.4196C44.1932 22.6733 44.8127 22.8001 45.3888 22.8001C45.8353 22.8001 46.181 22.7297 46.4259 22.5888C46.6708 22.4479 46.7931 22.2294 46.7931 21.9336C46.7931 21.7223 46.7212 21.5603 46.5771 21.4476C46.4331 21.3208 46.2098 21.2081 45.9073 21.1095C45.6192 21.0109 45.2592 20.9051 44.827 20.7925C43.9628 20.5107 43.2426 20.236 42.6664 19.9683C42.0903 19.7006 41.6582 19.3766 41.3701 18.9962C41.082 18.6018 40.938 18.0945 40.938 17.4747C40.938 16.7279 41.1252 16.0799 41.4997 15.5305C41.8886 14.9669 42.436 14.5301 43.1418 14.2202C43.8475 13.9103 44.6902 13.7554 45.6696 13.7554C46.4474 13.7554 47.2037 13.8751 47.9383 14.1146C48.6873 14.3541 49.3858 14.7556 50.034 15.3192L48.6945 17.4324C48.0463 16.9957 47.4702 16.6786 46.966 16.4814C46.4619 16.2842 45.9721 16.1855 45.4968 16.1855C45.252 16.1855 45.0287 16.2138 44.827 16.2701C44.6253 16.3264 44.4597 16.4251 44.3301 16.566C44.2149 16.6928 44.1572 16.8618 44.1572 17.0731C44.1572 17.2845 44.2149 17.4535 44.3301 17.5804C44.4597 17.7071 44.6542 17.8199 44.9135 17.9185C45.1871 18.0029 45.5256 18.1086 45.9289 18.2354C46.8652 18.5032 47.643 18.7778 48.2623 19.0596C48.8818 19.3273 49.3426 19.6654 49.6451 20.074C49.9621 20.4685 50.1204 20.9967 50.1204 21.6589C50.1204 22.786 49.7028 23.6736 48.8673 24.3216C48.0463 24.9556 46.9228 25.2726 45.4968 25.2726Z"
    fill="white" />
  <path
    class="icon-logo__letter"
    d="M58.6351 25.2726C57.7853 25.2726 57.0435 25.0965 56.4098 24.7443C55.776 24.3779 55.279 23.8849 54.9189 23.265V29.5625H51.4619V13.9666H54.4652V15.763C54.8829 15.129 55.4086 14.6359 56.0424 14.2836C56.6762 13.9314 57.418 13.7554 58.2678 13.7554C59.0312 13.7554 59.7298 13.9033 60.3636 14.1991C61.0118 14.495 61.5735 14.9035 62.0489 15.4248C62.5242 15.946 62.8914 16.5519 63.1507 17.2422C63.41 17.9325 63.5396 18.6792 63.5396 19.4822C63.5396 20.5812 63.3307 21.5673 62.9131 22.4408C62.4954 23.3143 61.912 24.0047 61.163 24.5118C60.4284 25.019 59.5858 25.2726 58.6351 25.2726ZM57.4684 22.4196C57.8429 22.4196 58.1813 22.3422 58.4838 22.1873C58.8008 22.0181 59.0744 21.7998 59.3049 21.5321C59.5354 21.2645 59.7082 20.9544 59.8234 20.6023C59.953 20.236 60.0179 19.8556 60.0179 19.4611C60.0179 19.0526 59.9459 18.6792 59.8018 18.3411C59.6722 18.0029 59.485 17.7071 59.2401 17.4535C58.9952 17.1859 58.7072 16.9815 58.3759 16.8407C58.0445 16.6998 57.6845 16.6293 57.2956 16.6293C57.0651 16.6293 56.8274 16.6646 56.5826 16.735C56.3521 16.8055 56.1288 16.9111 55.9128 17.052C55.7111 17.1789 55.5239 17.3338 55.351 17.5169C55.1782 17.7001 55.0342 17.9114 54.9189 18.1509V20.4332C55.0774 20.8136 55.2863 21.1518 55.5455 21.4476C55.8048 21.7435 56.1 21.9829 56.4313 22.1661C56.7626 22.3352 57.1083 22.4196 57.4684 22.4196Z"
    fill="white" />
  <path
    class="icon-logo__letter"
    d="M70.251 25.2726C69.2859 25.2726 68.4217 25.1176 67.6583 24.8077C66.9093 24.4977 66.2755 24.0751 65.7569 23.5397C65.2384 23.0043 64.8423 22.3915 64.5687 21.7012C64.3094 21.0109 64.1797 20.2853 64.1797 19.5245C64.1797 18.7497 64.3094 18.0171 64.5687 17.3268C64.8423 16.6364 65.2384 16.0236 65.7569 15.4882C66.2755 14.9528 66.9093 14.5301 67.6583 14.2202C68.4217 13.9103 69.2859 13.7554 70.251 13.7554C71.2161 13.7554 72.0731 13.9103 72.8221 14.2202C73.5711 14.5301 74.2049 14.9528 74.7235 15.4882C75.242 16.0236 75.6381 16.6364 75.9117 17.3268C76.1854 18.0171 76.3223 18.7497 76.3223 19.5245C76.3223 20.2853 76.1854 21.0109 75.9117 21.7012C75.6381 22.3915 75.242 23.0043 74.7235 23.5397C74.2049 24.0751 73.5711 24.4977 72.8221 24.8077C72.0731 25.1176 71.2161 25.2726 70.251 25.2726ZM67.7231 19.5245C67.7231 20.1021 67.8311 20.6093 68.0472 21.046C68.2777 21.4828 68.5802 21.8209 68.9546 22.0604C69.3291 22.2999 69.7613 22.4196 70.251 22.4196C70.7263 22.4196 71.1512 22.2999 71.5258 22.0604C71.9147 21.8069 72.2172 21.4617 72.4332 21.0249C72.6493 20.5882 72.7573 20.0881 72.7573 19.5245C72.7573 18.9469 72.6493 18.4397 72.4332 18.0029C72.2172 17.5662 71.9147 17.2282 71.5258 16.9886C71.1512 16.7491 70.7263 16.6293 70.251 16.6293C69.7613 16.6293 69.3291 16.7491 68.9546 16.9886C68.5802 17.2282 68.2777 17.5662 68.0472 18.0029C67.8311 18.4397 67.7231 18.9469 67.7231 19.5245Z"
    fill="white" />
  <path
    class="icon-logo__letter"
    d="M84.7827 24.4695C84.4659 24.5964 84.113 24.7231 83.7241 24.8499C83.3496 24.9768 82.9535 25.0753 82.5357 25.1458C82.1181 25.2304 81.7075 25.2726 81.3042 25.2726C80.7281 25.2726 80.1951 25.181 79.7054 24.9979C79.2301 24.8006 78.8483 24.4836 78.5602 24.0469C78.2866 23.6102 78.1498 23.0325 78.1498 22.314V16.5237H76.7021V13.9666H78.1498V10.4375H81.6067V13.9666H83.9185V16.5237H81.6067V21.1517C81.6067 21.518 81.7003 21.7857 81.8875 21.9548C82.0749 22.1097 82.3125 22.1873 82.6006 22.1873C82.8455 22.1873 83.1047 22.145 83.3784 22.0604C83.6664 21.9759 83.9113 21.8843 84.113 21.7857L84.7827 24.4695Z"
    fill="white" />
  <path
    class="icon-logo__letter"  
    d="M92.979 24.4695C92.6621 24.5964 92.3092 24.7231 91.9203 24.8499C91.5458 24.9768 91.1497 25.0753 90.732 25.1458C90.3143 25.2304 89.9037 25.2726 89.5005 25.2726C88.9242 25.2726 88.3913 25.181 87.9016 24.9979C87.4263 24.8006 87.0446 24.4836 86.7565 24.0469C86.4828 23.6102 86.346 23.0325 86.346 22.314V16.5237H84.8984V13.9666H86.346V10.4375H89.803V13.9666H92.1147V16.5237H89.803V21.1517C89.803 21.518 89.8966 21.7857 90.0838 21.9548C90.271 22.1097 90.5087 22.1873 90.7968 22.1873C91.0416 22.1873 91.3009 22.145 91.5746 22.0604C91.8627 21.9759 92.1076 21.8843 92.3092 21.7857L92.979 24.4695Z"
    fill="white" />
  <path
    class="icon-logo__letter"
    d="M99.1915 25.2726C98.2265 25.2726 97.3694 25.1247 96.6204 24.8289C95.8714 24.5188 95.2305 24.1033 94.6975 23.582C94.1789 23.0607 93.7828 22.4619 93.5092 21.7857C93.2354 21.0953 93.0986 20.3769 93.0986 19.6301C93.0986 18.5595 93.3363 17.5874 93.8117 16.7139C94.3014 15.8263 94.9999 15.1148 95.9074 14.5794C96.8148 14.03 97.9095 13.7554 99.1915 13.7554C100.473 13.7554 101.561 14.023 102.454 14.5584C103.361 15.0937 104.053 15.7981 104.528 16.6716C105.003 17.531 105.241 18.4679 105.241 19.4822C105.241 19.6794 105.227 19.8768 105.198 20.074C105.184 20.2571 105.169 20.4192 105.155 20.56H96.7716C96.8148 21.0532 96.9517 21.4687 97.1822 21.8069C97.427 22.145 97.7367 22.4056 98.1112 22.5888C98.4857 22.7578 98.8818 22.8423 99.2996 22.8423C99.8181 22.8423 100.301 22.7226 100.747 22.4831C101.208 22.2436 101.525 21.9195 101.698 21.511L104.636 22.314C104.348 22.8916 103.938 23.4058 103.405 23.8567C102.886 24.2935 102.267 24.6386 101.547 24.8922C100.841 25.1458 100.056 25.2726 99.1915 25.2726ZM96.6852 18.489H101.611C101.554 18.0241 101.417 17.6226 101.201 17.2845C100.985 16.9322 100.697 16.6646 100.337 16.4814C99.9765 16.2842 99.5804 16.1855 99.1483 16.1855C98.7018 16.1855 98.2984 16.2842 97.9383 16.4814C97.5927 16.6646 97.3118 16.9322 97.0958 17.2845C96.8797 17.6226 96.7429 18.0241 96.6852 18.489Z"
    fill="white" />
  <path
    class="icon-logo__letter"
    d="M113.57 16.8616C112.735 16.8616 111.978 16.9955 111.302 17.2631C110.625 17.5168 110.134 17.8971 109.832 18.4043V25.061H106.375V13.9664H109.552V16.2065C109.94 15.4599 110.444 14.8752 111.064 14.4525C111.683 14.0298 112.332 13.8115 113.009 13.7974C113.167 13.7974 113.283 13.7974 113.354 13.7974C113.441 13.7974 113.513 13.8045 113.57 13.8185V16.8616Z"
    fill="white" />
  <path d="M33.9649 3H0V37H33.9649V3Z" fill="#98E012" />
  <path
    d="M9.97763 10.8157C8.12414 10.8157 6.3951 11.798 5.10956 13.5817C3.86819 15.3039 3.18457 17.5833 3.18457 20C3.18457 22.4164 3.86825 24.696 5.10963 26.4181C6.3951 28.2019 8.12414 29.1841 9.97763 29.1841C11.8314 29.1841 13.5601 28.2019 14.8459 26.4181C16.0872 24.696 16.7707 22.4164 16.7707 20C16.7707 17.5833 16.0872 15.3039 14.8459 13.5817C13.5601 11.798 11.8314 10.8157 9.97763 10.8157ZM13.8359 25.6888C12.7906 27.1388 11.4204 27.9375 9.97763 27.9375C8.53479 27.9375 7.16477 27.1388 6.11941 25.6888C5.02996 24.1769 4.42994 22.1568 4.42994 20C4.42994 17.8431 5.02991 15.8227 6.11941 14.3112C7.16477 12.8611 8.53479 12.0624 9.97763 12.0624C11.4204 12.0624 12.7906 12.8611 13.8359 14.3112C14.9254 15.8227 15.5254 17.8431 15.5254 20C15.5254 22.1568 14.9254 24.1769 13.8359 25.6888Z"
    fill="#18181C" />
  <path
    d="M9.97766 16.8831C8.25819 16.8831 6.86426 18.2783 6.86426 19.9999C6.86426 20.9677 7.30515 21.8327 7.99673 22.4044C7.98376 22.3301 7.98636 22.2557 8.00788 22.1841C8.11772 21.8132 8.67093 21.6505 9.24374 21.8207C9.81638 21.9906 10.1915 22.4293 10.0814 22.8002C10.042 22.933 9.94527 23.0385 9.81175 23.1122C9.86662 23.115 9.92198 23.1166 9.9776 23.1166C11.6974 23.1166 13.0913 21.7212 13.0913 20C13.0913 18.2785 11.6974 16.8831 9.97766 16.8831ZM11.8417 18.6394C11.7316 19.0103 11.1783 19.173 10.6057 19.003C10.033 18.8327 9.65794 18.3941 9.76797 18.0232C9.87794 17.6523 10.4313 17.4894 11.0039 17.6596C11.5766 17.8299 11.9517 18.2683 11.8417 18.6394Z"
    fill="#18181C" />
  <path
    d="M28.8556 13.5817C27.57 11.798 25.841 10.8157 23.9874 10.8157C22.1337 10.8157 20.405 11.798 19.1193 13.5817C17.8779 15.3039 17.1943 17.5833 17.1943 20C17.1943 22.4164 17.8779 24.696 19.1193 26.4181C20.405 28.2019 22.1338 29.1841 23.9874 29.1841C25.841 29.1841 27.5699 28.2019 28.8556 26.4181C30.0968 24.696 30.7806 22.4164 30.7806 20C30.7806 17.5833 30.0968 15.3039 28.8556 13.5817ZM27.8457 25.6888C26.8004 27.1388 25.4302 27.9375 23.9874 27.9375C22.5447 27.9375 21.1745 27.1388 20.1291 25.6888C19.0396 24.1769 18.4397 22.1567 18.4397 20C18.4397 17.8432 19.0396 15.8227 20.1291 14.3112C21.1745 12.8611 22.5447 12.0624 23.9874 12.0624C25.4302 12.0624 26.8004 12.8611 27.8457 14.3112C28.9352 15.8227 29.5351 17.8431 29.5351 20C29.5351 22.1568 28.9352 24.1769 27.8457 25.6888Z"
    fill="#18181C" />
  <path
    d="M23.9877 16.8831C22.2679 16.8831 20.874 18.2783 20.874 19.9999C20.874 20.9677 21.3148 21.8327 22.0064 22.4044C21.9936 22.3301 21.9962 22.2557 22.0176 22.1841C22.1275 21.8132 22.6809 21.6505 23.2534 21.8207C23.8262 21.9906 24.2012 22.4293 24.0912 22.8002C24.0519 22.933 23.9552 23.0385 23.8214 23.1122C23.8765 23.115 23.9318 23.1166 23.9874 23.1166C25.7069 23.1166 27.1009 21.7212 27.1009 20C27.1011 18.2785 25.707 16.8831 23.9877 16.8831ZM25.8517 18.6394C25.7415 19.0103 25.1883 19.173 24.6155 19.003C24.0428 18.8327 23.6676 18.3941 23.7779 18.0232C23.8878 17.6523 24.4412 17.4894 25.0136 17.6596C25.5864 17.8299 25.9614 18.2683 25.8517 18.6394Z"
    fill="#18181C" />
</svg>