<svg width="301" height="301" viewBox="0 0 301 301" fill="none" xmlns="http://www.w3.org/2000/svg">
<rect width="301" height="301" fill="#98E012"/>
<g clip-path="url(#clip0_306_13064)">
<path d="M88.4194 69.1924C71.9936 69.1924 56.6708 77.8889 45.2782 93.68C34.277 108.927 28.2188 129.106 28.2188 150.5C28.2188 171.893 34.2776 192.074 45.2788 207.32C56.6708 223.112 71.9936 231.808 88.4194 231.808C104.847 231.808 120.168 223.112 131.562 207.32C142.563 192.074 148.621 171.893 148.621 150.5C148.621 129.106 142.563 108.927 131.562 93.68C120.168 77.8889 104.847 69.1924 88.4194 69.1924ZM122.612 200.863C113.348 213.7 101.206 220.77 88.4194 220.77C75.6328 220.77 63.4917 213.7 54.2276 200.863C44.5728 187.479 39.2553 169.595 39.2553 150.501C39.2553 131.406 44.5722 113.52 54.2276 100.139C63.4917 87.3004 75.6328 80.23 88.4194 80.23C101.206 80.23 113.348 87.3004 122.612 100.139C132.267 113.52 137.584 131.406 137.584 150.501C137.584 169.595 132.267 187.479 122.612 200.863Z" fill="#18181C"/>
<path d="M88.4194 122.907C73.1813 122.907 60.8281 135.26 60.8281 150.5C60.8281 159.069 64.7354 166.726 70.8643 171.788C70.7493 171.129 70.7723 170.471 70.963 169.837C71.9364 166.553 76.839 165.113 81.9154 166.62C86.9901 168.124 90.3142 172.007 89.3385 175.292C88.9897 176.468 88.1323 177.402 86.9492 178.053C87.4353 178.079 87.926 178.093 88.4189 178.093C103.659 178.093 116.012 165.739 116.012 150.501C116.013 135.261 103.66 122.907 88.4194 122.907ZM104.939 138.455C103.963 141.739 99.0595 143.18 93.9854 141.674C88.9095 140.167 85.586 136.285 86.5611 133.001C87.5357 129.717 92.4394 128.276 97.5147 129.782C102.589 131.289 105.913 135.171 104.939 138.455Z" fill="#18181C"/>
<path d="M255.721 93.68C244.328 77.8889 229.006 69.1924 212.58 69.1924C196.152 69.1924 180.832 77.8889 169.438 93.68C158.437 108.927 152.379 129.106 152.379 150.5C152.379 171.893 158.437 192.074 169.438 207.32C180.832 223.112 196.153 231.808 212.58 231.808C229.006 231.808 244.328 223.112 255.721 207.32C266.721 192.074 272.781 171.893 272.781 150.5C272.781 129.106 266.721 108.927 255.721 93.68ZM246.772 200.863C237.508 213.7 225.366 220.77 212.58 220.77C199.794 220.77 187.651 213.7 178.387 200.863C168.732 187.479 163.415 169.594 163.415 150.501C163.415 131.407 168.732 113.52 178.387 100.139C187.651 87.3004 199.794 80.23 212.58 80.23C225.366 80.23 237.508 87.3004 246.772 100.139C256.427 113.52 261.744 131.406 261.744 150.501C261.744 169.595 256.427 187.479 246.772 200.863Z" fill="#18181C"/>
<path d="M212.58 122.907C197.339 122.907 184.986 135.26 184.986 150.5C184.986 159.069 188.893 166.726 195.022 171.788C194.909 171.129 194.932 170.471 195.121 169.837C196.096 166.553 200.999 165.113 206.073 166.62C211.149 168.124 214.472 172.007 213.498 175.292C213.149 176.468 212.292 177.402 211.107 178.053C211.595 178.079 212.085 178.093 212.578 178.093C227.816 178.093 240.169 165.739 240.169 150.501C240.171 135.261 227.817 122.907 212.58 122.907ZM229.099 138.455C228.123 141.739 223.22 143.18 218.144 141.674C213.069 140.167 209.744 136.285 210.722 133.001C211.695 129.717 216.599 128.276 221.672 129.782C226.749 131.289 230.072 135.171 229.099 138.455Z" fill="#18181C"/>
</g>
<defs>
<clipPath id="clip0_306_13064">
<rect width="244.562" height="244.562" fill="white" transform="translate(28.2188 28.2188)"/>
</clipPath>
</defs>
</svg>
