<svg width="396" height="227" viewBox="0 0 396 227" fill="none" xmlns="http://www.w3.org/2000/svg">
<rect x="0.00488281" y="30.5507" width="204.84" height="132.459" rx="10" transform="rotate(-8.47686 0.00488281 30.5507)" fill="url(#paint0_linear_297_11380)"/>
<path d="M30.7656 121.715L29.2647 111.644L32.7855 111.119C33.487 111.015 34.0837 111.05 34.5755 111.225C35.0669 111.396 35.4543 111.668 35.7378 112.042C36.0208 112.412 36.199 112.843 36.2722 113.334C36.3367 113.767 36.313 114.136 36.2009 114.441C36.0921 114.745 35.9254 114.998 35.7007 115.199C35.4792 115.399 35.2301 115.56 34.9534 115.682L34.968 115.781C35.2791 115.754 35.605 115.816 35.9458 115.967C36.2865 116.117 36.5891 116.36 36.8537 116.696C37.1182 117.032 37.29 117.465 37.3692 117.996C37.4444 118.501 37.3973 118.972 37.228 119.41C37.0586 119.847 36.744 120.221 36.2842 120.53C35.8243 120.84 35.1978 121.054 34.4044 121.172L30.7656 121.715ZM31.8239 120.451L34.2432 120.091C35.0398 119.972 35.5823 119.734 35.8708 119.376C36.162 119.014 36.2747 118.612 36.2087 118.169C36.1579 117.828 36.0241 117.526 35.8074 117.264C35.5901 116.998 35.308 116.802 34.9608 116.676C34.6132 116.547 34.2197 116.515 33.7804 116.581L31.3021 116.95L31.8239 120.451ZM31.1438 115.888L33.4058 115.551C33.7729 115.496 34.0933 115.375 34.3668 115.187C34.6436 114.998 34.8494 114.759 34.984 114.471C35.1219 114.183 35.1645 113.861 35.1118 113.507C35.0458 113.065 34.8358 112.712 34.4817 112.45C34.1272 112.185 33.6155 112.102 32.9467 112.201L30.6455 112.544L31.1438 115.888ZM39.8992 115.428L42.0628 115.105C42.9479 114.973 43.6583 115.097 44.1941 115.476C44.7298 115.855 45.0489 116.389 45.1515 117.078C45.2189 117.53 45.1754 117.957 45.0208 118.359C44.8657 118.757 44.6013 119.097 44.2275 119.377C43.8533 119.654 43.3711 119.836 42.781 119.924L39.6143 120.396L38.4886 112.843L39.6491 112.67L40.6135 119.141L42.6198 118.842C43.0787 118.774 43.4376 118.596 43.6965 118.31C43.9554 118.023 44.0565 117.69 43.9998 117.31C43.9402 116.91 43.7441 116.605 43.4114 116.397C43.0788 116.189 42.683 116.119 42.224 116.187L40.0604 116.509L39.8992 115.428ZM46.7148 119.338L45.5892 111.785L46.7496 111.612L47.8753 119.165L46.7148 119.338ZM53.0914 118.548C52.3833 118.654 51.7487 118.577 51.1874 118.319C50.6262 118.061 50.1642 117.659 49.8014 117.113C49.4385 116.568 49.2009 115.918 49.0886 115.164C48.9742 114.397 49.0143 113.699 49.2088 113.07C49.406 112.437 49.7341 111.918 50.1928 111.511C50.6544 111.1 51.2261 110.844 51.908 110.743C52.439 110.663 52.9323 110.69 53.3878 110.824C53.8433 110.957 54.2334 111.18 54.5583 111.494C54.8831 111.807 55.1135 112.195 55.2494 112.657L54.089 112.83C53.9492 112.499 53.707 112.224 53.3626 112.004C53.0209 111.78 52.5944 111.706 52.083 111.782C51.6306 111.85 51.2515 112.027 50.9458 112.313C50.6428 112.597 50.428 112.965 50.3014 113.42C50.1776 113.871 50.1582 114.381 50.2432 114.952C50.3301 115.535 50.4977 116.03 50.7457 116.435C50.9971 116.84 51.3094 117.137 51.6827 117.326C52.0593 117.514 52.4771 117.574 52.936 117.506C53.2376 117.461 53.5036 117.368 53.7338 117.226C53.964 117.085 54.1497 116.903 54.2909 116.681C54.432 116.458 54.5181 116.204 54.5492 115.918L55.7097 115.745C55.7106 116.201 55.6081 116.627 55.4024 117.023C55.1995 117.415 54.9022 117.747 54.5106 118.02C54.1218 118.289 53.6487 118.465 53.0914 118.548ZM60.8263 117.395C60.1444 117.497 59.522 117.424 58.9589 117.176C58.3992 116.928 57.9316 116.533 57.5561 115.993C57.1839 115.452 56.9397 114.791 56.8234 114.011C56.7062 113.224 56.7464 112.516 56.9442 111.887C57.1452 111.257 57.4772 110.742 57.9403 110.341C58.4066 109.94 58.9806 109.688 59.6625 109.587C60.3444 109.485 60.9652 109.559 61.525 109.807C62.088 110.055 62.5558 110.451 62.9285 110.995C63.3044 111.539 63.551 112.204 63.6683 112.991C63.7846 113.771 63.742 114.474 63.5404 115.101C63.3422 115.727 63.0099 116.241 62.5436 116.642C62.0806 117.043 61.5082 117.294 60.8263 117.395ZM60.6709 116.353C61.1889 116.276 61.5953 116.08 61.8901 115.764C62.1849 115.449 62.3803 115.063 62.4765 114.606C62.5726 114.149 62.5831 113.669 62.5078 113.164C62.4326 112.659 62.2821 112.201 62.0565 111.789C61.8309 111.376 61.5309 111.061 61.1565 110.842C60.782 110.623 60.3358 110.552 59.8179 110.629C59.2999 110.706 58.8938 110.904 58.5995 111.223C58.3052 111.542 58.1102 111.931 58.0145 112.391C57.9189 112.851 57.9087 113.333 57.9839 113.838C58.0592 114.343 58.2093 114.8 58.4345 115.209C58.6596 115.617 58.9591 115.93 59.3331 116.145C59.707 116.361 60.153 116.43 60.6709 116.353ZM65.9967 116.464L64.871 108.911L66.0315 108.738L66.5211 112.023L67.2882 111.909L69.513 108.219L71.0078 107.996L68.5014 112.09L72.1728 115.544L70.678 115.766L67.7248 112.949L66.6823 113.105L67.1572 116.291L65.9967 116.464ZM75.6831 115.201C75.2045 115.273 74.7567 115.247 74.3397 115.125C73.9222 115 73.5731 114.782 73.2924 114.472C73.0111 114.159 72.8338 113.756 72.7605 113.264C72.696 112.832 72.729 112.468 72.8594 112.174C72.9893 111.877 73.1854 111.629 73.4476 111.433C73.7099 111.236 74.0075 111.075 74.3404 110.948C74.6762 110.818 75.016 110.703 75.36 110.605C75.8101 110.478 76.1756 110.378 76.4564 110.306C76.74 110.23 76.9417 110.145 77.0616 110.05C77.1848 109.954 77.2325 109.813 77.2046 109.626L77.1988 109.587C77.1264 109.102 76.9375 108.745 76.6319 108.515C76.3296 108.286 75.9112 108.211 75.3769 108.29C74.8229 108.373 74.4066 108.559 74.1281 108.848C73.8495 109.138 73.6668 109.43 73.58 109.724L72.4199 109.495C72.5482 109.007 72.7572 108.61 73.0469 108.306C73.3394 107.997 73.6731 107.763 74.0481 107.604C74.4259 107.44 74.8049 107.33 75.1851 107.273C75.4277 107.237 75.7108 107.225 76.0343 107.237C76.3605 107.246 76.6844 107.316 77.0058 107.449C77.3305 107.582 77.6178 107.812 77.8678 108.14C78.1177 108.468 78.2874 108.932 78.3768 109.532L79.1185 114.508L77.958 114.681L77.8056 113.659L77.7466 113.667C77.6923 113.843 77.5873 114.038 77.4316 114.252C77.2759 114.466 77.0553 114.662 76.77 114.838C76.4847 115.015 76.1224 115.136 75.6831 115.201ZM75.7048 114.133C76.1637 114.064 76.5371 113.916 76.8249 113.689C77.116 113.461 77.3207 113.193 77.4388 112.884C77.5602 112.574 77.5974 112.262 77.5505 111.947L77.3922 110.885C77.3519 110.952 77.2517 111.022 77.0919 111.096C76.9348 111.166 76.7508 111.235 76.5398 111.304C76.3316 111.368 76.1278 111.429 75.9285 111.485C75.7319 111.538 75.5726 111.582 75.4505 111.617C75.1547 111.701 74.8823 111.807 74.6333 111.935C74.387 112.059 74.1965 112.219 74.0618 112.417C73.9298 112.611 73.8858 112.855 73.9298 113.15C73.9899 113.554 74.1845 113.836 74.5136 113.998C74.8455 114.157 75.2425 114.201 75.7048 114.133ZM85.7802 113.516L84.8128 107.025L82.8065 107.324C82.3541 107.391 82.0141 107.549 81.7864 107.797C81.5587 108.046 81.4722 108.354 81.5269 108.721C81.5806 109.081 81.7393 109.348 82.0028 109.519C82.2696 109.691 82.6079 109.746 83.0177 109.685L85.4567 109.321L85.6179 110.403L83.1789 110.767C82.6675 110.843 82.2132 110.818 81.8159 110.693C81.4186 110.568 81.095 110.353 80.8452 110.049C80.5949 109.741 80.4353 109.356 80.3664 108.894C80.297 108.428 80.3423 108.013 80.5023 107.647C80.6623 107.281 80.9239 106.979 81.2871 106.741C81.6536 106.502 82.1073 106.342 82.6482 106.262L85.756 105.798L86.8816 113.351L85.7802 113.516ZM80.7449 114.266L82.3289 110.19L83.5877 110.002L82.0037 114.078L80.7449 114.266ZM33.2617 139.542L32.136 131.989L38.0761 131.103L39.2017 138.656L38.0413 138.829L37.0768 132.358L33.4577 132.898L34.4222 139.369L33.2617 139.542ZM44.5113 138.026C43.7835 138.134 43.1318 138.067 42.5561 137.825C41.9833 137.578 41.511 137.186 41.1393 136.648C40.7704 136.107 40.5283 135.449 40.413 134.676C40.2977 133.902 40.337 133.199 40.531 132.567C40.7278 131.931 41.0556 131.41 41.5143 131.003C41.9759 130.593 42.5476 130.336 43.2295 130.235C43.6229 130.176 44.0211 130.184 44.4242 130.258C44.8273 130.332 45.2082 130.493 45.5668 130.741C45.925 130.986 46.2335 131.335 46.4921 131.789C46.7508 132.243 46.9327 132.823 47.0377 133.528L47.111 134.019L41.2889 134.887L41.1394 133.884L45.7813 133.192C45.7178 132.766 45.5759 132.398 45.3556 132.089C45.1386 131.78 44.86 131.552 44.5197 131.405C44.1827 131.257 43.8044 131.215 43.3848 131.277C42.9226 131.346 42.5398 131.52 42.2363 131.8C41.9357 132.076 41.7223 132.41 41.5962 132.8C41.4702 133.191 41.4381 133.595 41.5002 134.011L41.5999 134.68C41.6849 135.25 41.8553 135.719 42.1111 136.086C42.3697 136.45 42.6914 136.709 43.0762 136.862C43.4606 137.013 43.8871 137.053 44.3559 136.983C44.6608 136.938 44.9298 136.854 45.163 136.732C45.3989 136.607 45.5941 136.444 45.7485 136.243C45.9024 136.039 46.009 135.799 46.0683 135.522L47.2363 135.669C47.175 136.067 47.0265 136.431 46.7908 136.761C46.5547 137.088 46.2437 137.362 45.8578 137.584C45.4715 137.802 45.0227 137.95 44.5113 138.026ZM49.8026 139.972L48.2548 129.586L49.376 129.419L49.5548 130.619L49.6925 130.599C49.7582 130.455 49.8513 130.27 49.9718 130.044C50.0951 129.815 50.2873 129.598 50.5486 129.395C50.8127 129.188 51.1905 129.048 51.6823 128.975C52.3182 128.88 52.9025 128.956 53.4351 129.201C53.9676 129.447 54.4134 129.841 54.7725 130.384C55.1316 130.927 55.3702 131.595 55.4884 132.389C55.6076 133.189 55.5749 133.902 55.3903 134.53C55.2052 135.154 54.8956 135.662 54.4616 136.055C54.0271 136.445 53.4951 136.687 52.8657 136.781C52.3806 136.853 51.9801 136.831 51.6644 136.713C51.3482 136.593 51.0961 136.441 50.9079 136.258C50.7193 136.072 50.5721 135.916 50.4664 135.791L50.368 135.806L50.9631 139.799L49.8026 139.972ZM49.9585 133.193C50.0435 133.763 50.2021 134.254 50.4343 134.665C50.6659 135.073 50.9607 135.376 51.3186 135.574C51.676 135.768 52.0875 135.831 52.553 135.762C53.0382 135.689 53.424 135.501 53.7104 135.197C53.9996 134.889 54.1937 134.505 54.2926 134.045C54.3944 133.581 54.4052 133.08 54.325 132.542C54.2459 132.011 54.0926 131.545 53.8652 131.143C53.6405 130.737 53.3457 130.434 52.9808 130.234C52.6186 130.03 52.1917 129.965 51.7 130.038C51.2279 130.108 50.8491 130.287 50.5635 130.574C50.2774 130.858 50.0841 131.225 49.9838 131.676C49.8829 132.123 49.8744 132.629 49.9585 133.193ZM60.9104 135.582C60.2023 135.687 59.5676 135.611 59.0064 135.353C58.4452 135.095 57.9832 134.693 57.6203 134.147C57.2575 133.601 57.0199 132.951 56.9075 132.197C56.7932 131.43 56.8333 130.732 57.0278 130.103C57.225 129.471 57.553 128.951 58.0118 128.544C58.4734 128.134 59.0451 127.878 59.7269 127.776C60.258 127.697 60.7513 127.724 61.2068 127.857C61.6622 127.99 62.0524 128.214 62.3773 128.527C62.7021 128.841 62.9325 129.228 63.0684 129.691L61.9079 129.864C61.7681 129.533 61.526 129.257 61.1816 129.037C60.8399 128.813 60.4134 128.739 59.902 128.816C59.4496 128.883 59.0705 129.06 58.7648 129.347C58.4618 129.63 58.247 129.999 58.1204 130.453C57.9966 130.904 57.9771 131.415 58.0622 131.985C58.1491 132.569 58.3166 133.063 58.5647 133.468C58.8161 133.873 59.1284 134.17 59.5017 134.359C59.8783 134.548 60.2961 134.608 60.755 134.539C61.0566 134.494 61.3225 134.401 61.5528 134.26C61.783 134.118 61.9687 133.936 62.1098 133.714C62.251 133.492 62.3371 133.238 62.3682 132.952L63.5287 132.779C63.5295 133.234 63.4271 133.66 63.2214 134.056C63.0185 134.448 62.7212 134.781 62.3296 135.054C61.9407 135.323 61.4677 135.499 60.9104 135.582ZM65.5534 134.729L64.4278 127.176L70.3678 126.291L71.4935 133.844L70.333 134.017L69.3686 127.545L65.7495 128.085L66.7139 134.556L65.5534 134.729ZM76.803 133.213C76.0753 133.322 75.4236 133.255 74.8479 133.012C74.275 132.766 73.8027 132.374 73.4311 131.836C73.0622 131.294 72.8201 130.637 72.7048 129.863C72.5895 129.089 72.6288 128.387 72.8228 127.754C73.0196 127.119 73.3473 126.597 73.8061 126.19C74.2677 125.78 74.8394 125.524 75.5212 125.422C75.9146 125.363 76.3129 125.371 76.716 125.445C77.119 125.519 77.4999 125.68 77.8586 125.928C78.2168 126.173 78.5252 126.523 78.7839 126.977C79.0426 127.431 79.2244 128.01 79.3295 128.715L79.4028 129.207L73.5807 130.074L73.4312 129.071L78.0731 128.379C78.0096 127.953 77.8677 127.586 77.6474 127.277C77.4304 126.967 77.1517 126.739 76.8115 126.592C76.4745 126.444 76.0962 126.402 75.6766 126.465C75.2144 126.533 74.8315 126.708 74.5281 126.988C74.2274 127.264 74.0141 127.597 73.888 127.988C73.7619 128.379 73.7299 128.782 73.792 129.198L73.8916 129.867C73.9766 130.438 74.1471 130.906 74.4029 131.274C74.6615 131.637 74.9832 131.896 75.368 132.05C75.7523 132.2 76.1789 132.241 76.6477 132.171C76.9525 132.125 77.2216 132.042 77.4547 131.92C77.6907 131.794 77.8859 131.631 78.0403 131.43C78.1942 131.226 78.3008 130.986 78.36 130.709L79.5281 130.857C79.4667 131.255 79.3182 131.619 79.0826 131.949C78.8464 132.275 78.5355 132.549 78.1496 132.771C77.7633 132.99 77.3144 133.137 76.803 133.213ZM81.6723 132.327L80.5466 124.774L81.7071 124.601L82.1966 127.885L82.9637 127.771L85.1885 124.082L86.6834 123.859L84.177 127.952L87.8484 131.406L86.3535 131.629L83.4003 128.812L82.3579 128.967L82.8328 132.154L81.6723 132.327ZM87.7125 124.811L87.5513 123.73L93.688 122.815L93.8493 123.897L91.371 124.266L92.3354 130.737L91.1749 130.91L90.2105 124.439L87.7125 124.811ZM97.4119 128.232L100.18 121.848L101.518 121.648L102.643 129.201L101.483 129.374L100.612 123.532L97.8637 129.913L96.5065 130.116L95.3808 122.563L96.5413 122.39L97.4119 128.232ZM104.769 128.884L103.643 121.331L106.731 120.871C107.544 120.75 108.217 120.837 108.751 121.133C109.284 121.429 109.596 121.878 109.685 122.482C109.754 122.941 109.671 123.317 109.436 123.61C109.201 123.899 108.877 124.12 108.464 124.272C108.749 124.27 109.034 124.328 109.32 124.446C109.609 124.564 109.861 124.748 110.075 124.997C110.29 125.243 110.426 125.565 110.486 125.961C110.543 126.348 110.496 126.709 110.345 127.043C110.194 127.377 109.948 127.66 109.607 127.892C109.266 128.124 108.84 128.278 108.329 128.354L104.769 128.884ZM105.712 127.658L108.171 127.292C108.57 127.232 108.869 127.09 109.067 126.866C109.265 126.643 109.34 126.367 109.291 126.039C109.233 125.649 109.074 125.359 108.814 125.17C108.555 124.977 108.225 124.911 107.825 124.971L105.366 125.337L105.712 127.658ZM105.216 124.334L107.203 124.038C107.515 123.991 107.775 123.909 107.986 123.791C108.195 123.669 108.347 123.519 108.441 123.341C108.538 123.159 108.57 122.956 108.537 122.733C108.489 122.415 108.319 122.186 108.027 122.045C107.734 121.901 107.355 121.864 106.889 121.933L104.903 122.229L105.216 124.334ZM116.957 122.665L117.118 123.746L112.949 124.368L112.787 123.286L116.957 122.665ZM112.579 120L113.705 127.553L112.544 127.726L111.419 120.173L112.579 120ZM117.359 119.287L118.484 126.84L117.324 127.013L116.198 119.46L117.359 119.287ZM123.695 126.224C123.014 126.326 122.391 126.253 121.828 126.005C121.268 125.757 120.801 125.362 120.425 124.822C120.053 124.281 119.809 123.62 119.693 122.84C119.575 122.053 119.616 121.345 119.813 120.716C120.014 120.086 120.346 119.571 120.809 119.17C121.276 118.769 121.85 118.517 122.532 118.416C123.214 118.314 123.834 118.387 124.394 118.636C124.957 118.884 125.425 119.28 125.798 119.824C126.174 120.368 126.42 121.033 126.537 121.82C126.654 122.6 126.611 123.303 126.41 123.93C126.211 124.556 125.879 125.07 125.413 125.471C124.95 125.872 124.377 126.123 123.695 126.224ZM123.54 125.182C124.058 125.105 124.464 124.908 124.759 124.593C125.054 124.278 125.249 123.892 125.346 123.435C125.442 122.978 125.452 122.498 125.377 121.993C125.302 121.488 125.151 121.029 124.926 120.617C124.7 120.205 124.4 119.89 124.026 119.671C123.651 119.452 123.205 119.381 122.687 119.458C122.169 119.535 121.763 119.733 121.469 120.052C121.174 120.371 120.979 120.76 120.884 121.22C120.788 121.68 120.778 122.162 120.853 122.667C120.928 123.172 121.078 123.629 121.304 124.037C121.529 124.446 121.828 124.758 122.202 124.974C122.576 125.19 123.022 125.259 123.54 125.182ZM131.958 124.993C131.25 125.099 130.615 125.022 130.054 124.764C129.492 124.506 129.03 124.104 128.668 123.558C128.305 123.012 128.067 122.363 127.955 121.609C127.841 120.841 127.881 120.144 128.075 119.515C128.272 118.882 128.6 118.362 129.059 117.956C129.521 117.545 130.092 117.289 130.774 117.187C131.305 117.108 131.799 117.135 132.254 117.268C132.71 117.402 133.1 117.625 133.425 117.938C133.749 118.252 133.98 118.64 134.116 119.102L132.955 119.275C132.815 118.944 132.573 118.668 132.229 118.448C131.887 118.224 131.461 118.151 130.949 118.227C130.497 118.294 130.118 118.471 129.812 118.758C129.509 119.041 129.294 119.41 129.168 119.865C129.044 120.315 129.024 120.826 129.109 121.396C129.196 121.98 129.364 122.474 129.612 122.88C129.863 123.284 130.176 123.581 130.549 123.77C130.926 123.959 131.343 124.019 131.802 123.951C132.104 123.906 132.37 123.812 132.6 123.671C132.83 123.529 133.016 123.347 133.157 123.125C133.298 122.903 133.384 122.649 133.415 122.363L134.576 122.19C134.577 122.646 134.474 123.071 134.269 123.467C134.066 123.859 133.768 124.192 133.377 124.465C132.988 124.734 132.515 124.91 131.958 124.993ZM135.041 117.758L134.88 116.676L141.017 115.761L141.178 116.843L138.7 117.212L139.664 123.684L138.504 123.857L137.539 117.385L135.041 117.758ZM144.12 118.093L146.284 117.771C147.169 117.639 147.879 117.763 148.415 118.142C148.951 118.521 149.27 119.055 149.373 119.744C149.44 120.196 149.396 120.623 149.242 121.025C149.087 121.423 148.822 121.762 148.448 122.043C148.074 122.32 147.592 122.502 147.002 122.59L143.835 123.062L142.71 115.509L143.87 115.336L144.835 121.807L146.841 121.508C147.3 121.44 147.659 121.262 147.918 120.976C148.176 120.689 148.278 120.356 148.221 119.975C148.161 119.576 147.965 119.271 147.632 119.063C147.3 118.854 146.904 118.784 146.445 118.853L144.281 119.175L144.12 118.093ZM159.81 116.278L159.971 117.36L155.801 117.981L155.64 116.899L159.81 116.278ZM155.432 113.613L156.558 121.166L155.397 121.339L154.271 113.786L155.432 113.613ZM160.211 112.901L161.337 120.453L160.177 120.626L159.051 113.074L160.211 112.901ZM164.362 118.253L167.13 111.869L168.468 111.67L169.593 119.223L168.433 119.396L167.562 113.554L164.814 119.935L163.456 120.138L162.331 112.585L163.491 112.412L164.362 118.253ZM170.593 111.353L171.754 111.18L172.718 117.651L175.57 117.226L174.606 110.755L175.766 110.582L176.73 117.053L179.582 116.628L178.618 110.157L179.779 109.984L180.904 117.537L171.719 118.906L170.593 111.353ZM183.929 115.337L186.697 108.953L188.035 108.754L189.16 116.307L188 116.48L187.129 110.638L184.381 117.019L183.024 117.221L181.898 109.668L183.058 109.495L183.929 115.337Z" fill="white"/>
<path d="M30.6504 91.4228L43.0518 54.0271L43.0079 53.732L22.67 56.7632L21.8932 51.5508L48.5251 47.5817L49.3284 52.971L37.0036 90.4759L30.6504 91.4228ZM68.2887 42.706L62.495 92.8694L57.2433 93.6521L63.0371 43.4887L68.2887 42.706ZM86.5548 41.9138L92.5584 82.1961L86.461 83.1049L81.3661 48.92L81.1301 48.9551L72.4303 56.6857L71.5626 50.8636L80.6344 42.7962L86.5548 41.9138ZM115.363 79.4809C112.254 79.931 109.476 79.5072 107.031 78.2095C104.586 76.9119 102.548 74.7962 100.918 71.8624C99.2875 68.9286 98.146 65.2719 97.4932 60.8922C96.8425 56.5257 96.87 52.7081 97.5758 49.4396C98.2947 46.1691 99.6345 43.5567 101.595 41.6024C103.569 39.6461 106.096 38.4384 109.178 37.9791C112.259 37.5199 115.024 37.9456 117.471 39.2564C119.916 40.554 121.953 42.6632 123.581 45.5839C125.221 48.4895 126.366 52.1256 127.017 56.4921C127.671 60.8849 127.647 64.7221 126.943 68.0037C126.237 71.2723 124.905 73.8903 122.946 75.8577C120.986 77.812 118.458 79.0197 115.363 79.4809ZM114.581 74.2293C117.308 73.8228 119.241 72.1743 120.378 69.2837C121.529 66.3912 121.729 62.4274 120.978 57.3921C120.48 54.0483 119.705 51.2753 118.653 49.073C117.612 46.8556 116.347 45.248 114.858 44.2502C113.38 43.2373 111.742 42.8647 109.946 43.1324C107.232 43.537 105.3 45.192 104.152 48.0976C103.003 51.0032 102.796 54.9681 103.532 59.9923C104.032 63.3491 104.803 66.1362 105.843 68.3536C106.895 70.5559 108.16 72.157 109.636 73.1568C111.11 74.1434 112.758 74.5009 114.581 74.2293Z" fill="white"/>
<rect x="203.646" y="20.1412" width="192.601" height="187.896" rx="11.5" transform="rotate(5.66075 203.646 20.1412)" stroke="#D9D9E0" stroke-dasharray="6 4"/>
<rect x="217.658" y="63.6567" width="160" height="16" rx="8" transform="rotate(5.94844 217.658 63.6567)" fill="#8557E5"/>
<path d="M228.372 47.1967L227.393 56.6003L225.978 56.4529L226.832 48.2615L222.405 47.8003L221.552 55.9917L220.138 55.8444L221.118 46.4407L228.372 47.1967ZM229.176 59.4596L230.187 49.7621L231.527 49.9018L231.408 51.0451L231.523 51.0571C231.618 50.9185 231.751 50.7605 231.921 50.5833C232.091 50.4061 232.316 50.2594 232.598 50.1433C232.879 50.0241 233.239 49.9873 233.677 50.0329C234.246 50.0923 234.739 50.2891 235.156 50.6234C235.573 50.9577 235.88 51.409 236.078 51.9773C236.279 52.5459 236.339 53.2113 236.26 53.9735C236.18 54.7357 235.985 55.376 235.675 55.8944C235.364 56.4098 234.971 56.7912 234.497 57.0388C234.023 57.2834 233.501 57.376 232.932 57.3167C232.503 57.272 232.16 57.1636 231.903 56.9913C231.648 56.8194 231.455 56.629 231.322 56.4202C231.189 56.2114 231.089 56.0277 231.022 55.8691L230.939 55.8605L230.549 59.6027L229.176 59.4596ZM231.165 53.4287C231.113 53.9246 231.14 54.3667 231.245 54.7552C231.35 55.1436 231.527 55.4576 231.778 55.6972C232.028 55.9338 232.351 56.0726 232.746 56.1138C233.156 56.1565 233.51 56.0836 233.809 55.8949C234.107 55.7032 234.346 55.4265 234.526 55.0646C234.709 54.7031 234.826 54.2866 234.875 53.8152C234.923 53.35 234.896 52.9248 234.794 52.5397C234.695 52.155 234.517 51.841 234.261 51.5977C234.008 51.3547 233.675 51.2117 233.261 51.1686C232.863 51.1271 232.516 51.1946 232.219 51.371C231.925 51.5477 231.689 51.8124 231.51 52.165C231.331 52.5177 231.216 52.9389 231.165 53.4287ZM240.388 58.0982C239.727 58.0293 239.166 57.8177 238.704 57.4633C238.243 57.1089 237.905 56.6451 237.689 56.0718C237.473 55.4986 237.403 54.8477 237.479 54.1191C237.556 53.3875 237.758 52.762 238.088 52.2424C238.418 51.7229 238.844 51.3372 239.369 51.0855C239.893 50.8338 240.486 50.7424 241.147 50.8113C241.809 50.8802 242.37 51.0919 242.831 51.4463C243.292 51.8007 243.631 52.266 243.846 52.8423C244.061 53.4187 244.131 54.0726 244.055 54.8042C243.979 55.5328 243.776 56.1553 243.447 56.6718C243.118 57.1882 242.691 57.5723 242.166 57.824C241.642 58.0757 241.049 58.1671 240.388 58.0982ZM240.513 56.9462C240.941 56.9909 241.308 56.9146 241.613 56.7174C241.919 56.5203 242.158 56.2404 242.332 55.878C242.509 55.5158 242.621 55.1082 242.668 54.6552C242.715 54.2052 242.689 53.7847 242.591 53.3939C242.496 53.0003 242.319 52.674 242.062 52.4151C241.804 52.1562 241.461 52.0044 241.032 51.9597C240.601 51.9147 240.231 51.9922 239.922 52.1921C239.616 52.3924 239.375 52.6751 239.198 53.0403C239.024 53.4028 238.913 53.809 238.867 54.259C238.819 54.7121 238.843 55.1339 238.939 55.5244C239.037 55.9153 239.216 56.2386 239.474 56.4945C239.735 56.7507 240.081 56.9012 240.513 56.9462ZM244.322 60.4204L244.658 57.1971L245.232 57.2569C245.393 57.1376 245.534 56.9898 245.654 56.8136C245.778 56.6377 245.888 56.4248 245.985 56.175C246.086 55.9256 246.178 55.632 246.263 55.2942C246.348 54.9534 246.432 54.563 246.515 54.123L247.009 51.515L251.803 52.0144L251.192 57.8779L252.276 57.9908L251.94 61.2141L250.599 61.0744L250.811 59.0404L245.893 58.528L245.681 60.5621L244.322 60.4204ZM246.701 57.41L249.851 57.7382L250.34 53.0502L248.117 52.8186L247.819 54.2589C247.671 54.9923 247.515 55.6259 247.352 56.1596C247.188 56.6902 246.971 57.107 246.701 57.41ZM255.53 59.6898C255.083 59.6433 254.687 59.5185 254.343 59.3156C254 59.1096 253.739 58.8364 253.561 58.4961C253.386 58.156 253.322 57.7549 253.371 57.2927C253.412 56.8947 253.523 56.5752 253.703 56.334C253.882 56.0928 254.11 55.9108 254.386 55.7879C254.662 55.665 254.965 55.582 255.294 55.539C255.623 55.496 255.957 55.4719 256.295 55.4669C256.722 55.4619 257.069 55.4579 257.336 55.4547C257.602 55.4484 257.799 55.4148 257.926 55.3538C258.053 55.2928 258.126 55.1796 258.143 55.0143L258.146 54.9822C258.188 54.5812 258.107 54.2587 257.903 54.0147C257.703 53.771 257.381 53.626 256.937 53.5798C256.475 53.5316 256.1 53.5962 255.812 53.7735C255.528 53.9481 255.322 54.1541 255.195 54.3916L253.936 53.9633C254.133 53.5507 254.393 53.228 254.714 52.9954C255.039 52.76 255.4 52.6028 255.798 52.5236C256.197 52.4413 256.609 52.4223 257.034 52.4667C257.316 52.496 257.611 52.5608 257.919 52.661C258.231 52.7584 258.515 52.9088 258.773 53.1119C259.033 53.3154 259.235 53.5887 259.379 53.9317C259.523 54.2716 259.568 54.6987 259.514 55.2129L259.026 59.8964L257.686 59.7567L257.786 58.7924L257.731 58.7867C257.624 58.955 257.473 59.1156 257.277 59.2685C257.082 59.4214 256.839 59.54 256.548 59.6243C256.258 59.7085 255.919 59.7304 255.53 59.6898ZM255.943 58.619C256.323 58.6585 256.655 58.6173 256.94 58.4954C257.228 58.3738 257.455 58.1994 257.621 57.9723C257.79 57.7424 257.89 57.4881 257.919 57.2096L258.013 56.3004C257.959 56.3443 257.86 56.3803 257.714 56.4085C257.572 56.434 257.411 56.4527 257.23 56.4648C257.05 56.4739 256.874 56.4819 256.703 56.4888C256.533 56.4927 256.39 56.4964 256.275 56.4999C256.005 56.5058 255.756 56.5371 255.527 56.5937C255.302 56.6507 255.115 56.7473 254.968 56.8836C254.824 57.0171 254.74 57.2063 254.714 57.4512C254.679 57.791 254.777 58.0612 255.01 58.2618C255.243 58.4594 255.554 58.5784 255.943 58.619ZM260.405 60.04L263.513 56.7157L261.172 52.9906L262.77 53.1571L264.646 56.3138L265.137 56.365L265.442 53.4356L266.815 53.5786L266.51 56.5081L266.988 56.5578L269.474 53.8556L271.072 54.0221L268.027 57.186L270.369 61.0782L268.739 60.9084L266.846 57.7406L266.387 57.6927L266.08 60.6314L264.707 60.4883L265.014 57.5497L264.555 57.5018L262.035 60.2099L260.405 60.04ZM273.311 59.4399L276.954 54.635L278.432 54.789L277.697 61.8418L276.352 61.7016L276.887 56.5681L273.257 61.3791L271.765 61.2236L272.5 54.1709L273.845 54.3111L273.311 59.4399Z" fill="white"/>
<rect x="332.166" y="50.4252" width="48" height="22" rx="11" transform="rotate(5.94844 332.166 50.4252)" fill="#F3EAFF"/>
<path d="M343.601 57.9234L342.696 66.6036L341.382 66.4667L342.15 59.1004L342.099 59.0951L339.881 60.235L340.012 58.9804L342.325 57.7904L343.601 57.9234ZM348.051 67.3073C347.382 67.2347 346.828 66.9985 346.39 66.5986C345.952 66.1988 345.642 65.6509 345.46 64.9551C345.278 64.2592 345.237 63.4394 345.335 62.4956C345.433 61.5547 345.643 60.7639 345.964 60.1233C346.287 59.4829 346.705 59.0123 347.216 58.7114C347.73 58.4107 348.319 58.295 348.983 58.3642C349.647 58.4334 350.198 58.6693 350.636 59.072C351.074 59.4718 351.384 60.0183 351.566 60.7113C351.751 61.4018 351.795 62.2176 351.697 63.1585C351.598 64.1051 351.388 64.9001 351.067 65.5436C350.746 66.1842 350.33 66.6564 349.818 66.9601C349.307 67.261 348.718 67.3768 348.051 67.3073ZM348.169 66.1756C348.757 66.2369 349.246 65.9979 349.636 65.4587C350.03 64.9199 350.283 64.1079 350.396 63.0229C350.471 62.3024 350.458 61.6855 350.357 61.1723C350.26 60.6566 350.083 60.2554 349.827 59.9688C349.574 59.6797 349.255 59.515 348.867 59.4747C348.283 59.4137 347.793 59.6541 347.4 60.1958C347.006 60.7375 346.752 61.5493 346.636 62.6312C346.561 63.3545 346.572 63.9741 346.67 64.4898C346.77 65.003 346.947 65.4028 347.2 65.6891C347.453 65.9725 347.776 66.1347 348.169 66.1756ZM357.018 58.9101L353.138 69.0112L352.007 68.8933L355.887 58.7922L357.018 58.9101ZM361.329 59.7705L360.425 68.4508L359.111 68.3139L359.878 60.9475L359.827 60.9422L357.609 62.0821L357.74 60.8276L360.053 59.6376L361.329 59.7705ZM365.78 69.1545C365.11 69.0819 364.556 68.8456 364.118 68.4458C363.68 68.046 363.37 67.4981 363.188 66.8022C363.007 66.1064 362.965 65.2865 363.063 64.3428C363.161 63.4019 363.371 62.6111 363.692 61.9704C364.016 61.3301 364.433 60.8595 364.944 60.5585C365.458 60.2579 366.047 60.1422 366.711 60.2114C367.375 60.2806 367.926 60.5165 368.364 60.9192C368.802 61.319 369.113 61.8655 369.295 62.5585C369.48 63.249 369.523 64.0647 369.425 65.0057C369.327 65.9522 369.117 66.7473 368.795 67.3907C368.474 68.0314 368.058 68.5036 367.547 68.8073C367.035 69.1082 366.446 69.2239 365.78 69.1545ZM365.897 68.0228C366.485 68.084 366.974 67.8451 367.365 67.3059C367.758 66.7671 368.011 65.9551 368.124 64.8701C368.199 64.1496 368.186 63.5327 368.085 63.0195C367.988 62.5037 367.811 62.1026 367.555 61.816C367.303 61.5269 366.983 61.3622 366.596 61.3219C366.011 61.2609 365.522 61.5013 365.128 62.043C364.735 62.5847 364.48 63.3965 364.365 64.4784C364.289 65.2017 364.3 65.8213 364.398 66.337C364.499 66.8502 364.676 67.25 364.928 67.5362C365.182 67.8197 365.505 67.9819 365.897 68.0228Z" fill="#8557E5"/>
<rect x="208.658" y="117.657" width="160" height="16" rx="8" transform="rotate(5.94844 208.658 117.657)" fill="#E3EBFF"/>
<rect x="208.658" y="117.657" width="58.9997" height="16" rx="8" transform="rotate(5.94844 208.658 117.657)" fill="#5076FE"/>
<path d="M211.041 109.834L212.021 100.431L215.373 100.78C216.105 100.856 216.697 101.052 217.15 101.369C217.603 101.685 217.924 102.087 218.115 102.574C218.306 103.058 218.371 103.588 218.311 104.163C218.251 104.742 218.076 105.25 217.786 105.687C217.499 106.121 217.1 106.448 216.588 106.667C216.08 106.883 215.462 106.953 214.733 106.877L212.428 106.637L212.553 105.434L214.73 105.661C215.192 105.709 215.575 105.668 215.88 105.539C216.184 105.407 216.419 105.209 216.582 104.944C216.746 104.679 216.846 104.37 216.883 104.015C216.92 103.66 216.886 103.337 216.78 103.048C216.674 102.758 216.484 102.52 216.209 102.334C215.938 102.148 215.566 102.03 215.095 101.981L213.313 101.795L212.46 109.982L211.041 109.834ZM220.717 106.164L222.765 106.377C223.628 106.467 224.27 106.751 224.691 107.228C225.111 107.705 225.287 108.282 225.216 108.958C225.17 109.399 225.025 109.784 224.78 110.115C224.535 110.445 224.201 110.692 223.779 110.855C223.357 111.015 222.858 111.066 222.283 111.006L219.202 110.685L219.937 103.632L221.282 103.772L220.671 109.64L222.406 109.821C222.801 109.862 223.136 109.793 223.412 109.615C223.687 109.433 223.842 109.182 223.876 108.86C223.911 108.52 223.813 108.23 223.581 107.989C223.35 107.746 223.036 107.603 222.642 107.562L220.594 107.349L220.717 106.164ZM225.974 111.39L226.709 104.338L228.082 104.481L227.347 111.533L225.974 111.39ZM234.399 108.105L234.275 109.294L230.455 108.896L230.579 107.707L234.399 108.105ZM231.27 104.813L230.535 111.865L229.19 111.725L229.925 104.673L231.27 104.813ZM235.664 105.271L234.929 112.323L233.588 112.184L234.323 105.131L235.664 105.271ZM239.722 112.967C239.061 112.898 238.499 112.686 238.038 112.332C237.577 111.977 237.238 111.513 237.023 110.94C236.807 110.367 236.737 109.716 236.813 108.987C236.889 108.256 237.092 107.63 237.422 107.111C237.751 106.591 238.178 106.206 238.703 105.954C239.227 105.702 239.82 105.611 240.481 105.68C241.142 105.749 241.704 105.96 242.165 106.315C242.626 106.669 242.964 107.134 243.18 107.711C243.395 108.287 243.465 108.941 243.388 109.673C243.312 110.401 243.11 111.024 242.781 111.54C242.451 112.057 242.025 112.441 241.5 112.692C240.976 112.944 240.383 113.035 239.722 112.967ZM239.847 111.815C240.275 111.859 240.642 111.783 240.947 111.586C241.252 111.389 241.492 111.109 241.666 110.746C241.843 110.384 241.955 109.977 242.002 109.523C242.049 109.074 242.023 108.653 241.925 108.262C241.83 107.869 241.653 107.542 241.395 107.283C241.138 107.024 240.795 106.873 240.366 106.828C239.934 106.783 239.564 106.861 239.256 107.06C238.95 107.261 238.709 107.543 238.532 107.909C238.358 108.271 238.247 108.677 238.2 109.127C238.153 109.58 238.177 110.002 238.273 110.393C238.371 110.784 238.549 111.107 238.807 111.363C239.069 111.619 239.415 111.77 239.847 111.815ZM244.557 113.326L245.292 106.274L246.664 106.417L246.356 109.374L247.018 109.443L249.654 106.728L251.353 106.905L248.263 110.051L250.65 113.961L248.946 113.784L247.114 110.743L246.223 110.65L245.93 113.47L244.557 113.326Z" fill="white"/>
<rect x="329.134" y="105.047" width="42" height="22" rx="11" transform="rotate(5.94844 329.134 105.047)" fill="#F3EAFF"/>
<path d="M339.819 121.362C339.237 121.301 338.728 121.146 338.291 120.898C337.857 120.65 337.526 120.334 337.297 119.951C337.072 119.564 336.974 119.134 337.003 118.66L338.334 118.799C338.324 119.058 338.387 119.29 338.523 119.496C338.662 119.699 338.853 119.864 339.097 119.992C339.34 120.121 339.618 120.201 339.928 120.233C340.27 120.269 340.579 120.241 340.854 120.15C341.132 120.059 341.357 119.915 341.529 119.719C341.701 119.52 341.801 119.28 341.831 119.001C341.861 118.709 341.813 118.446 341.686 118.21C341.562 117.971 341.364 117.774 341.092 117.617C340.823 117.46 340.488 117.361 340.086 117.319L339.353 117.243L339.464 116.175L340.198 116.251C340.52 116.285 340.808 116.256 341.063 116.166C341.321 116.075 341.53 115.934 341.69 115.743C341.85 115.548 341.945 115.311 341.974 115.031C342.002 114.763 341.966 114.523 341.865 114.313C341.767 114.1 341.614 113.925 341.405 113.789C341.2 113.653 340.948 113.57 340.652 113.539C340.369 113.51 340.099 113.535 339.843 113.614C339.589 113.69 339.376 113.816 339.203 113.992C339.031 114.166 338.925 114.385 338.886 114.649L337.619 114.517C337.682 114.05 337.864 113.652 338.163 113.323C338.466 112.995 338.846 112.753 339.302 112.597C339.758 112.442 340.251 112.392 340.783 112.448C341.339 112.506 341.808 112.664 342.19 112.924C342.574 113.181 342.858 113.501 343.041 113.882C343.227 114.265 343.296 114.669 343.249 115.095C343.201 115.581 343.022 115.98 342.713 116.29C342.406 116.601 342.021 116.791 341.557 116.86L341.55 116.928C342.117 117.075 342.54 117.351 342.817 117.754C343.098 118.157 343.209 118.633 343.149 119.181C343.102 119.659 342.924 120.073 342.616 120.423C342.311 120.774 341.917 121.035 341.434 121.204C340.951 121.371 340.413 121.423 339.819 121.362ZM348.772 112.989L344.892 123.09L343.76 122.972L347.641 112.871L348.772 112.989ZM353.083 113.849L352.178 122.529L350.864 122.392L351.632 115.026L351.581 115.021L349.363 116.161L349.494 114.906L351.807 113.716L353.083 113.849ZM357.533 123.233C356.864 123.16 356.31 122.924 355.872 122.524C355.434 122.125 355.124 121.577 354.942 120.881C354.76 120.185 354.719 119.365 354.817 118.421C354.915 117.48 355.125 116.69 355.446 116.049C355.769 115.409 356.187 114.938 356.698 114.637C357.212 114.336 357.801 114.221 358.465 114.29C359.129 114.359 359.68 114.595 360.118 114.998C360.556 115.398 360.866 115.944 361.048 116.637C361.233 117.328 361.277 118.143 361.179 119.084C361.08 120.031 360.87 120.826 360.549 121.469C360.228 122.11 359.812 122.582 359.3 122.886C358.789 123.187 358.2 123.303 357.533 123.233ZM357.651 122.101C358.239 122.163 358.728 121.924 359.118 121.384C359.512 120.846 359.765 120.034 359.878 118.949C359.953 118.228 359.94 117.611 359.839 117.098C359.742 116.582 359.565 116.181 359.309 115.895C359.056 115.605 358.737 115.441 358.349 115.4C357.765 115.339 357.275 115.58 356.882 116.122C356.488 116.663 356.234 117.475 356.118 118.557C356.043 119.28 356.054 119.9 356.152 120.416C356.252 120.929 356.429 121.329 356.682 121.615C356.936 121.898 357.259 122.06 357.651 122.101Z" fill="#5076FE"/>
<rect x="201.658" y="171.657" width="160" height="16" rx="8" transform="rotate(5.94844 201.658 171.657)" fill="#F57256"/>
<path d="M209.62 164.416L206.9 159.871L205.899 159.767L205.46 163.982L204.041 163.834L205.021 154.431L206.44 154.579L206.026 158.55L206.49 158.599L210.458 154.997L212.189 155.178L207.989 158.996L211.351 164.596L209.62 164.416ZM214.994 165.119C214.332 165.05 213.771 164.839 213.31 164.484C212.849 164.13 212.51 163.666 212.295 163.093C212.079 162.52 212.009 161.869 212.085 161.14C212.161 160.409 212.364 159.783 212.694 159.264C213.023 158.744 213.45 158.358 213.974 158.107C214.499 157.855 215.092 157.764 215.753 157.832C216.414 157.901 216.975 158.113 217.437 158.467C217.898 158.822 218.236 159.287 218.451 159.863C218.667 160.44 218.736 161.094 218.66 161.825C218.584 162.554 218.382 163.176 218.052 163.693C217.723 164.209 217.296 164.593 216.772 164.845C216.248 165.097 215.655 165.188 214.994 165.119ZM215.118 163.967C215.547 164.012 215.914 163.936 216.219 163.739C216.524 163.541 216.764 163.262 216.938 162.899C217.115 162.537 217.227 162.129 217.274 161.676C217.321 161.226 217.295 160.806 217.196 160.415C217.101 160.021 216.925 159.695 216.667 159.436C216.41 159.177 216.066 159.026 215.638 158.981C215.206 158.936 214.836 159.013 214.528 159.213C214.222 159.414 213.981 159.696 213.803 160.061C213.629 160.424 213.519 160.83 213.472 161.28C213.425 161.733 213.449 162.155 213.544 162.546C213.643 162.936 213.821 163.26 214.079 163.516C214.34 163.772 214.687 163.922 215.118 163.967ZM225.038 161.859L224.914 163.048L221.093 162.65L221.217 161.461L225.038 161.859ZM221.909 158.567L221.174 165.619L219.828 165.479L220.563 158.427L221.909 158.567ZM226.303 159.025L225.568 166.077L224.227 165.938L224.962 158.885L226.303 159.025ZM227.405 166.269L228.14 159.216L229.512 159.359L229.204 162.316L229.865 162.385L232.502 159.67L234.2 159.847L231.111 162.993L233.498 166.904L231.794 166.726L229.962 163.685L229.071 163.592L228.778 166.412L227.405 166.269ZM235.194 169.754C234.989 169.732 234.804 169.696 234.639 169.645C234.474 169.597 234.352 169.55 234.273 169.505L234.721 168.414C234.965 168.508 235.186 168.56 235.382 168.571C235.579 168.582 235.76 168.527 235.924 168.405C236.092 168.283 236.25 168.072 236.399 167.772L236.617 167.321L234.781 159.908L236.251 160.061L237.466 165.72L237.54 165.728L239.896 160.441L241.37 160.595L237.631 168.286C237.458 168.639 237.254 168.932 237.019 169.164C236.785 169.4 236.516 169.567 236.215 169.665C235.914 169.764 235.574 169.793 235.194 169.754ZM241.65 170.426L242.661 160.729L244.001 160.869L243.882 162.012L243.997 162.024C244.092 161.885 244.224 161.727 244.394 161.55C244.564 161.373 244.79 161.226 245.071 161.11C245.353 160.991 245.713 160.954 246.151 161C246.72 161.059 247.213 161.256 247.63 161.59C248.047 161.925 248.354 162.376 248.552 162.944C248.752 163.513 248.813 164.178 248.734 164.94C248.654 165.703 248.459 166.343 248.148 166.861C247.838 167.377 247.445 167.758 246.971 168.006C246.497 168.25 245.975 168.343 245.406 168.284C244.977 168.239 244.634 168.13 244.377 167.958C244.122 167.786 243.928 167.596 243.796 167.387C243.663 167.178 243.563 166.995 243.496 166.836L243.413 166.827L243.023 170.569L241.65 170.426ZM243.638 164.395C243.587 164.891 243.613 165.334 243.718 165.722C243.823 166.11 244.001 166.424 244.251 166.664C244.502 166.901 244.825 167.039 245.22 167.081C245.63 167.123 245.984 167.05 246.282 166.862C246.581 166.67 246.82 166.393 247 166.031C247.183 165.67 247.299 165.253 247.348 164.782C247.397 164.317 247.37 163.892 247.268 163.507C247.169 163.122 246.991 162.808 246.735 162.564C246.482 162.321 246.148 162.178 245.735 162.135C245.337 162.094 244.99 162.161 244.693 162.338C244.399 162.515 244.163 162.779 243.984 163.132C243.805 163.484 243.689 163.906 243.638 164.395ZM252.931 169.072C252.236 169 251.653 168.789 251.182 168.44C250.714 168.088 250.372 167.627 250.156 167.057C249.944 166.484 249.875 165.831 249.952 165.1C250.027 164.377 250.228 163.755 250.555 163.232C250.885 162.709 251.309 162.319 251.828 162.06C252.35 161.802 252.938 161.707 253.594 161.775C253.991 161.817 254.37 161.923 254.73 162.093C255.09 162.264 255.403 162.505 255.671 162.818C255.939 163.13 256.135 163.521 256.259 163.989C256.384 164.453 256.413 165.006 256.347 165.645L256.296 166.132L250.689 165.548L250.797 164.519L255.058 164.963C255.095 164.602 255.055 164.275 254.937 163.981C254.82 163.684 254.636 163.44 254.387 163.25C254.14 163.061 253.84 162.947 253.485 162.91C253.099 162.87 252.752 162.93 252.445 163.09C252.141 163.247 251.895 163.469 251.707 163.756C251.523 164.04 251.412 164.358 251.376 164.71L251.292 165.513C251.243 165.985 251.284 166.394 251.414 166.742C251.548 167.09 251.756 167.367 252.038 167.573C252.32 167.776 252.662 167.898 253.063 167.94C253.323 167.967 253.564 167.955 253.786 167.903C254.008 167.849 254.205 167.755 254.377 167.622C254.549 167.488 254.687 167.315 254.793 167.103L256.068 167.473C255.924 167.845 255.702 168.16 255.403 168.42C255.107 168.677 254.749 168.864 254.328 168.981C253.911 169.095 253.445 169.126 252.931 169.072ZM262.704 165.783L262.58 166.972L258.76 166.574L258.883 165.385L262.704 165.783ZM259.575 162.491L258.84 169.544L257.495 169.404L258.23 162.351L259.575 162.491ZM263.969 162.949L263.234 170.002L261.893 169.862L262.628 162.809L263.969 162.949ZM271.559 163.74L270.941 169.668L271.974 169.775L271.62 173.173L270.266 173.032L270.503 170.759L265.071 170.193L265.806 163.141L267.151 163.281L266.54 169.149L269.607 169.468L270.218 163.6L271.559 163.74ZM274.925 169.275L278.568 164.47L280.047 164.624L279.312 171.677L277.966 171.537L278.501 166.403L274.872 171.214L273.379 171.059L274.114 164.006L275.46 164.146L274.925 169.275ZM285.364 172.308L285.976 166.426L284.287 166.25C283.886 166.208 283.564 166.269 283.321 166.432C283.078 166.596 282.941 166.829 282.909 167.132C282.878 167.432 282.955 167.684 283.141 167.889C283.33 168.092 283.612 168.212 283.985 168.251L286.166 168.479L286.051 169.59L283.87 169.362C283.349 169.308 282.908 169.176 282.546 168.965C282.188 168.751 281.923 168.474 281.751 168.135C281.582 167.795 281.52 167.408 281.566 166.973C281.612 166.53 281.756 166.158 281.997 165.858C282.242 165.556 282.57 165.336 282.98 165.199C283.394 165.063 283.87 165.023 284.409 165.079L287.389 165.389L286.654 172.442L285.364 172.308ZM280.735 171.825L283.095 168.469L284.5 168.616L282.14 171.972L280.735 171.825Z" fill="white"/>
<rect x="316.166" y="158.425" width="48" height="22" rx="11" transform="rotate(5.94844 316.166 158.425)" fill="#FFEBE7"/>
<path d="M327.601 165.923L326.696 174.604L325.382 174.467L326.15 167.1L326.099 167.095L323.881 168.235L324.012 166.98L326.325 165.79L327.601 165.923ZM332.051 175.307C331.382 175.235 330.828 174.998 330.39 174.599C329.952 174.199 329.642 173.651 329.46 172.955C329.278 172.259 329.237 171.439 329.335 170.496C329.433 169.555 329.643 168.764 329.964 168.123C330.287 167.483 330.705 167.012 331.216 166.711C331.73 166.411 332.319 166.295 332.983 166.364C333.647 166.433 334.198 166.669 334.636 167.072C335.074 167.472 335.384 168.018 335.566 168.711C335.751 169.402 335.795 170.218 335.697 171.158C335.598 172.105 335.388 172.9 335.067 173.544C334.746 174.184 334.33 174.656 333.818 174.96C333.307 175.261 332.718 175.377 332.051 175.307ZM332.169 174.176C332.757 174.237 333.246 173.998 333.636 173.459C334.03 172.92 334.283 172.108 334.396 171.023C334.471 170.302 334.458 169.686 334.357 169.172C334.26 168.657 334.083 168.255 333.827 167.969C333.574 167.68 333.255 167.515 332.867 167.475C332.283 167.414 331.793 167.654 331.4 168.196C331.006 168.737 330.752 169.549 330.636 170.631C330.561 171.355 330.572 171.974 330.67 172.49C330.77 173.003 330.947 173.403 331.2 173.689C331.453 173.973 331.776 174.135 332.169 174.176ZM341.018 166.91L337.138 177.011L336.007 176.893L339.887 166.792L341.018 166.91ZM345.329 167.771L344.425 176.451L343.111 176.314L343.878 168.948L343.827 168.942L341.609 170.082L341.74 168.828L344.053 167.638L345.329 167.771ZM349.78 177.154C349.11 177.082 348.556 176.846 348.118 176.446C347.68 176.046 347.37 175.498 347.188 174.802C347.007 174.106 346.965 173.287 347.063 172.343C347.161 171.402 347.371 170.611 347.692 169.97C348.016 169.33 348.433 168.859 348.944 168.559C349.458 168.258 350.047 168.142 350.711 168.211C351.375 168.281 351.926 168.517 352.364 168.919C352.802 169.319 353.113 169.865 353.295 170.558C353.48 171.249 353.523 172.065 353.425 173.006C353.327 173.952 353.117 174.747 352.795 175.391C352.474 176.031 352.058 176.504 351.547 176.807C351.035 177.108 350.446 177.224 349.78 177.154ZM349.897 176.023C350.485 176.084 350.974 175.845 351.365 175.306C351.758 174.767 352.011 173.955 352.124 172.87C352.199 172.15 352.186 171.533 352.085 171.019C351.988 170.504 351.811 170.103 351.555 169.816C351.303 169.527 350.983 169.362 350.596 169.322C350.011 169.261 349.522 169.501 349.128 170.043C348.735 170.585 348.48 171.396 348.365 172.478C348.289 173.202 348.3 173.821 348.398 174.337C348.499 174.85 348.676 175.25 348.928 175.536C349.182 175.82 349.505 175.982 349.897 176.023Z" fill="#F57256"/>
<defs>
<linearGradient id="paint0_linear_297_11380" x1="0.00488281" y1="96.7804" x2="204.845" y2="96.7804" gradientUnits="userSpaceOnUse">
<stop stop-color="#3EB87B"/>
<stop offset="1" stop-color="#049669"/>
</linearGradient>
</defs>
</svg>
