<svg width="20" height="20" viewBox="0 0 20 20" fill="none" xmlns="http://www.w3.org/2000/svg">
<path d="M16.2964 12.3458C15.378 12.3458 14.4763 12.2021 13.6218 11.9198C13.2031 11.777 12.6884 11.908 12.4329 12.1704L10.7463 13.4436C8.79027 12.3995 7.58543 11.1951 6.55559 9.25379L7.79133 7.61113C8.11238 7.29051 8.22754 6.82215 8.08957 6.3827C7.80598 5.52371 7.66191 4.62242 7.66191 3.70367C7.66195 3.03996 7.12199 2.5 6.45832 2.5H3.70363C3.03996 2.5 2.5 3.03996 2.5 3.70363C2.5 11.3111 8.68898 17.5 16.2964 17.5C16.9601 17.5 17.5 16.96 17.5 16.2964V13.5494C17.5 12.8857 16.96 12.3458 16.2964 12.3458Z" fill="white"/>
</svg>
