<svg width="20" height="20" viewBox="0 0 20 20" fill="none" xmlns="http://www.w3.org/2000/svg">
<path d="M12.7107 10.5391L11.1753 12.0797C10.5526 12.7045 9.45704 12.718 8.82093 12.0797L7.2854 10.5391L1.77051 16.0719C1.97579 16.1668 2.20213 16.2234 2.44275 16.2234H17.5534C17.7941 16.2234 18.0203 16.1669 18.2255 16.0719L12.7107 10.5391Z" fill="white"/>
<path d="M17.5534 3.33301H2.44268C2.20206 3.33301 1.97572 3.38966 1.77051 3.48458L7.66356 9.39719C7.66396 9.39758 7.66442 9.39765 7.66482 9.39805C7.66521 9.39844 7.66528 9.39898 7.66528 9.39898L9.58144 11.3215C9.78497 11.525 10.2111 11.525 10.4147 11.3215L12.3304 9.3993C12.3304 9.3993 12.3309 9.39844 12.3313 9.39805C12.3313 9.39805 12.3322 9.39758 12.3325 9.39719L18.2255 3.48454C18.0203 3.38958 17.794 3.33301 17.5534 3.33301Z" fill="white"/>
<path d="M1.00438 4.23633C0.898177 4.4511 0.833008 4.68951 0.833008 4.94488V14.6129C0.833008 14.8682 0.898105 15.1066 1.00435 15.3214L6.5288 9.77905L1.00438 4.23633Z" fill="white"/>
<path d="M18.9941 4.23633L13.4697 9.77912L18.9941 15.3216C19.1003 15.1068 19.1655 14.8684 19.1655 14.6129V4.94495C19.1655 4.68951 19.1003 4.4511 18.9941 4.23633Z" fill="white"/>
</svg>
