<svg width="20" height="20" viewBox="0 0 20 20" fill="none" xmlns="http://www.w3.org/2000/svg">
<path d="M1.91396 8.60152C6.94712 6.39649 10.3033 4.9428 11.9826 4.24045C16.7774 2.23509 17.7737 1.88674 18.423 1.87511C18.5659 1.8727 18.8852 1.9083 19.0921 2.07708C19.2667 2.2196 19.3148 2.41211 19.3378 2.54724C19.3608 2.68236 19.3894 2.99017 19.3667 3.23068C19.1068 5.97586 17.9826 12.6377 17.4106 15.7123C17.1686 17.0133 16.692 17.4496 16.2307 17.4923C15.2281 17.585 14.4667 16.826 13.4956 16.1859C11.9761 15.1843 11.1176 14.5608 9.64261 13.5834C7.938 12.4538 9.04303 11.833 10.0145 10.8184C10.2687 10.5529 14.6863 6.51246 14.7718 6.14593C14.7825 6.10009 14.7924 5.92921 14.6915 5.83899C14.5905 5.74876 14.4415 5.77961 14.334 5.80415C14.1816 5.83894 11.7541 7.45234 7.05143 10.6444C6.36239 11.1201 5.73828 11.352 5.17909 11.3398C4.56264 11.3264 3.37682 10.9893 2.49529 10.7012C1.41406 10.3478 0.554713 10.1609 0.629542 9.56069C0.668518 9.24807 1.09666 8.92834 1.91396 8.60152Z" fill="white"/>
</svg>
