<svg width="20" height="20" viewBox="0 0 20 20" fill="none" xmlns="http://www.w3.org/2000/svg">
<path d="M15.5615 3.43359H13.1445V2.95019C13.1445 2.15056 12.494 1.5 11.6943 1.5H7.82714C7.0275 1.5 6.37695 2.15056 6.37695 2.95019V3.43359H3.95996C3.16032 3.43359 2.50977 4.08415 2.50977 4.88378C2.50977 5.52599 2.92952 6.07169 3.50895 6.26182L4.37117 16.6702C4.43327 17.4159 5.06807 18 5.81634 18H13.7051C14.4534 18 15.0882 17.4159 15.1504 16.67L16.0125 6.26179C16.5919 6.07169 17.0117 5.52599 17.0117 4.88378C17.0117 4.08415 16.3611 3.43359 15.5615 3.43359ZM7.34374 2.95019C7.34374 2.68365 7.5606 2.4668 7.82714 2.4668H11.6943C11.9609 2.4668 12.1777 2.68365 12.1777 2.95019V3.43359H7.34374V2.95019ZM14.1869 16.5899C14.1661 16.8385 13.9546 17.0332 13.7051 17.0332H5.81634C5.56693 17.0332 5.35534 16.8385 5.33468 16.5902L4.48506 6.33398H15.0364L14.1869 16.5899ZM15.5615 5.36718H3.95996C3.69341 5.36718 3.47656 5.15033 3.47656 4.88378C3.47656 4.61724 3.69341 4.40039 3.95996 4.40039H15.5615C15.8281 4.40039 16.0449 4.61724 16.0449 4.88378C16.0449 5.15033 15.8281 5.36718 15.5615 5.36718Z" fill="#9D9DA5"/>
<path d="M7.82625 15.5531L7.34285 7.75429C7.32632 7.48781 7.09567 7.28514 6.83048 7.30173C6.564 7.31826 6.36139 7.54765 6.37789 7.8141L6.86129 15.613C6.87718 15.8693 7.09 16.0664 7.3433 16.0664C7.62326 16.0664 7.84343 15.8307 7.82625 15.5531Z" fill="#9D9DA5"/>
<path d="M9.76074 7.30078C9.49378 7.30078 9.27734 7.51721 9.27734 7.78418V15.583C9.27734 15.85 9.49378 16.0664 9.76074 16.0664C10.0277 16.0664 10.2441 15.85 10.2441 15.583V7.78418C10.2441 7.51721 10.0277 7.30078 9.76074 7.30078Z" fill="#9D9DA5"/>
<path d="M12.692 7.30173C12.4261 7.28519 12.1961 7.4878 12.1796 7.75428L11.6962 15.5531C11.6798 15.8195 11.8824 16.0489 12.1488 16.0655C12.4154 16.082 12.6447 15.8793 12.6612 15.6129L13.1446 7.81409C13.1611 7.54761 12.9585 7.31823 12.692 7.30173Z" fill="#9D9DA5"/>
</svg>
