<svg width="16" height="16" viewBox="0 0 16 16" fill="none" xmlns="http://www.w3.org/2000/svg">
<path d="M14.3627 9.15314C14.2695 9.05738 14.1414 9.00362 14.0077 9.00414L11.4036 9.00414C11.2004 9.00414 11.0357 8.83945 11.0357 8.63631L11.0357 0.492862C11.0357 0.220655 10.8151 0 10.5429 0L5.47436 0C5.20216 0 4.9815 0.220655 4.9815 0.492862L4.9815 8.63631C4.9815 8.83945 4.81681 9.00414 4.61368 9.00414H2.00219C1.73002 8.999 1.50523 9.21545 1.50009 9.48759C1.4975 9.62383 1.55147 9.75507 1.64909 9.8501L7.65185 15.8529C7.74316 15.9456 7.86743 15.9985 7.99761 16C8.13033 16.0005 8.25761 15.9474 8.35071 15.8529L14.3535 9.8501C14.5485 9.66021 14.5526 9.34817 14.3627 9.15314Z" fill="#D6D6DC"/>
</svg>
