<svg width="20" height="20" viewBox="0 0 20 20" fill="none" xmlns="http://www.w3.org/2000/svg">
<path d="M11.4688 18H5.5C4.12146 18 3 16.8785 3 15.5V7.03125C3 5.65271 4.12146 4.53125 5.5 4.53125H11.4688C12.8473 4.53125 13.9688 5.65271 13.9688 7.03125V15.5C13.9688 16.8785 12.8473 18 11.4688 18ZM5.5 5.78125C4.81079 5.78125 4.25 6.34204 4.25 7.03125V15.5C4.25 16.1892 4.81079 16.75 5.5 16.75H11.4688C12.158 16.75 12.7188 16.1892 12.7188 15.5V7.03125C12.7188 6.34204 12.158 5.78125 11.4688 5.78125H5.5ZM16.4688 13.9375V4.5C16.4688 3.12146 15.3473 2 13.9688 2H7.03125C6.68604 2 6.40625 2.27979 6.40625 2.625C6.40625 2.97021 6.68604 3.25 7.03125 3.25H13.9688C14.658 3.25 15.2188 3.81079 15.2188 4.5V13.9375C15.2188 14.2827 15.4985 14.5625 15.8438 14.5625C16.189 14.5625 16.4688 14.2827 16.4688 13.9375Z" fill="#9D9DA5"/>
</svg>
