<svg xmlns="http://www.w3.org/2000/svg" width="28" height="28" viewBox="0 0 28 28" fill="none">
  <path
    d="M28 8.91406V7.4375C28 5.74612 26.6289 4.375 24.9375 4.375H3.0625C1.37112 4.375 0 5.74612 0 7.4375V8.91406C0 9.06505 0.122445 9.1875 0.273438 9.1875H27.7266C27.8776 9.1875 28 9.06505 28 8.91406Z"
    fill="white" />
  <path
    d="M0 11.2109V20.5625C0 22.2539 1.37112 23.625 3.0625 23.625H24.9375C26.6289 23.625 28 22.2539 28 20.5625V11.2109C28 11.0599 27.8776 10.9375 27.7266 10.9375H0.273438C0.122445 10.9375 0 11.0599 0 11.2109ZM7 18.375C7 18.8582 6.60822 19.25 6.125 19.25H5.25C4.76678 19.25 4.375 18.8582 4.375 18.375V17.5C4.375 17.0168 4.76678 16.625 5.25 16.625H6.125C6.60822 16.625 7 17.0168 7 17.5V18.375Z"
    fill="white" />
</svg>