<svg width="20" height="20" viewBox="0 0 20 20" fill="none" xmlns="http://www.w3.org/2000/svg">
<path d="M4.12298 13.2617C3.97898 13.2617 3.83526 13.2068 3.72529 13.0969C3.50563 12.8772 3.50563 12.5211 3.72529 12.3015L12.5155 3.5113C12.7349 3.29164 13.0912 3.29164 13.3109 3.5113C13.5305 3.73096 13.5305 4.08702 13.3109 4.30667L4.52066 13.0969C4.41098 13.2066 4.26698 13.2617 4.12298 13.2617Z" fill="#9D9DA5"/>
<path d="M3.25447 17.3124C3.21537 17.3124 3.17572 17.3082 3.13606 17.2998C2.83231 17.2345 2.63881 16.9356 2.70406 16.6318L3.57312 12.581C3.63837 12.2772 3.93875 12.0843 4.24109 12.149C4.54484 12.2142 4.73834 12.5132 4.67309 12.8169L3.80403 16.8678C3.7475 17.1319 3.51406 17.3124 3.25447 17.3124Z" fill="#9D9DA5"/>
<path d="M7.30462 16.4434C7.16062 16.4434 7.0169 16.3886 6.90693 16.2786C6.68727 16.0589 6.68727 15.7029 6.90693 15.4832L15.6971 6.69331C15.9165 6.47365 16.2728 6.47365 16.4925 6.69331C16.7121 6.91296 16.7121 7.26903 16.4925 7.48868L7.70259 16.2786C7.59262 16.3886 7.44862 16.4434 7.30462 16.4434Z" fill="#9D9DA5"/>
<path d="M3.25354 17.3125C2.99395 17.3125 2.76079 17.1319 2.70398 16.8678C2.63901 16.5641 2.83223 16.2651 3.13598 16.1999L7.18682 15.3308C7.49085 15.2664 7.78982 15.4593 7.85479 15.7628C7.91976 16.0666 7.72654 16.3655 7.42279 16.4308L3.37195 17.2998C3.33229 17.3086 3.29263 17.3125 3.25354 17.3125Z" fill="#9D9DA5"/>
<path d="M14.504 9.24433C14.36 9.24433 14.216 9.18949 14.1063 9.07952L10.9245 5.89774C10.7049 5.67808 10.7049 5.32202 10.9245 5.10236C11.1439 4.88271 11.5005 4.88271 11.7199 5.10236L14.9017 8.28415C15.1213 8.5038 15.1213 8.85986 14.9017 9.07952C14.792 9.18949 14.648 9.24433 14.504 9.24433Z" fill="#9D9DA5"/>
<path d="M16.0944 7.65348C15.9504 7.65348 15.8064 7.59864 15.6964 7.48867C15.4768 7.26901 15.4768 6.91295 15.6964 6.69301C16.0094 6.37998 16.1819 5.95614 16.1819 5.49995C16.1819 5.04376 16.0094 4.61992 15.6964 4.30689C15.3831 3.99357 14.9593 3.82117 14.5031 3.82117C14.0469 3.82117 13.623 3.99357 13.31 4.30689C13.0906 4.52654 12.7346 4.52682 12.5144 4.30689C12.2947 4.08723 12.2947 3.73117 12.5144 3.51123C13.0397 2.98557 13.7459 2.69617 14.5031 2.69617C15.2599 2.69617 15.9664 2.98557 16.4918 3.51123C17.0174 4.0366 17.3069 4.74282 17.3069 5.49995C17.3069 6.25707 17.0174 6.96329 16.4918 7.48867C16.3824 7.59835 16.2384 7.65348 16.0944 7.65348Z" fill="#9D9DA5"/>
</svg>
