<svg xmlns="http://www.w3.org/2000/svg" width="48" height="48" viewBox="0 0 48 48" fill="none">
  <path fill-rule="evenodd" clip-rule="evenodd"
    d="M21.8782 0.0941429C18.0443 0.72808 14.8088 3.15996 13.1553 6.65045C11.3684 10.4227 11.8696 15.1463 14.4104 18.4795C15.5623 19.9905 17.4268 21.4529 19.1181 22.1717C21.6981 23.2682 24.9551 23.3593 27.5905 22.4087C30.6935 21.2894 33.4069 18.576 34.5262 15.4731C35.0728 13.9577 35.2909 12.1882 35.1413 10.4814C34.8958 7.68236 33.8241 5.39533 31.8102 3.3738C30.1592 1.7163 28.2542 0.673987 26.0032 0.196425C25.0133 -0.0135755 22.8537 -0.067107 21.8782 0.0941429ZM13.3636 23.2181C9.08148 23.6958 6.19126 26.7017 4.77798 32.1476C4.06557 34.8929 3.72667 39.3656 4.07635 41.4083C4.62629 44.6212 6.71139 46.8452 9.97192 47.6966L10.8157 47.917H23.9407H37.0657L37.8979 47.705C40.8458 46.954 42.9377 44.9291 43.6838 42.1045C44.0849 40.5858 44.0163 37.0686 43.5294 34.192C42.5211 28.234 40.0535 24.682 36.1335 23.5461C35.245 23.2886 33.6309 23.0913 33.156 23.182C32.7038 23.2685 32.0809 23.6012 30.5527 24.5725C28.887 25.6314 28.7876 25.6827 27.5425 26.1268C26.2296 26.5952 25.201 26.7824 23.9407 26.7824C22.6803 26.7824 21.6518 26.5952 20.3388 26.1268C19.0778 25.677 19.0059 25.6393 17.1562 24.457C16.3121 23.9176 15.486 23.4196 15.3203 23.3503C14.8887 23.17 14.2075 23.124 13.3636 23.2181Z"
    fill="#D4D5DA" />
</svg>