<svg width="20" height="20" viewBox="0 0 20 20" fill="none" xmlns="http://www.w3.org/2000/svg">
<path fill-rule="evenodd" clip-rule="evenodd" d="M10 3.125C6.20304 3.125 3.125 6.20304 3.125 10C3.125 13.797 6.20304 16.875 10 16.875C13.797 16.875 16.875 13.797 16.875 10C16.875 6.20304 13.797 3.125 10 3.125ZM1.875 10C1.875 5.51269 5.51269 1.875 10 1.875C14.4873 1.875 18.125 5.51269 18.125 10C18.125 14.4873 14.4873 18.125 10 18.125C5.51269 18.125 1.875 14.4873 1.875 10ZM10 5.20835C10.3452 5.20835 10.625 5.48817 10.625 5.83335V5.84167C10.625 6.18685 10.3452 6.46667 10 6.46667C9.65482 6.46667 9.375 6.18685 9.375 5.84167V5.83335C9.375 5.48817 9.65482 5.20835 10 5.20835ZM10 7.70833C10.3452 7.70833 10.625 7.98815 10.625 8.33333V14.1667C10.625 14.5118 10.3452 14.7917 10 14.7917C9.65482 14.7917 9.375 14.5118 9.375 14.1667V8.33333C9.375 7.98815 9.65482 7.70833 10 7.70833Z" fill="#C7C7CA"/>
</svg>
