<svg xmlns="http://www.w3.org/2000/svg" width="28" height="28" viewBox="0 0 28 28" fill="none">
  <g clip-path="url(#clip0_553_1973)">
    <path
      d="M4.19919 0C1.8969 0 0.00591406 1.90466 0.00591406 4.20695V8.40027C0.00591406 10.7027 1.89684 12.6045 4.19924 12.6045H8.39257C10.6949 12.6045 12.5995 10.7026 12.5995 8.40027V4.20695C12.5995 1.90466 10.6949 0 8.39252 0L4.19919 0ZM19.592 0C17.2896 0 15.3986 1.90466 15.3986 4.20695V8.40027C15.3986 10.7027 17.2896 12.6045 19.592 12.6045H23.7989C26.1013 12.6045 27.9922 10.7026 27.9922 8.40027V4.20695C27.9922 1.9046 26.1013 0 23.7989 0L19.592 0ZM4.19919 15.4064C1.89684 15.4064 0.00585938 17.2974 0.00585938 19.5997V23.7958C0.00585938 26.0981 1.89679 28 4.19919 28H8.39252C10.6949 28 12.5995 26.0981 12.5995 23.7958V19.5997C12.5995 17.2974 10.6949 15.4064 8.39252 15.4064H4.19919ZM19.592 15.4064C17.2896 15.4064 15.3986 17.2974 15.3986 19.5997V23.7958C15.3986 26.0981 17.2896 28 19.592 28H23.7989C26.1013 28 27.9922 26.0981 27.9922 23.7958V19.5997C27.9922 17.2974 26.1013 15.4064 23.7989 15.4064H19.592Z"
      fill="white" />
  </g>
  <defs>
    <clipPath id="clip0_553_1973">
      <rect width="28" height="28" fill="white" />
    </clipPath>
  </defs>
</svg>