<svg width="16" height="16" viewBox="0 0 16 16" fill="none" xmlns="http://www.w3.org/2000/svg">
<path d="M14.779 1.086C14.641 0.992 14.466 0.975 14.312 1.036C14.28 1.049 10.972 2.35 8.213 1.048C5.835 -0.076 3.216 0.45 2 0.805V0.5C2 0.224 1.776 0 1.5 0C1.224 0 1 0.224 1 0.5V1.5V9.5V15.5C1 15.776 1.224 16 1.5 16C1.776 16 2 15.776 2 15.5V9.854C2.887 9.567 5.519 8.881 7.787 9.952C8.868 10.463 9.999 10.633 11.026 10.633C13.001 10.633 14.589 10.004 14.688 9.964C14.876 9.887 15 9.704 15 9.5V1.5C15 1.334 14.917 1.179 14.779 1.086Z" fill="#119E6E"/>
</svg>
