<svg xmlns="http://www.w3.org/2000/svg" width="20" height="20" viewBox="0 0 20 20" fill="none">
  <g clip-path="url(#clip0_308_15830)">
    <mask id="mask0_308_15830" style="mask-type:luminance" maskUnits="userSpaceOnUse" x="0" y="0" width="20"
      height="20">
      <path d="M0 1.90735e-06H20V20H0V1.90735e-06Z" fill="white" />
    </mask>
    <g mask="url(#mask0_308_15830)">
      <path fill-rule="evenodd" clip-rule="evenodd"
        d="M0 20H3.37598L4.468 18.908L4.45949 17.6725L5.712 17.664L7.05376 16.3223L7.05391 15.2068L8.18069 15.1953L10.4131 12.9629C12.912 14.096 15.9574 13.6365 18.0131 11.5808C20.6623 8.93148 20.6623 4.63618 18.0131 1.98693C15.3638 -0.662323 11.0685 -0.662323 8.41923 1.98693C6.36354 4.04262 5.90395 7.088 7.03708 9.58693L0 16.624V20ZM1.17187 18.8281V17.1094L8.46975 9.81155L8.26486 9.42829C7.12956 7.30464 7.45806 4.60539 9.24787 2.81557C11.4395 0.623964 14.9928 0.623964 17.1844 2.81557C19.376 5.00718 19.376 8.56048 17.1844 10.7521C15.3946 12.5419 12.6954 12.8704 10.5717 11.7351L10.1884 11.5303L7.69032 14.0284L5.88219 14.0469L5.88195 15.8368L5.22331 16.4954L3.27957 16.5086L3.29278 18.4259L2.89058 18.8281H1.17187Z"
        fill="#18181C" />
      <path fill-rule="evenodd" clip-rule="evenodd"
        d="M12.9293 7.0713C13.8299 7.97184 15.2899 7.97184 16.1905 7.0713C17.091 6.17076 17.091 4.7107 16.1905 3.81016C15.2899 2.90962 13.8299 2.90962 12.9293 3.81016C12.0288 4.7107 12.0288 6.17076 12.9293 7.0713ZM15.3618 6.24266C14.9189 6.68555 14.2008 6.68555 13.758 6.24266C13.3151 5.79976 13.3151 5.08169 13.758 4.6388C14.2008 4.1959 14.9189 4.1959 15.3618 4.6388C15.8047 5.08169 15.8047 5.79976 15.3618 6.24266Z"
        fill="#18181C" />
    </g>
  </g>
  <defs>
    <clipPath id="clip0_308_15830">
      <rect width="20" height="20" fill="white" />
    </clipPath>
  </defs>
</svg>