<svg width="20" height="20" viewBox="0 0 20 20" fill="none" xmlns="http://www.w3.org/2000/svg">
<path d="M10.0001 11.6667L9.41081 12.256L10.0001 12.8452L10.5893 12.256L10.0001 11.6667ZM10.8334 4.16671C10.8334 3.70647 10.4603 3.33337 10.0001 3.33337C9.53981 3.33337 9.16673 3.70647 9.16673 4.16671H10.8334ZM5.24414 8.0893L9.41081 12.256L10.5893 11.0775L6.42266 6.91078L5.24414 8.0893ZM10.5893 12.256L14.756 8.0893L13.5775 6.91078L9.41081 11.0775L10.5893 12.256ZM10.8334 11.6667V4.16671H9.16673V11.6667H10.8334Z" fill="#18181C"/>
<path fill-rule="evenodd" clip-rule="evenodd" d="M3.41602 14.1668V13.3335H4.91602V14.1668C4.91602 14.6731 5.32641 15.0835 5.83268 15.0835H14.166C14.6723 15.0835 15.0827 14.6731 15.0827 14.1668V13.3335H16.5827V14.1668C16.5827 15.5015 15.5007 16.5835 14.166 16.5835H5.83268C4.498 16.5835 3.41602 15.5015 3.41602 14.1668Z" fill="#18181C"/>
</svg>
