<svg width="20" height="20" viewBox="0 0 20 20" fill="none" xmlns="http://www.w3.org/2000/svg">
<path d="M10.0001 1.66663C9.34308 1.66663 8.70957 1.74972 8.10478 1.89042C7.97866 1.91986 7.8648 1.98774 7.77894 2.08468C7.69307 2.18163 7.63944 2.30285 7.62545 2.4316L7.4928 3.64091C7.44942 4.03719 7.2205 4.38781 6.87512 4.58736C6.53043 4.78651 6.11205 4.80857 5.74719 4.6484H5.74638L4.63554 4.1593C4.51705 4.10716 4.3853 4.09309 4.25848 4.11904C4.13166 4.14499 4.01602 4.20967 3.92753 4.30416C3.06399 5.22479 2.40124 6.33957 2.02486 7.58378C1.98737 7.70762 1.98923 7.84004 2.03019 7.96277C2.07115 8.0855 2.14919 8.1925 2.25354 8.269L3.23905 8.99166C3.56087 9.22826 3.75012 9.60113 3.75012 9.99996C3.75012 10.399 3.56087 10.7722 3.23905 11.0083L2.25354 11.7301C2.14919 11.8066 2.07115 11.9136 2.03019 12.0363C1.98923 12.1591 1.98737 12.2915 2.02486 12.4153C2.4012 13.6594 3.06342 14.775 3.92753 15.6958C4.01611 15.7901 4.1318 15.8546 4.25861 15.8804C4.38543 15.9062 4.51713 15.892 4.63554 15.8398L5.74638 15.3507C6.11141 15.1902 6.53019 15.2133 6.87512 15.4126C7.2205 15.6121 7.44942 15.9627 7.4928 16.359L7.62545 17.5683C7.63954 17.6968 7.69313 17.8178 7.77883 17.9145C7.86453 18.0113 7.97812 18.0791 8.10396 18.1087C8.70903 18.2499 9.34308 18.3333 10.0001 18.3333C10.6572 18.3333 11.2907 18.2502 11.8955 18.1095C12.0216 18.0801 12.1354 18.0122 12.2213 17.9152C12.3072 17.8183 12.3608 17.6971 12.3748 17.5683L12.5074 16.359C12.5508 15.9627 12.7797 15.6121 13.1251 15.4126C13.4698 15.2134 13.8882 15.1905 14.2531 15.3507L15.3647 15.8398C15.4831 15.892 15.6148 15.9062 15.7416 15.8804C15.8684 15.8546 15.9841 15.7901 16.0727 15.6958C16.9363 14.7751 17.599 13.6595 17.9754 12.4153C18.0129 12.2915 18.011 12.1591 17.9701 12.0363C17.9291 11.9136 17.8511 11.8066 17.7467 11.7301L16.7612 11.0083C16.4394 10.7722 16.2501 10.399 16.2501 9.99996C16.2501 9.60091 16.4394 9.22773 16.7612 8.99166L17.7467 8.26982C17.8511 8.19332 17.9291 8.08632 17.9701 7.96358C18.011 7.84085 18.0129 7.70843 17.9754 7.58459C17.599 6.34038 16.9363 5.22479 16.0727 4.30416C15.9841 4.20981 15.8684 4.14528 15.7416 4.11948C15.6148 4.09368 15.4831 4.10788 15.3647 4.16012L14.2531 4.64921C13.8882 4.80938 13.4698 4.78651 13.1251 4.58736C12.7797 4.38781 12.5508 4.03719 12.5074 3.64091L12.3748 2.4316C12.3607 2.30311 12.3071 2.18214 12.2214 2.08537C12.1357 1.9886 12.0221 1.92077 11.8963 1.89124C11.2912 1.75002 10.6572 1.66663 10.0001 1.66663ZM10.0001 2.91663C10.4061 2.91663 10.7959 2.98949 11.1866 3.05823L11.2648 3.77681C11.3514 4.56803 11.8113 5.27177 12.5001 5.66972C13.1894 6.06793 14.0285 6.11371 14.7568 5.79342L15.4176 5.50289C15.925 6.11221 16.3268 6.80045 16.6074 7.55448L16.0214 7.98417C15.3799 8.45476 15.0001 9.204 15.0001 9.99996C15.0001 10.7959 15.3799 11.5452 16.0214 12.0157L16.6074 12.4454C16.3268 13.1995 15.925 13.8877 15.4176 14.497L14.7568 14.2065C14.0285 13.8862 13.1894 13.932 12.5001 14.3302C11.8113 14.7282 11.3514 15.4319 11.2648 16.2231L11.1866 16.9417C10.796 17.0102 10.4059 17.0833 10.0001 17.0833C9.59416 17.0833 9.20432 17.0104 8.8136 16.9417L8.73547 16.2231C8.64886 15.4319 8.18891 14.7282 7.50012 14.3302C6.81088 13.932 5.97175 13.8862 5.24345 14.2065L4.58264 14.497C4.07511 13.8878 3.67343 13.1995 3.39286 12.4454L3.9788 12.0157C4.62031 11.5452 5.00012 10.7959 5.00012 9.99996C5.00012 9.204 4.62001 8.45428 3.9788 7.98336L3.39286 7.55367C3.67359 6.79935 4.07573 6.11156 4.58346 5.50208L5.24345 5.7926C5.97175 6.1129 6.81088 6.06793 7.50012 5.66972C8.18891 5.27177 8.64886 4.56803 8.73547 3.77681L8.8136 3.05823C9.20429 2.98968 9.59437 2.91663 10.0001 2.91663ZM10.0001 6.66663C8.16657 6.66663 6.66679 8.16641 6.66679 9.99996C6.66679 11.8335 8.16657 13.3333 10.0001 13.3333C11.8337 13.3333 13.3335 11.8335 13.3335 9.99996C13.3335 8.16641 11.8337 6.66663 10.0001 6.66663ZM10.0001 7.91663C11.1581 7.91663 12.0835 8.84196 12.0835 9.99996C12.0835 11.158 11.1581 12.0833 10.0001 12.0833C8.84212 12.0833 7.91679 11.158 7.91679 9.99996C7.91679 8.84196 8.84212 7.91663 10.0001 7.91663Z" fill="#18181C"/>
</svg>
