<svg width="16" height="16" viewBox="0 0 16 16" fill="none" xmlns="http://www.w3.org/2000/svg">
<path d="M10.3108 12.6866C10.4493 12.6897 10.5854 12.6495 10.7 12.5716C10.8147 12.4938 10.9022 12.3821 10.9505 12.2522C10.9987 12.1223 11.0053 11.9807 10.9693 11.8468C10.9333 11.713 10.8565 11.5938 10.7496 11.5057L6.67018 8.01087L10.7496 4.51732C10.8236 4.46296 10.8855 4.39395 10.9315 4.31454C10.9776 4.23514 11.0067 4.14706 11.0172 4.05587C11.0276 3.96468 11.0191 3.87234 10.9922 3.78459C10.9653 3.69684 10.9205 3.61556 10.8607 3.54591C10.801 3.47625 10.7275 3.41975 10.6448 3.37981C10.5622 3.33988 10.4722 3.31745 10.3805 3.31391C10.2887 3.31038 10.1973 3.32576 10.1118 3.35921C10.0263 3.39265 9.94868 3.44338 9.88372 3.50823L5.21315 7.50437C5.1398 7.56696 5.0809 7.64465 5.04052 7.73221C5.00013 7.81976 4.97922 7.91506 4.97922 8.01149C4.97922 8.10791 5.00013 8.20321 5.04052 8.29077C5.0809 8.37833 5.1398 8.45609 5.21315 8.51868L9.88372 12.5187C10.0017 12.6235 10.153 12.6829 10.3108 12.6866Z" fill="#18181C"/>
</svg>
