<svg width="24" height="24" viewBox="0 0 24 24" fill="none" xmlns="http://www.w3.org/2000/svg">
<path fill-rule="evenodd" clip-rule="evenodd" d="M21.0035 10C21.5558 10 22.0035 9.55228 22.0035 9V3C22.0035 2.44772 21.5558 2 21.0035 2H14.9999C14.4476 2 13.9999 2.44771 13.9999 3C13.9999 3.55228 14.4476 4 14.9999 4H18.5895L9.98283 12.6066C9.59231 12.9971 9.59231 13.6303 9.98283 14.0208C10.3734 14.4114 11.0065 14.4114 11.397 14.0208L20.0035 5.41437V9C20.0035 9.55228 20.4512 10 21.0035 10ZM5 5C3.34315 5 2 6.34315 2 8V19C2 20.6569 3.34315 22 5 22H16C17.6569 22 19 20.6569 19 19V13C19 12.4477 18.5523 12 18 12C17.4477 12 17 12.4477 17 13V19C17 19.5523 16.5523 20 16 20H5C4.44772 20 4 19.5523 4 19V8C4 7.44772 4.44772 7 5 7H11C11.5523 7 12 6.55228 12 6C12 5.44772 11.5523 5 11 5H5Z" fill="#18181C"/>
</svg>
