<svg xmlns="http://www.w3.org/2000/svg" width="28" height="28" viewBox="0 0 28 28" fill="none">
  <path
    d="M26.173 12.0313L20.7226 17.3443L22.0097 24.8483C22.0657 25.1764 21.931 25.508 21.6615 25.704C21.5092 25.8151 21.3281 25.8711 21.147 25.8711C21.0079 25.8711 20.8679 25.8379 20.7401 25.7705L14.0009 22.2276L7.2625 25.7696C6.96849 25.9254 6.61062 25.9 6.34112 25.7031C6.07162 25.5071 5.93687 25.1755 5.99287 24.8474L7.28 17.3434L1.82874 12.0313C1.59074 11.7985 1.50412 11.4503 1.60737 11.1344C1.71062 10.8185 1.98449 10.5866 2.31437 10.5385L9.84725 9.44477L13.216 2.61802C13.5109 2.02039 14.4909 2.02039 14.7857 2.61802L18.1545 9.44477L25.6874 10.5385C26.0172 10.5866 26.2911 10.8176 26.3944 11.1344C26.4976 11.4511 26.411 11.7976 26.173 12.0313Z"
    fill="#fff"
  />
</svg>