<svg xmlns="http://www.w3.org/2000/svg" width="20" height="20" viewBox="0 0 20 20" fill="none">
  <g clip-path="url(#clip0_308_15825)">
    <path
      d="M19.2831 8.66879C18.9447 6.20484 17.6415 3.97621 15.66 2.47317C13.6785 0.97012 11.1811 0.315783 8.71713 0.654099C6.25318 0.992416 4.02455 2.29567 2.52151 4.27717C1.01846 6.25867 0.364122 8.75609 0.702439 11.22C0.980089 13.2592 1.91666 15.1517 3.36948 16.6092C4.82229 18.0668 6.71172 19.0095 8.74994 19.2938C9.16774 19.3481 9.58863 19.3752 10.0099 19.375C11.7097 19.3781 13.3776 18.9144 14.8318 18.0344C14.9064 17.9943 14.972 17.9395 15.0247 17.8733C15.0774 17.8071 15.1161 17.7308 15.1385 17.6492C15.1609 17.5676 15.1664 17.4822 15.1549 17.3984C15.1433 17.3145 15.1148 17.2339 15.0711 17.1614C15.0274 17.0889 14.9694 17.0261 14.9007 16.9766C14.832 16.9272 14.754 16.8922 14.6713 16.8739C14.5887 16.8555 14.5032 16.8541 14.42 16.8698C14.3369 16.8855 14.2577 16.9179 14.1874 16.965C12.5399 17.9554 10.5947 18.3299 8.69728 18.0221C6.79981 17.7142 5.07281 16.744 3.8229 15.2835C2.57299 13.8231 1.88104 11.967 1.8699 10.0447C1.85876 8.12249 2.52915 6.25848 3.76205 4.78365C4.99495 3.30882 6.71059 2.3186 8.60436 1.98879C10.4981 1.65898 12.4475 2.01092 14.1064 2.98213C15.7653 3.95334 17.0264 5.48098 17.6657 7.29382C18.305 9.10666 18.2813 11.0874 17.5987 12.8844C17.4872 13.1779 17.2765 13.4231 17.003 13.5774C16.7296 13.7316 16.4107 13.7852 16.1019 13.7289C15.793 13.6725 15.5137 13.5097 15.3124 13.2688C15.1111 13.0278 15.0005 12.724 14.9999 12.41V5.62504C14.9999 5.45928 14.9341 5.30031 14.8169 5.1831C14.6997 5.06589 14.5407 5.00004 14.3749 5.00004C14.2092 5.00004 14.0502 5.06589 13.933 5.1831C13.8158 5.30031 13.7499 5.45928 13.7499 5.62504V6.70379C13.0736 5.93412 12.1771 5.39082 11.1818 5.14743C10.1865 4.90404 9.14046 4.9723 8.18524 5.34297C7.23001 5.71365 6.41173 6.36884 5.84113 7.21988C5.27053 8.07092 4.97517 9.07672 4.99501 10.1011C5.01486 11.1256 5.34895 12.1192 5.95208 12.9475C6.5552 13.7758 7.39825 14.3988 8.36711 14.7322C9.33597 15.0656 10.3839 15.0933 11.369 14.8116C12.3541 14.5298 13.2289 13.9522 13.8749 13.1569C14.03 13.6748 14.3435 14.131 14.7714 14.4614C15.1994 14.7918 15.7201 14.9796 16.2604 14.9985C16.8006 15.0174 17.3332 14.8664 17.7832 14.5668C18.2332 14.2671 18.5778 13.8339 18.7687 13.3282C19.3267 11.8424 19.5035 10.2405 19.2831 8.66879ZM9.99994 13.75C9.25826 13.75 8.53324 13.5301 7.91655 13.118C7.29987 12.706 6.81922 12.1203 6.53539 11.4351C6.25156 10.7499 6.1773 9.99588 6.322 9.26845C6.46669 8.54102 6.82384 7.87283 7.34829 7.34839C7.87274 6.82394 8.54092 6.46679 9.26835 6.32209C9.99578 6.1774 10.7498 6.25166 11.435 6.53549C12.1202 6.81932 12.7059 7.29996 13.118 7.91665C13.53 8.53333 13.7499 9.25836 13.7499 10C13.7489 10.9943 13.3535 11.9475 12.6505 12.6506C11.9474 13.3536 10.9942 13.749 9.99994 13.75Z"
      fill="#18181C" />
  </g>
  <defs>
    <clipPath id="clip0_308_15825">
      <rect width="20" height="20" fill="white" />
    </clipPath>
  </defs>
</svg>