<svg width="20" height="20" viewBox="0 0 20 20" fill="none" xmlns="http://www.w3.org/2000/svg">
<path d="M18.0534 16.8238H11.8361C11.3981 16.8238 11.043 16.4687 11.043 16.0307C11.043 15.5927 11.3981 15.2375 11.8361 15.2375H18.0534C18.4914 15.2375 18.8465 15.5927 18.8465 16.0307C18.8465 16.4687 18.4914 16.8238 18.0534 16.8238Z" fill="#18181C"/>
<path d="M11.687 5.55772H1.79314C1.35513 5.55772 1 5.20259 1 4.76458C1 4.32657 1.35513 3.97144 1.79314 3.97144H11.687C12.125 3.97144 12.4801 4.32657 12.4801 4.76458C12.4801 5.20259 12.125 5.55772 11.687 5.55772Z" fill="#18181C"/>
<path d="M18.0534 11.1908H7.2326C6.79458 11.1908 6.43945 10.8356 6.43945 10.3976C6.43945 9.95962 6.79458 9.60449 7.2326 9.60449H18.0534C18.4914 9.60449 18.8466 9.95962 18.8466 10.3976C18.8466 10.8356 18.4914 11.1908 18.0534 11.1908Z" fill="#18181C"/>
<path d="M8.15851 16.8238H1.79314C1.35513 16.8238 1 16.4687 1 16.0307C1 15.5927 1.35513 15.2375 1.79314 15.2375H8.15851C8.59652 15.2375 8.95165 15.5927 8.95165 16.0307C8.95165 16.4687 8.59652 16.8238 8.15851 16.8238Z" fill="#18181C"/>
<path d="M3.70323 11.1908H1.79314C1.35513 11.1908 1 10.8356 1 10.3976C1 9.95962 1.35513 9.60449 1.79314 9.60449H3.70323C4.14124 9.60449 4.49637 9.95962 4.49637 10.3976C4.49637 10.8356 4.14124 11.1908 3.70323 11.1908Z" fill="#18181C"/>
<path d="M18.0527 5.55772H15.2502C14.8122 5.55772 14.457 5.20259 14.457 4.76458C14.457 4.32657 14.8122 3.97144 15.2502 3.97144H18.0527C18.4908 3.97144 18.8459 4.32657 18.8459 4.76458C18.8459 5.20259 18.4908 5.55772 18.0527 5.55772Z" fill="#18181C"/>
<path d="M11.0091 17.795H8.83988C8.46452 17.795 8.16016 17.4907 8.16016 17.1153V14.9461C8.16016 14.5707 8.46452 14.2664 8.83988 14.2664H11.0091C11.3845 14.2664 11.6888 14.5707 11.6888 14.9461V17.1153C11.6888 17.4907 11.3845 17.795 11.0091 17.795Z" fill="#18181C"/>
<path d="M6.55209 12.162H4.38285C4.00749 12.162 3.70312 11.8576 3.70312 11.4823V9.31302C3.70312 8.93767 4.00749 8.6333 4.38285 8.6333H6.55209C6.92745 8.6333 7.23182 8.93767 7.23182 9.31302V11.4823C7.23182 11.8576 6.92745 12.162 6.55209 12.162Z" fill="#18181C"/>
<path d="M14.5365 6.52869H12.3672C11.9919 6.52869 11.6875 6.22432 11.6875 5.84897V3.67972C11.6875 3.30437 11.9919 3 12.3672 3H14.5365C14.9118 3 15.2162 3.30437 15.2162 3.67972V5.84897C15.216 6.22452 14.9118 6.52869 14.5365 6.52869Z" fill="#18181C"/>
</svg>
