<svg width="17" height="16" viewBox="0 0 17 16" fill="none" xmlns="http://www.w3.org/2000/svg">
<path d="M2.14102 16H13.3055C14.4758 16 15.4269 15.0489 15.4269 13.8785V3.30665C15.4269 2.13628 14.4758 1.18516 13.3055 1.18516H12.464V0.592582C12.464 0.266652 12.1973 0 11.8714 0C11.5454 0 11.2788 0.266652 11.2788 0.592582V1.18516H4.1677V0.592582C4.1677 0.266652 3.901 0 3.57507 0C3.24914 0 2.98249 0.266652 2.98249 0.592582V1.18516H2.14102C0.97065 1.18516 0.0195312 2.13628 0.0195312 3.30665V13.8785C0.0195312 15.0489 0.97065 16 2.14102 16ZM1.20474 3.30665C1.20474 2.79111 1.62548 2.37038 2.14102 2.37038H2.98249V2.96296C2.98249 3.28889 3.24914 3.55554 3.57507 3.55554C3.901 3.55554 4.16765 3.28889 4.16765 2.96296V2.37038H11.2788V2.96296C11.2788 3.28889 11.5454 3.55554 11.8714 3.55554C12.1973 3.55554 12.4639 3.28889 12.4639 2.96296V2.37038H13.3054C13.821 2.37038 14.2417 2.79111 14.2417 3.30665V5.03704H1.20474V3.30665ZM1.20474 6.22221H14.2418V13.8785C14.2418 14.3941 13.8211 14.8148 13.3055 14.8148H2.14102C1.62548 14.8148 1.20474 14.3941 1.20474 13.8785V6.22221Z" fill="#18181C"/>
</svg>
