<svg xmlns="http://www.w3.org/2000/svg" width="28" height="28" viewBox="0 0 28 28" fill="none">
  <g clip-path="url(#clip0_553_1952)">
    <path
      d="M13.9997 15.2727C18.2171 15.2727 21.636 11.8538 21.636 7.63637C21.636 3.41892 18.2171 0 13.9997 0C9.7822 0 6.36328 3.41892 6.36328 7.63637C6.36328 11.8538 9.7822 15.2727 13.9997 15.2727Z"
      fill="white" />
    <path
      d="M24.8679 19.4153C23.6648 18.7982 21.7482 17.9325 19.4563 17.3142C19.1382 17.2247 18.8026 17.4018 18.6919 17.7138L16.0836 24.9906L15.2939 21.041L16.5132 17.3831C16.5778 17.1893 16.5455 16.9755 16.4249 16.8095C16.3056 16.6436 16.1142 16.5454 15.9091 16.5454H12.0909C11.8858 16.5454 11.6944 16.6436 11.5751 16.8095C11.4546 16.9754 11.4222 17.1893 11.4869 17.3831L12.7062 21.041L11.9165 24.9906L9.30814 17.7138C9.19753 17.4018 8.86069 17.2253 8.54373 17.3142C6.2518 17.9325 4.33525 18.7982 3.13216 19.4153C1.20064 20.4071 0 22.3647 0 24.523V25.4545C0 26.8584 1.14223 28 2.54548 28H12.0909H15.9091H25.4546C26.8578 28 28.0001 26.8584 28.0001 25.4545V24.523C28 22.3647 26.7994 20.4071 24.8679 19.4153Z"
      fill="white" />
  </g>
  <defs>
    <clipPath id="clip0_553_1952">
      <rect width="28" height="28" fill="white" />
    </clipPath>
  </defs>
</svg>