<svg width="16" height="16" viewBox="0 0 16 16" fill="none" xmlns="http://www.w3.org/2000/svg">
<path d="M12.6873 5.6892C12.6904 5.55066 12.6502 5.41462 12.5724 5.29998C12.4945 5.18535 12.3829 5.09781 12.253 5.04955C12.1231 5.00129 11.9814 4.9947 11.8476 5.03069C11.7138 5.06669 11.5945 5.14348 11.5064 5.2504L8.0116 9.32982L4.51805 5.2504C4.46369 5.17644 4.39468 5.1145 4.31528 5.06846C4.23587 5.02242 4.14779 4.99327 4.0566 4.98284C3.96541 4.9724 3.87307 4.98091 3.78532 5.00783C3.69757 5.03474 3.61629 5.07949 3.54664 5.13926C3.47698 5.19903 3.42048 5.27254 3.38055 5.35518C3.34061 5.43783 3.31819 5.52783 3.31465 5.61954C3.31111 5.71126 3.32649 5.80272 3.35994 5.8882C3.39338 5.97367 3.44412 6.05132 3.50896 6.11628L7.5051 10.7869C7.56769 10.8602 7.64538 10.9191 7.73294 10.9595C7.8205 10.9999 7.9158 11.0208 8.01222 11.0208C8.10864 11.0208 8.20394 10.9999 8.2915 10.9595C8.37906 10.9191 8.45682 10.8602 8.51942 10.7869L12.5194 6.11628C12.6242 5.9983 12.6836 5.84696 12.6873 5.6892Z" fill="#8557E5"/>
</svg>
