<svg width="243" height="242" viewBox="0 0 243 242" fill="none" xmlns="http://www.w3.org/2000/svg">
<rect x="132.617" width="114" height="124" rx="12" transform="rotate(16.2395 132.617 0)" fill="#2D2D34"/>
<path d="M134.676 37.242C133.866 37.006 133.222 36.6224 132.743 36.0914C132.268 35.5615 131.974 34.9278 131.859 34.1904C131.746 33.4492 131.814 32.6504 132.064 31.794C132.313 30.9376 132.684 30.229 133.177 29.6684C133.67 29.1039 134.259 28.7256 134.945 28.5335C135.633 28.3425 136.383 28.365 137.193 28.6011C138.004 28.8371 138.646 29.2201 139.121 29.75C139.6 30.281 139.895 30.9171 140.009 31.6584C140.123 32.3958 140.055 33.1927 139.806 34.0491C139.557 34.9055 139.185 35.616 138.692 36.1805C138.199 36.7411 137.608 37.1169 136.92 37.3079C136.234 37.5 135.487 37.478 134.676 37.242ZM134.985 36.2694C135.584 36.4439 136.129 36.4527 136.621 36.2959C137.117 36.1364 137.542 35.8372 137.894 35.3983C138.248 34.9557 138.523 34.4002 138.717 33.732C138.914 33.0561 138.98 32.4377 138.914 31.8769C138.849 31.3123 138.647 30.8327 138.308 30.4381C137.97 30.0397 137.496 29.7515 136.885 29.5737C136.282 29.398 135.732 29.3919 135.234 29.5553C134.742 29.716 134.318 30.0196 133.963 30.4661C133.613 30.9099 133.339 31.4698 133.142 32.1457C132.948 32.8139 132.884 33.4265 132.951 33.9834C133.018 34.5403 133.221 35.0161 133.56 35.4107C133.903 35.8064 134.378 36.0927 134.985 36.2694ZM142.255 39.4556C141.372 39.1983 140.762 38.7166 140.426 38.0105C140.094 37.3055 140.062 36.4131 140.331 35.3331C140.351 35.2513 140.386 35.1241 140.436 34.9512C140.578 34.4635 140.756 33.9738 140.97 33.482C141.189 32.9875 141.4 32.6073 141.602 32.3413C141.788 32.0911 142.009 31.8744 142.267 31.6911C142.529 31.5051 142.802 31.3681 143.086 31.28C143.345 31.1928 143.626 31.1434 143.929 31.1318C144.237 31.1213 144.535 31.1333 144.825 31.1677C145.12 31.1995 145.487 31.25 145.925 31.3193C146.363 31.3885 146.732 31.4377 147.032 31.4667L146.867 32.4186C146.662 32.4049 146.334 32.3593 145.882 32.2817C145.301 32.1875 144.815 32.1251 144.424 32.0945C144.037 32.0651 143.695 32.0946 143.398 32.1832C143.059 32.276 142.755 32.475 142.487 32.7802C142.219 33.0854 142 33.4634 141.832 33.9142C142.165 33.628 142.546 33.4494 142.975 33.3786C143.404 33.3077 143.841 33.3371 144.287 33.4669C144.832 33.6257 145.271 33.8931 145.603 34.269C145.935 34.6448 146.144 35.0932 146.23 35.6139C146.317 36.1309 146.276 36.6793 146.107 37.2592C145.93 37.866 145.651 38.3659 145.27 38.759C144.894 39.1494 144.444 39.4059 143.921 39.5285C143.402 39.6522 142.846 39.6279 142.255 39.4556ZM142.579 38.4938C143.17 38.6661 143.677 38.6137 144.099 38.3368C144.525 38.061 144.831 37.6062 145.015 36.9725C145.138 36.5501 145.172 36.164 145.115 35.8143C145.06 35.4607 144.918 35.1611 144.69 34.9154C144.461 34.6697 144.155 34.4909 143.771 34.3791C143.187 34.209 142.683 34.26 142.258 34.532C141.838 34.8013 141.534 35.2585 141.346 35.9037C141.157 36.5527 141.167 37.1036 141.377 37.5563C141.591 38.0102 141.991 38.3227 142.579 38.4938ZM146.833 40.5954L148.393 35.2191L147.529 34.9674L147.775 34.1206L149.671 34.6726L149.015 36.925L150.357 37.316C150.822 37.4514 151.163 37.5737 151.381 37.6831C151.859 37.9306 152.194 38.2532 152.387 38.6509C152.58 39.0447 152.596 39.5201 152.434 40.0769C152.281 40.5992 152.024 40.9825 151.661 41.2268C151.3 41.4673 150.869 41.5711 150.371 41.5383C150.113 41.5216 149.742 41.4428 149.258 41.3018L146.833 40.5954ZM149.522 40.4601C149.864 40.5596 150.126 40.611 150.309 40.6141C150.545 40.6164 150.761 40.5499 150.954 40.4147C151.152 40.2805 151.293 40.0656 151.379 39.7699C151.468 39.4665 151.463 39.2046 151.364 38.9844C151.271 38.7613 151.106 38.5841 150.869 38.4527C150.697 38.3568 150.469 38.2674 150.185 38.1846L148.768 37.7719L148.105 40.0473L149.522 40.4601ZM157.778 35.9655C157.59 35.9107 157.449 35.8009 157.355 35.6361C157.267 35.4686 157.249 35.2927 157.303 35.1084C157.359 34.9164 157.469 34.7754 157.632 34.6856C157.8 34.5969 157.978 34.58 158.166 34.6348C158.208 34.6471 158.238 34.658 158.256 34.6674C158.277 34.6691 158.306 34.6756 158.344 34.6868C158.536 34.7427 158.677 34.8525 158.767 35.0162C158.861 35.1809 158.88 35.3593 158.824 35.5513C158.77 35.7357 158.659 35.8741 158.49 35.9667C158.327 36.0565 158.149 36.0734 157.957 36.0175C157.918 36.0063 157.89 35.996 157.872 35.9866C157.852 35.9848 157.82 35.9778 157.778 35.9655ZM154.698 39.8241C154.551 40.4855 154.588 41.0378 154.809 41.4813C155.034 41.9258 155.432 42.2315 156.004 42.3981C156.412 42.5167 156.794 42.5261 157.152 42.4263C157.514 42.3276 157.833 42.1267 158.109 41.8238L158.995 42.4506C158.594 42.9254 158.108 43.2441 157.536 43.4065C156.963 43.569 156.374 43.5618 155.767 43.3851C155.16 43.2084 154.665 42.9185 154.283 42.5154C153.904 42.1134 153.66 41.6298 153.549 41.0644C153.443 40.5001 153.483 39.8973 153.67 39.2559C153.866 38.5839 154.159 38.034 154.55 37.6063C154.947 37.1759 155.409 36.8918 155.936 36.7538C156.469 36.6132 157.035 36.6301 157.634 36.8046C158.229 36.978 158.702 37.2617 159.054 37.6558C159.411 38.0472 159.632 38.5261 159.717 39.0925C159.803 39.655 159.747 40.2781 159.548 40.9616C159.515 41.073 159.489 41.1569 159.468 41.2134L154.698 39.8241ZM157.4 37.7363C156.843 37.5741 156.358 37.6016 155.945 37.8187C155.531 38.0358 155.202 38.4314 154.955 39.0054L158.642 40.0793C158.87 38.8249 158.456 38.044 157.4 37.7363ZM160.745 44.6475L159.754 44.3589L161.566 38.1374L162.447 38.3941L163.403 43.9095L167.171 39.77L168.052 40.0267L166.24 46.2482L165.249 45.9596L166.439 41.8753L163.268 45.3824L162.726 45.2247L161.934 40.5632L160.745 44.6475ZM174.881 41.8283C175.446 41.9927 175.896 42.278 176.232 42.6841C176.571 43.0914 176.78 43.5771 176.857 44.1412C176.939 44.7026 176.89 45.2944 176.709 45.9165C176.526 46.5425 176.249 47.0721 175.877 47.5054C175.51 47.9359 175.074 48.2337 174.567 48.3987C174.066 48.5609 173.531 48.5593 172.963 48.3937C172.582 48.283 172.257 48.1195 171.987 47.9033C171.718 47.6832 171.505 47.4192 171.349 47.1113L170.376 50.4524L169.344 50.1521L171.962 41.1655L172.878 41.4323L172.675 42.1293C172.991 41.9172 173.334 41.7838 173.704 41.7291C174.074 41.6744 174.466 41.7075 174.881 41.8283ZM173.109 47.4178C173.505 47.533 173.869 47.5286 174.201 47.4045C174.536 47.2815 174.823 47.0629 175.06 46.7487C175.301 46.4357 175.488 46.0526 175.62 45.5994C175.751 45.1501 175.798 44.7305 175.762 44.3408C175.73 43.9483 175.604 43.6095 175.383 43.3243C175.166 43.0402 174.853 42.8389 174.446 42.7203C173.859 42.5492 173.352 42.6306 172.925 42.9647C172.499 43.2988 172.182 43.823 171.974 44.5373C171.765 45.2516 171.751 45.8661 171.93 46.3807C172.113 46.8965 172.506 47.2422 173.109 47.4178ZM177.064 49.4008L178.87 43.1777L179.901 43.4781L179.245 45.7304L180.196 46.0073C180.661 46.1427 181.002 46.265 181.22 46.3744C182.232 46.9065 182.582 47.7044 182.273 48.7682C182.12 49.2905 181.863 49.6738 181.5 49.9181C181.139 50.1586 180.708 50.2624 180.21 50.2296C179.952 50.2129 179.581 50.1341 179.097 49.9931L177.064 49.4008ZM183.435 51.2566L182.41 50.9579L184.222 44.7365L185.247 45.0352L183.435 51.2566ZM179.361 49.1514C179.703 49.2509 179.965 49.3023 180.148 49.3054C180.384 49.3077 180.6 49.2412 180.793 49.106C180.99 48.9718 181.132 48.7569 181.218 48.4612C181.307 48.1578 181.302 47.8959 181.203 47.6757C181.11 47.4527 180.945 47.2754 180.708 47.144C180.536 47.0481 180.308 46.9587 180.024 46.8759L178.999 46.5773L178.336 48.8527L179.361 49.1514ZM186.072 52.0246L185.046 51.726L186.859 45.5045L187.884 45.8032L187.121 48.4242L190.393 49.3773L191.156 46.7562L192.181 47.0549L190.369 53.2763L189.344 52.9777L190.109 50.3508L186.837 49.3978L186.072 52.0246ZM193.02 54.0484L191.977 53.7447L193.795 47.5249L194.832 47.8269L193.959 50.8225L197.442 48.587L198.772 48.9746L195.118 51.285L197.283 55.2901L195.848 54.8723L193.892 51.0529L193.02 54.0484ZM204.146 51.6709C204.175 51.8711 204.172 52.0826 204.136 52.3055C204.101 52.5246 204.043 52.7762 203.96 53.0604L202.839 56.9085L201.929 56.6433L202.211 55.6756C201.494 56.2917 200.615 56.4481 199.574 56.145C199.125 56.0141 198.765 55.8197 198.494 55.5617C198.225 55.2999 198.05 55.0053 197.97 54.678C197.891 54.3506 197.901 54.0161 198 53.6743C198.268 52.7564 198.954 52.2959 200.059 52.2928C200.382 52.2994 200.746 52.3285 201.152 52.38C201.558 52.4316 202.042 52.4997 202.605 52.5845L202.989 52.64C203.12 52.1324 203.1 51.7268 202.931 51.4232C202.762 51.1158 202.412 50.8848 201.882 50.7305C201.491 50.6164 201.128 50.6088 200.796 50.7076C200.468 50.8037 200.196 51.0205 199.981 51.3578L199.093 50.7805C199.405 50.2672 199.822 49.9221 200.345 49.7451C200.872 49.5654 201.481 49.5762 202.173 49.7776C202.745 49.9442 203.2 50.1894 203.539 50.5132C203.883 50.8342 204.085 51.2201 204.146 51.6709ZM199.98 55.332C200.337 55.436 200.67 55.4644 200.98 55.417C201.291 55.3659 201.562 55.2574 201.793 55.0916C202.026 54.9219 202.206 54.7118 202.333 54.4614C202.41 54.342 202.477 54.2033 202.536 54.0454C202.598 53.8885 202.66 53.7108 202.722 53.5123L202.43 53.4646C201.867 53.3798 201.433 53.318 201.128 53.2791C200.826 53.2413 200.546 53.2222 200.288 53.222C199.966 53.2281 199.692 53.286 199.469 53.3958C199.249 53.5068 199.1 53.6967 199.022 53.9655C198.969 54.146 198.965 54.3259 199.008 54.5053C199.053 54.6808 199.156 54.842 199.317 54.989C199.479 55.136 199.699 55.2503 199.98 55.332ZM129.613 50.8072L132.859 46.4409L133.902 46.7446L127.897 54.7445L126.901 54.4542L128.738 51.9648L128.021 45.0314L129.098 45.3452L129.613 50.8072ZM138.511 54.8362L137.485 54.5375L139.618 47.2158L136.789 46.3919L137.073 45.4184L143.755 47.3648L143.472 48.3383L140.643 47.5145L138.511 54.8362ZM145.616 57.0933C144.806 56.8573 144.161 56.4738 143.683 55.9428C143.208 55.4129 142.913 54.7792 142.799 54.0418C142.686 53.3006 142.754 52.5017 143.003 51.6453C143.253 50.7889 143.624 50.0804 144.116 49.5197C144.61 48.9552 145.199 48.5769 145.884 48.3848C146.573 48.1939 147.323 48.2164 148.133 48.4524C148.943 48.6885 149.586 49.0714 150.061 49.6013C150.539 50.1324 150.835 50.7685 150.948 51.5097C151.063 52.2471 150.995 53.044 150.746 53.9004C150.496 54.7569 150.125 55.4673 149.631 56.0318C149.139 56.5925 148.548 56.9683 147.859 57.1592C147.174 57.3513 146.426 57.3294 145.616 57.0933ZM145.924 56.1207C146.524 56.2952 147.069 56.3041 147.56 56.1473C148.057 55.9877 148.481 55.6885 148.834 55.2497C149.188 54.807 149.462 54.2515 149.657 53.5833C149.854 52.9074 149.919 52.2891 149.854 51.7283C149.789 51.1637 149.587 50.6841 149.248 50.2895C148.91 49.891 148.435 49.6029 147.825 49.425C147.222 49.2494 146.672 49.2433 146.174 49.4067C145.681 49.5673 145.258 49.8709 144.903 50.3174C144.552 50.7612 144.279 51.3211 144.082 51.997C143.888 52.6652 143.824 53.2778 143.891 53.8348C143.957 54.3917 144.161 54.8675 144.5 55.2621C144.843 55.6578 145.318 55.944 145.924 56.1207ZM151.72 58.6837L150.695 58.3851L153.111 50.0898L159.586 51.9758L157.17 60.2711L156.144 59.9724L158.277 52.6507L153.853 51.362L151.72 58.6837ZM163.06 58.5059L159.604 57.4991L159.85 56.6523L163.307 57.6591L163.06 58.5059ZM166.111 62.8754L165.068 62.5717L167.154 55.4113L165.317 55.9013L165.651 54.7549L167.484 54.2764L168.527 54.5801L166.111 62.8754ZM171.052 64.5021C170.522 64.3478 170.079 64.0875 169.723 63.7214C169.368 63.3553 169.131 62.9239 169.013 62.4271C168.895 61.9304 168.913 61.417 169.068 60.887L169.954 57.8454C170.108 57.3154 170.368 56.8725 170.734 56.5167C171.101 56.1609 171.532 55.9241 172.029 55.8063C172.526 55.6886 173.039 55.7069 173.569 55.8612C174.099 56.0156 174.542 56.2758 174.898 56.6419C175.253 57.0081 175.49 57.4395 175.608 57.9363C175.726 58.433 175.707 58.9464 175.553 59.4764L174.667 62.518C174.513 63.0479 174.253 63.4908 173.886 63.8466C173.52 64.2024 173.089 64.4392 172.592 64.557C172.095 64.6748 171.582 64.6565 171.052 64.5021ZM171.339 63.5171C171.658 63.6099 171.974 63.6168 172.289 63.5376C172.604 63.4585 172.879 63.3074 173.115 63.0844C173.351 62.8615 173.515 62.5906 173.608 62.2719L174.529 59.1093C174.622 58.7905 174.629 58.4738 174.549 58.1591C174.47 57.8444 174.319 57.5692 174.096 57.3334C173.873 57.0977 173.602 56.9334 173.284 56.8405C172.965 56.7477 172.648 56.7408 172.333 56.82C172.019 56.8991 171.744 57.0502 171.508 57.2732C171.272 57.4961 171.108 57.767 171.015 58.0858L170.094 61.2483C170.001 61.5671 169.994 61.8838 170.073 62.1985C170.152 62.5132 170.303 62.7884 170.526 63.0242C170.749 63.2599 171.02 63.4242 171.339 63.5171Z" fill="white"/>
<path d="M120.909 87.2053L119.345 86.7497L122.474 76.009L119.719 76.7441L120.22 75.0245L122.97 74.3068L124.534 74.7623L120.909 87.2053ZM135.931 84.3534C136.364 84.8419 136.64 85.3971 136.759 86.0192C136.883 86.6429 136.85 87.2831 136.658 87.9398C136.44 88.6887 136.075 89.3008 135.561 89.7762C135.048 90.2516 134.433 90.56 133.717 90.7013C133.008 90.8386 132.259 90.7924 131.47 90.5625C130.681 90.3326 130.024 89.9695 129.5 89.4731C128.976 88.9767 128.625 88.3902 128.447 87.7135C128.277 87.0326 128.301 86.3178 128.519 85.5689C128.712 84.9064 129.022 84.3468 129.448 83.8899C129.881 83.4347 130.415 83.1123 131.052 82.9227C130.713 82.499 130.494 82.026 130.396 81.5038C130.304 80.9833 130.337 80.4523 130.495 79.9108C130.695 79.2253 131.027 78.6723 131.494 78.2519C131.967 77.8274 132.527 77.5591 133.172 77.4471C133.822 77.3367 134.514 77.388 135.245 77.6011C135.977 77.8142 136.585 78.1412 137.069 78.5822C137.558 79.0248 137.886 79.5515 138.052 80.1622C138.225 80.7689 138.212 81.415 138.012 82.1005C137.853 82.6477 137.595 83.1162 137.238 83.5058C136.886 83.8972 136.451 84.1797 135.931 84.3534ZM134.812 79.0873C134.161 78.8977 133.595 78.9109 133.114 79.1268C132.638 79.3445 132.309 79.7643 132.128 80.3865C131.947 81.0086 131.998 81.5392 132.283 81.9783C132.573 82.4191 133.044 82.7343 133.695 82.9239C134.346 83.1135 134.909 83.0995 135.385 82.8819C135.867 82.666 136.198 82.2469 136.379 81.6248C136.561 81.0026 136.506 80.4712 136.216 80.0304C135.931 79.5913 135.463 79.2769 134.812 79.0873ZM131.898 89.0935C132.388 89.2361 132.84 89.271 133.255 89.1982C133.677 89.1212 134.04 88.9364 134.344 88.6437C134.654 88.3527 134.881 87.9595 135.025 87.4641C135.243 86.7152 135.19 86.0717 134.866 85.5335C134.547 84.997 134.013 84.6196 133.265 84.4015C132.516 84.1834 131.863 84.2151 131.306 84.4965C130.749 84.778 130.361 85.2932 130.143 86.0421C129.927 86.7852 129.978 87.425 130.297 87.9615C130.621 88.4997 131.155 88.8771 131.898 89.0935ZM145.635 80.6366C146.418 80.8648 147.077 81.263 147.612 81.8311C148.152 82.4009 148.512 83.0745 148.692 83.8518C148.873 84.6233 148.845 85.4181 148.606 86.2361L147.401 90.3751C147.151 91.2334 146.74 91.9479 146.167 92.5186C145.596 93.0835 144.921 93.4588 144.143 93.6443C143.371 93.8258 142.565 93.7941 141.724 93.5491C141.038 93.3494 140.439 93.0249 139.926 92.5756C139.421 92.1222 139.043 91.5746 138.792 90.933L140.239 90.2481C140.386 90.6848 140.628 91.0677 140.963 91.3966C141.304 91.7272 141.7 91.9579 142.149 92.0888C142.685 92.2448 143.204 92.2553 143.705 92.1203C144.213 91.9869 144.651 91.7394 145.018 91.3778C145.386 91.0163 145.642 90.5878 145.786 90.0923L146.28 88.3987C145.799 88.6963 145.275 88.8873 144.707 88.9717C144.146 89.0521 143.592 89.0125 143.045 88.8531C142.284 88.6317 141.645 88.2517 141.127 87.7134C140.616 87.1709 140.274 86.5337 140.099 85.8018C139.931 85.0715 139.957 84.3262 140.179 83.5658C140.399 82.8111 140.792 82.1695 141.358 81.6408C141.93 81.1138 142.596 80.7607 143.354 80.5817C144.114 80.3968 144.874 80.4152 145.635 80.6366ZM143.63 87.4864C144.12 87.629 144.604 87.6389 145.084 87.5161C145.563 87.3933 145.984 87.1626 146.345 86.8241C146.706 86.4855 146.958 86.0714 147.1 85.5818C147.241 85.0979 147.25 84.6162 147.127 84.1367C147.01 83.6589 146.78 83.2387 146.435 82.8759C146.097 82.5148 145.686 82.2638 145.202 82.1229C144.712 81.9803 144.228 81.9703 143.748 82.0932C143.27 82.2102 142.851 82.438 142.49 82.7765C142.129 83.1151 141.877 83.5292 141.734 84.0188C141.592 84.5085 141.579 84.9922 141.696 85.47C141.819 85.9495 142.049 86.3697 142.388 86.7308C142.726 87.0919 143.141 87.3437 143.63 87.4864ZM154.805 88.6791C155.496 88.9241 156.056 89.2966 156.486 89.7966C156.921 90.2983 157.198 90.882 157.316 91.5477C157.442 92.2094 157.4 92.9002 157.191 93.6203C156.962 94.4037 156.58 95.0516 156.043 95.564C155.512 96.078 154.885 96.4201 154.16 96.5903C153.443 96.7564 152.704 96.7287 151.944 96.5072C151.333 96.3294 150.793 96.0501 150.322 95.6694C149.854 95.2829 149.488 94.8232 149.224 94.2903C148.967 93.759 148.834 93.183 148.828 92.5624L150.429 92.5694C150.444 93.1802 150.624 93.7011 150.967 94.1323C151.31 94.5635 151.761 94.8604 152.32 95.0232C152.827 95.1708 153.302 95.1906 153.746 95.0824C154.196 94.9759 154.582 94.757 154.903 94.4257C155.226 94.0886 155.462 93.6666 155.609 93.1597C155.757 92.6528 155.781 92.1724 155.682 91.7186C155.591 91.2607 155.387 90.8669 155.07 90.5373C154.754 90.2077 154.351 89.9715 153.861 89.8289C153.654 89.7685 153.426 89.7335 153.179 89.724C152.938 89.7162 152.704 89.7356 152.478 89.7822L152.09 88.3474L157.198 85.8702L151.772 84.2896L152.2 82.8207L159.536 84.9575L159.105 86.4351L154.805 88.6791ZM169.549 87.6023C170.333 87.8305 170.991 88.2286 171.526 88.7968C172.066 89.3666 172.426 90.0401 172.606 90.8174C172.787 91.5889 172.759 92.3837 172.521 93.2017L171.315 97.3407C171.065 98.199 170.654 98.9136 170.082 99.4842C169.511 100.049 168.836 100.424 168.057 100.61C167.285 100.791 166.479 100.76 165.638 100.515C164.953 100.315 164.353 99.9906 163.841 99.5412C163.335 99.0878 162.957 98.5403 162.707 97.8986L164.153 97.2137C164.301 97.6505 164.542 98.0333 164.878 98.3622C165.219 98.6928 165.614 98.9235 166.063 99.0544C166.599 99.2105 167.118 99.221 167.62 99.0859C168.127 98.9525 168.565 98.705 168.933 98.3435C169.3 97.9819 169.557 97.5534 169.701 97.058L170.194 95.3644C169.714 95.6619 169.189 95.8529 168.621 95.9373C168.06 96.0177 167.506 95.9782 166.959 95.8188C166.199 95.5973 165.559 95.2174 165.041 94.679C164.531 94.1365 164.188 93.4993 164.014 92.7674C163.845 92.0371 163.872 91.2918 164.093 90.5314C164.313 89.7768 164.706 89.1351 165.273 88.6064C165.845 88.0794 166.51 87.7264 167.268 87.5473C168.028 87.3625 168.789 87.3808 169.549 87.6023ZM167.545 94.452C168.034 94.5946 168.519 94.6045 168.998 94.4817C169.478 94.3589 169.898 94.1282 170.259 93.7897C170.62 93.4512 170.872 93.0371 171.015 92.5474C171.156 92.0635 171.165 91.5819 171.042 91.1024C170.925 90.6246 170.694 90.2043 170.35 89.8415C170.011 89.4805 169.6 89.2295 169.116 89.0885C168.627 88.9459 168.142 88.936 167.662 89.0588C167.185 89.1759 166.765 89.4036 166.404 89.7422C166.043 90.0807 165.791 90.4948 165.649 90.9844C165.506 91.4741 165.493 91.9578 165.61 92.4356C165.733 92.9151 165.964 93.3354 166.302 93.6965C166.641 94.0575 167.055 94.3094 167.545 94.452ZM180.79 97.4195C181.223 97.908 181.498 98.4632 181.617 99.0853C181.742 99.709 181.708 100.349 181.517 101.006C181.299 101.755 180.933 102.367 180.42 102.842C179.906 103.318 179.291 103.626 178.575 103.767C177.867 103.905 177.118 103.858 176.328 103.629C175.539 103.399 174.883 103.036 174.359 102.539C173.834 102.043 173.483 101.456 173.306 100.78C173.135 100.099 173.159 99.3839 173.377 98.635C173.57 97.9725 173.88 97.4129 174.307 96.956C174.739 96.5008 175.274 96.1784 175.91 95.9888C175.571 95.5651 175.353 95.0921 175.255 94.5699C175.163 94.0494 175.196 93.5184 175.353 92.9769C175.553 92.2914 175.886 91.7384 176.352 91.318C176.826 90.8935 177.385 90.6252 178.03 90.5132C178.681 90.4028 179.372 90.4541 180.104 90.6672C180.835 90.8803 181.443 91.2073 181.927 91.6483C182.417 92.0909 182.745 92.6176 182.911 93.2283C183.084 93.835 183.071 94.4811 182.871 95.1666C182.712 95.7138 182.453 96.1823 182.096 96.5719C181.745 96.9633 181.309 97.2458 180.79 97.4195ZM179.671 92.1534C179.02 91.9638 178.454 91.977 177.972 92.1929C177.496 92.4106 177.168 92.8304 176.986 93.4526C176.805 94.0747 176.857 94.6053 177.141 95.0444C177.432 95.4852 177.902 95.8004 178.553 95.99C179.204 96.1796 179.768 96.1656 180.244 95.948C180.725 95.7321 181.057 95.313 181.238 94.6909C181.419 94.0687 181.364 93.5373 181.074 93.0965C180.79 92.6574 180.322 92.343 179.671 92.1534ZM176.756 102.16C177.246 102.302 177.698 102.337 178.113 102.264C178.536 102.187 178.899 102.002 179.203 101.71C179.512 101.419 179.739 101.026 179.884 100.53C180.102 99.7813 180.049 99.1378 179.724 98.5996C179.406 98.0631 178.872 97.6857 178.123 97.4676C177.374 97.2495 176.721 97.2812 176.164 97.5626C175.607 97.8441 175.22 98.3593 175.002 99.1082C174.785 99.8513 174.836 100.491 175.155 101.028C175.479 101.566 176.013 101.943 176.756 102.16ZM186.85 106.693C186.055 106.462 185.391 106.071 184.857 105.522C184.323 104.973 183.968 104.326 183.791 103.581C183.615 102.836 183.642 102.065 183.874 101.271L185.203 96.7081C185.434 95.9132 185.825 95.2488 186.374 94.7151C186.923 94.1814 187.57 93.8262 188.315 93.6495C189.06 93.4729 189.83 93.5003 190.625 93.7319C191.42 93.9634 192.085 94.3538 192.618 94.9029C193.152 95.4521 193.507 96.0992 193.684 96.8444C193.861 97.5895 193.833 98.3596 193.602 99.1545L192.273 103.717C192.041 104.512 191.651 105.176 191.102 105.71C190.552 106.244 189.905 106.599 189.16 106.776C188.415 106.952 187.645 106.925 186.85 106.693ZM187.28 105.216C187.759 105.355 188.234 105.365 188.706 105.246C189.178 105.128 189.591 104.901 189.944 104.567C190.298 104.232 190.544 103.826 190.684 103.348L192.065 98.6039C192.205 98.1258 192.215 97.6507 192.096 97.1787C191.977 96.7066 191.751 96.2938 191.416 95.9402C191.082 95.5865 190.676 95.3401 190.197 95.2008C189.719 95.0615 189.244 95.0513 188.772 95.17C188.3 95.2887 187.887 95.5153 187.534 95.8498C187.18 96.1842 186.934 96.5905 186.794 97.0686L185.413 101.812C185.273 102.291 185.263 102.766 185.382 103.238C185.5 103.71 185.727 104.123 186.062 104.476C186.396 104.83 186.802 105.076 187.28 105.216ZM201.21 105.486L200.782 106.955L204.86 108.143L204.49 109.413L200.412 108.225L199.838 110.195L198.3 109.747L198.874 107.777L197.578 107.399L197.948 106.129L199.244 106.507L199.672 105.038L198.375 104.66L198.771 103.304L200.067 103.681L201.924 97.3041L206.582 98.6607C206.887 98.7497 207.186 98.8616 207.477 98.9967C208.104 99.2916 208.596 99.6848 208.952 100.176C209.311 100.662 209.529 101.21 209.608 101.82C209.686 102.43 209.628 103.07 209.434 103.738C209.14 104.746 208.631 105.507 207.906 106.021C207.182 106.535 206.301 106.725 205.265 106.592C204.946 106.549 204.634 106.483 204.329 106.394L201.21 105.486ZM203.037 99.2125L201.605 104.129L204.672 105.023C204.966 105.108 205.234 105.155 205.475 105.163C206.065 105.197 206.565 105.046 206.976 104.709C207.388 104.367 207.68 103.902 207.851 103.314C208.019 102.738 208.027 102.184 207.876 101.653C207.726 101.116 207.387 100.701 206.859 100.41C206.661 100.296 206.41 100.195 206.104 100.106L203.037 99.2125Z" fill="white"/>
<path fill-rule="evenodd" clip-rule="evenodd" d="M227.685 34.7861C224.404 33.8304 220.969 35.7154 220.014 38.9964C219.058 42.2773 220.943 45.7117 224.224 46.6673C227.505 47.623 230.939 45.738 231.895 42.4571C232.851 39.1761 230.966 35.7417 227.685 34.7861ZM218.934 38.6818C220.063 34.8043 224.122 32.5766 227.999 33.706C231.877 34.8354 234.104 38.8942 232.975 42.7717C231.846 46.6491 227.787 48.8769 223.909 47.7475C220.032 46.6181 217.804 42.5592 218.934 38.6818ZM227.16 36.5863C227.459 36.6732 227.63 36.9854 227.543 37.2836L227.541 37.2908C227.454 37.5891 227.142 37.7605 226.844 37.6736C226.545 37.5867 226.374 37.2745 226.461 36.9762L226.463 36.969C226.55 36.6708 226.862 36.4994 227.16 36.5863ZM226.531 38.7465C226.829 38.8334 227.001 39.1456 226.914 39.4439L225.446 44.4844C225.359 44.7827 225.047 44.954 224.748 44.8671C224.45 44.7803 224.279 44.4681 224.366 44.1698L225.834 39.1293C225.921 38.831 226.233 38.6596 226.531 38.7465Z" fill="#7B7B86"/>
<path d="M123.253 109.284L122.476 109.058L123.064 107.041L121.047 106.453L121.273 105.677L123.29 106.265L123.876 104.253L124.652 104.479L124.066 106.491L126.078 107.077L125.852 107.853L123.84 107.267L123.253 109.284ZM130.023 107.642C130.446 107.791 130.788 108.019 131.05 108.324C131.316 108.631 131.485 108.988 131.558 109.395C131.635 109.799 131.609 110.221 131.481 110.661C131.342 111.14 131.108 111.536 130.78 111.849C130.455 112.163 130.072 112.372 129.629 112.476C129.191 112.578 128.739 112.561 128.275 112.425C127.902 112.317 127.571 112.146 127.284 111.913C126.997 111.677 126.774 111.396 126.613 111.071C126.455 110.746 126.374 110.394 126.37 110.015L127.349 110.019C127.358 110.392 127.468 110.711 127.678 110.974C127.887 111.238 128.163 111.419 128.504 111.518C128.814 111.609 129.105 111.621 129.376 111.555C129.651 111.49 129.887 111.356 130.083 111.153C130.281 110.947 130.424 110.689 130.515 110.38C130.605 110.07 130.62 109.776 130.559 109.499C130.503 109.219 130.379 108.979 130.185 108.777C129.992 108.576 129.745 108.431 129.446 108.344C129.32 108.307 129.181 108.286 129.03 108.28C128.882 108.275 128.739 108.287 128.601 108.316L128.364 107.439L131.486 105.925L128.169 104.959L128.431 104.061L132.914 105.367L132.651 106.27L130.023 107.642ZM134.693 114.306C134.207 114.165 133.801 113.926 133.475 113.591C133.149 113.255 132.932 112.86 132.824 112.404C132.716 111.949 132.732 111.478 132.874 110.992L133.686 108.204C133.828 107.718 134.066 107.312 134.402 106.986C134.737 106.66 135.133 106.443 135.588 106.335C136.044 106.227 136.514 106.244 137 106.385C137.486 106.527 137.892 106.765 138.218 107.101C138.544 107.437 138.761 107.832 138.869 108.288C138.977 108.743 138.96 109.213 138.819 109.699L138.007 112.487C137.865 112.973 137.627 113.379 137.291 113.705C136.955 114.032 136.56 114.249 136.105 114.357C135.649 114.465 135.179 114.448 134.693 114.306ZM134.956 113.403C135.248 113.488 135.538 113.495 135.827 113.422C136.115 113.35 136.368 113.211 136.584 113.007C136.8 112.802 136.95 112.554 137.035 112.262L137.88 109.363C137.965 109.071 137.971 108.78 137.899 108.492C137.826 108.203 137.688 107.951 137.483 107.735C137.279 107.519 137.031 107.368 136.738 107.283C136.446 107.198 136.156 107.192 135.867 107.264C135.579 107.337 135.327 107.475 135.111 107.68C134.894 107.884 134.744 108.132 134.659 108.425L133.814 111.324C133.729 111.616 133.723 111.906 133.796 112.195C133.868 112.483 134.007 112.735 134.211 112.951C134.415 113.168 134.664 113.318 134.956 113.403ZM142.575 111.297C142.997 111.447 143.34 111.675 143.602 111.98C143.868 112.287 144.037 112.644 144.109 113.051C144.186 113.455 144.161 113.877 144.033 114.317C143.893 114.796 143.659 115.192 143.331 115.505C143.007 115.819 142.623 116.028 142.181 116.132C141.742 116.234 141.291 116.217 140.826 116.081C140.453 115.973 140.123 115.802 139.835 115.569C139.549 115.333 139.325 115.052 139.164 114.727C139.007 114.402 138.926 114.05 138.922 113.671L139.9 113.675C139.91 114.048 140.02 114.367 140.229 114.63C140.439 114.893 140.715 115.075 141.056 115.174C141.366 115.265 141.656 115.277 141.928 115.211C142.203 115.146 142.438 115.012 142.635 114.809C142.832 114.603 142.976 114.345 143.066 114.036C143.157 113.726 143.171 113.432 143.111 113.155C143.055 112.875 142.93 112.635 142.737 112.433C142.543 112.232 142.297 112.087 141.998 112C141.871 111.963 141.732 111.942 141.581 111.936C141.434 111.931 141.291 111.943 141.153 111.972L140.915 111.095L144.037 109.581L140.721 108.615L140.983 107.717L145.466 109.023L145.203 109.926L142.575 111.297ZM151.585 110.639C152.064 110.779 152.467 111.022 152.793 111.369C153.123 111.718 153.343 112.129 153.453 112.604C153.564 113.076 153.547 113.561 153.401 114.061L152.664 116.591C152.512 117.115 152.26 117.552 151.91 117.901C151.562 118.246 151.149 118.475 150.673 118.589C150.202 118.699 149.709 118.68 149.195 118.53C148.776 118.408 148.41 118.21 148.097 117.935C147.788 117.658 147.557 117.324 147.404 116.932L148.287 116.513C148.378 116.78 148.525 117.014 148.73 117.215C148.939 117.417 149.18 117.558 149.455 117.638C149.782 117.733 150.099 117.74 150.406 117.657C150.716 117.576 150.984 117.424 151.208 117.203C151.433 116.983 151.59 116.721 151.678 116.418L151.979 115.383C151.686 115.565 151.365 115.681 151.018 115.733C150.675 115.782 150.337 115.758 150.002 115.661C149.538 115.525 149.147 115.293 148.83 114.964C148.518 114.633 148.309 114.243 148.202 113.796C148.099 113.35 148.116 112.894 148.251 112.429C148.385 111.968 148.626 111.576 148.972 111.253C149.321 110.931 149.728 110.715 150.191 110.606C150.656 110.493 151.12 110.504 151.585 110.639ZM150.36 114.825C150.659 114.913 150.955 114.919 151.248 114.844C151.541 114.768 151.798 114.628 152.019 114.421C152.24 114.214 152.394 113.961 152.481 113.661C152.567 113.366 152.572 113.071 152.497 112.778C152.426 112.486 152.285 112.23 152.074 112.008C151.868 111.787 151.616 111.634 151.321 111.548C151.021 111.461 150.725 111.454 150.432 111.53C150.14 111.601 149.884 111.74 149.663 111.947C149.443 112.154 149.289 112.407 149.201 112.706C149.114 113.006 149.107 113.301 149.178 113.593C149.253 113.886 149.394 114.143 149.601 114.364C149.808 114.584 150.061 114.738 150.36 114.825ZM157.527 115.475C157.992 115.611 158.38 115.844 158.693 116.175C159.009 116.504 159.219 116.892 159.322 117.338C159.428 117.786 159.414 118.242 159.279 118.706C159.144 119.167 158.902 119.559 158.553 119.881C158.206 120.204 157.801 120.422 157.337 120.535C156.873 120.645 156.409 120.632 155.945 120.496C155.466 120.357 155.061 120.113 154.731 119.765C154.405 119.418 154.186 119.008 154.075 118.537C153.965 118.062 153.983 117.574 154.129 117.074L154.865 114.545C155.018 114.021 155.269 113.586 155.618 113.24C155.967 112.892 156.378 112.662 156.85 112.551C157.326 112.438 157.821 112.456 158.335 112.605C158.754 112.727 159.117 112.927 159.426 113.204C159.74 113.479 159.973 113.812 160.126 114.204L159.242 114.623C159.152 114.356 159.003 114.121 158.794 113.919C158.589 113.718 158.349 113.578 158.075 113.498C157.747 113.402 157.429 113.396 157.118 113.477C156.812 113.56 156.546 113.711 156.321 113.932C156.096 114.153 155.94 114.415 155.852 114.718L155.55 115.753C155.844 115.571 156.162 115.456 156.505 115.406C156.852 115.355 157.193 115.378 157.527 115.475ZM156.209 119.588C156.508 119.675 156.804 119.683 157.096 119.612C157.389 119.536 157.646 119.396 157.866 119.189C158.087 118.982 158.241 118.729 158.328 118.429C158.415 118.13 158.421 117.834 158.346 117.541C158.275 117.249 158.136 116.993 157.929 116.772C157.722 116.551 157.469 116.398 157.17 116.31C156.87 116.223 156.574 116.217 156.281 116.292C155.988 116.367 155.731 116.508 155.511 116.715C155.29 116.922 155.136 117.175 155.049 117.474C154.963 117.77 154.956 118.064 155.027 118.356C155.102 118.649 155.243 118.906 155.45 119.126C155.66 119.348 155.913 119.502 156.209 119.588ZM162.478 122.399C161.992 122.258 161.586 122.019 161.26 121.684C160.933 121.348 160.716 120.953 160.608 120.497C160.5 120.042 160.517 119.571 160.659 119.085L161.471 116.297C161.612 115.811 161.851 115.405 162.187 115.079C162.522 114.753 162.918 114.536 163.373 114.428C163.828 114.32 164.299 114.337 164.785 114.478C165.271 114.62 165.677 114.858 166.003 115.194C166.329 115.53 166.546 115.925 166.654 116.381C166.762 116.836 166.745 117.306 166.604 117.792L165.791 120.58C165.65 121.066 165.411 121.472 165.076 121.798C164.74 122.125 164.345 122.342 163.889 122.45C163.434 122.558 162.963 122.541 162.478 122.399ZM162.741 121.496C163.033 121.581 163.323 121.588 163.612 121.515C163.9 121.443 164.152 121.304 164.368 121.1C164.585 120.895 164.735 120.647 164.82 120.355L165.665 117.456C165.75 117.164 165.756 116.873 165.684 116.585C165.611 116.296 165.472 116.044 165.268 115.828C165.064 115.612 164.815 115.461 164.523 115.376C164.231 115.291 163.941 115.285 163.652 115.357C163.364 115.43 163.112 115.568 162.895 115.773C162.679 115.977 162.529 116.225 162.444 116.518L161.599 119.417C161.514 119.709 161.508 119.999 161.58 120.288C161.653 120.576 161.791 120.828 161.996 121.044C162.2 121.261 162.448 121.411 162.741 121.496ZM171.253 121.661L170.991 122.559L173.484 123.285L173.258 124.061L170.765 123.335L170.415 124.539L169.475 124.265L169.825 123.062L169.033 122.831L169.259 122.055L170.052 122.285L170.313 121.388L169.521 121.157L169.762 120.328L170.554 120.559L171.69 116.661L174.536 117.491C174.722 117.545 174.905 117.613 175.083 117.696C175.466 117.876 175.767 118.116 175.985 118.417C176.204 118.713 176.337 119.048 176.385 119.421C176.433 119.794 176.398 120.185 176.279 120.593C176.099 121.209 175.788 121.674 175.345 121.988C174.902 122.302 174.364 122.419 173.731 122.337C173.536 122.311 173.346 122.271 173.159 122.217L171.253 121.661ZM172.37 117.828L171.494 120.832L173.369 121.378C173.549 121.431 173.712 121.459 173.86 121.464C174.22 121.485 174.526 121.393 174.777 121.187C175.029 120.978 175.207 120.693 175.311 120.334C175.414 119.982 175.419 119.644 175.327 119.319C175.235 118.991 175.028 118.738 174.706 118.56C174.585 118.49 174.431 118.428 174.244 118.374L172.37 117.828Z" fill="#98E012"/>
<path d="M111.882 102.724C111.914 102.783 111.968 102.827 112.032 102.845L113.282 103.209C113.38 103.238 113.436 103.34 113.407 103.437L112.269 107.346C112.231 107.477 112.306 107.614 112.436 107.652L114.869 108.361C115 108.399 115.137 108.324 115.175 108.193L116.314 104.284C116.342 104.186 116.444 104.13 116.542 104.159L117.795 104.524C117.925 104.564 118.063 104.492 118.104 104.362C118.124 104.297 118.117 104.226 118.083 104.167L116.041 100.446C116.01 100.389 115.958 100.346 115.895 100.327C115.832 100.308 115.763 100.316 115.705 100.348L111.984 102.391C111.864 102.454 111.819 102.604 111.882 102.724Z" fill="#98E012"/>
<rect y="122.74" width="114" height="124" rx="12" transform="rotate(-17.2181 0 122.74)" fill="#2D2D34"/>
<path d="M21.9549 151.72C21.1487 151.97 20.3996 152.005 19.7075 151.826C19.0193 151.646 18.4242 151.28 17.9223 150.728C17.4191 150.172 17.0356 149.468 16.7715 148.615C16.5075 147.763 16.4263 146.968 16.5281 146.229C16.6286 145.486 16.9117 144.845 17.3773 144.307C17.8468 143.768 18.4846 143.373 19.2908 143.124C20.097 142.874 20.8442 142.839 21.5324 143.019C22.2244 143.199 22.822 143.566 23.3252 144.122C23.8271 144.674 24.2101 145.376 24.4741 146.228C24.7382 147.08 24.8199 147.878 24.7194 148.621C24.6176 149.36 24.332 150 23.8626 150.539C23.3969 151.077 22.761 151.47 21.9549 151.72ZM21.6759 150.739C22.2719 150.554 22.7317 150.261 23.0553 149.859C23.3815 149.452 23.5708 148.969 23.6232 148.408C23.6744 147.844 23.597 147.229 23.3909 146.564C23.1826 145.892 22.8963 145.34 22.5323 144.908C22.167 144.473 21.7341 144.184 21.2336 144.042C20.7319 143.896 20.1773 143.917 19.5698 144.105C18.9699 144.291 18.5075 144.589 18.1825 145C17.8601 145.405 17.6739 145.892 17.6239 146.461C17.5765 147.024 17.657 147.642 17.8654 148.314C18.0714 148.979 18.3558 149.525 18.7187 149.953C19.0816 150.381 19.5133 150.666 20.0138 150.808C20.5182 150.949 21.0722 150.926 21.6759 150.739ZM29.4979 149.389C28.6191 149.661 27.8449 149.596 27.1754 149.192C26.5096 148.787 25.9912 148.059 25.62 147.01C25.5913 146.931 25.5503 146.806 25.497 146.634C25.3467 146.149 25.2252 145.642 25.1327 145.114C25.0428 144.58 25.009 144.147 25.0313 143.813C25.048 143.502 25.1132 143.2 25.227 142.905C25.3435 142.605 25.4959 142.34 25.6842 142.11C25.852 141.894 26.0592 141.698 26.3059 141.521C26.5564 141.343 26.8121 141.189 27.073 141.057C27.3365 140.921 27.6701 140.761 28.0738 140.578C28.4775 140.394 28.8125 140.232 29.0786 140.09L29.4659 140.975C29.2879 141.077 28.9888 141.22 28.5687 141.404C28.0322 141.646 27.5923 141.862 27.2492 142.052C26.9099 142.241 26.641 142.454 26.4424 142.691C26.2103 142.956 26.0666 143.289 26.0112 143.692C25.9558 144.094 25.982 144.53 26.0897 144.999C26.21 144.577 26.4296 144.218 26.7483 143.922C27.0671 143.626 27.4481 143.41 27.8913 143.272C28.4339 143.104 28.9473 143.086 29.4316 143.216C29.916 143.346 30.3375 143.605 30.6962 143.992C31.0537 144.376 31.3218 144.856 31.5006 145.433C31.6877 146.037 31.7306 146.607 31.6293 147.146C31.5307 147.679 31.2969 148.141 30.9281 148.531C30.563 148.921 30.0863 149.207 29.4979 149.389ZM29.2378 148.408C29.8262 148.226 30.2203 147.903 30.4199 147.439C30.6233 146.974 30.6274 146.426 30.432 145.795C30.3018 145.375 30.1167 145.035 29.8768 144.774C29.6357 144.51 29.3521 144.338 29.0261 144.259C28.7001 144.18 28.3461 144.199 27.964 144.318C27.3833 144.498 26.9906 144.818 26.7859 145.28C26.5839 145.736 26.5824 146.285 26.7813 146.927C26.9814 147.573 27.2938 148.026 27.7184 148.288C28.1468 148.549 28.6533 148.589 29.2378 148.408ZM33.946 147.816L32.2832 142.471L31.4235 142.737L31.1624 141.894L33.048 141.31L33.7424 143.551L35.0777 143.137C35.5401 142.994 35.8923 142.908 36.1346 142.879C36.6697 142.822 37.1272 142.906 37.507 143.132C37.8857 143.354 38.1608 143.742 38.3325 144.296C38.4936 144.815 38.4901 145.277 38.3221 145.681C38.1529 146.081 37.8512 146.405 37.4171 146.652C37.1929 146.78 36.8402 146.919 36.3588 147.068L33.946 147.816ZM36.1149 146.22C36.4549 146.115 36.7019 146.013 36.8558 145.915C37.0546 145.787 37.1975 145.613 37.2844 145.393C37.3751 145.172 37.3749 144.915 37.2837 144.621C37.1902 144.319 37.0417 144.103 36.8382 143.974C36.6374 143.839 36.402 143.782 36.1321 143.803C35.9356 143.818 35.6961 143.869 35.4133 143.957L34.0035 144.393L34.705 146.657L36.1149 146.22ZM40.0824 142.836C40.3246 143.469 40.66 143.909 41.0887 144.158C41.5212 144.405 42.0221 144.44 42.5914 144.264C42.9963 144.138 43.3208 143.935 43.5646 143.654C43.8122 143.372 43.9675 143.029 44.0305 142.624L45.1154 142.658C45.0428 143.276 44.8126 143.81 44.4247 144.261C44.0368 144.712 43.541 145.031 42.9374 145.218C42.3337 145.405 41.7612 145.436 41.2198 145.31C40.6822 145.184 40.2116 144.915 39.8079 144.504C39.408 144.092 39.1091 143.567 38.9114 142.929C38.7042 142.26 38.6459 141.64 38.7365 141.067C38.8297 140.49 39.0584 139.998 39.4226 139.592C39.7894 139.181 40.2708 138.883 40.8668 138.699C41.459 138.515 42.0105 138.491 42.5213 138.626C43.0348 138.755 43.4831 139.033 43.8662 139.459C44.2482 139.881 44.5446 140.432 44.7554 141.112C44.7897 141.223 44.8138 141.307 44.8278 141.366L40.0824 142.836ZM41.1854 139.605C40.6313 139.777 40.2418 140.067 40.0168 140.476C39.7918 140.885 39.7347 141.397 39.8456 142.011L43.5135 140.875C43.0121 139.703 42.2361 139.279 41.1854 139.605ZM47.7861 143.527L46.8004 143.832L44.8823 137.643L45.7591 137.371L49.5972 141.445L50.4586 135.915L51.3355 135.643L53.2536 141.832L52.2679 142.138L51.0086 138.075L50.2964 142.749L49.7576 142.916L46.5269 139.463L47.7861 143.527ZM58.0259 133.381C58.5876 133.207 59.1204 133.197 59.6245 133.351C60.1324 133.503 60.5741 133.793 60.9497 134.221C61.3278 134.644 61.6128 135.165 61.8046 135.784C61.9976 136.407 62.0584 137.002 61.9869 137.568C61.918 138.13 61.7178 138.619 61.3864 139.036C61.0575 139.448 60.6104 139.741 60.0449 139.916C59.6666 140.034 59.3052 140.076 58.9604 140.045C58.6145 140.01 58.2915 139.907 57.9915 139.736L59.0216 143.06L57.9958 143.378L55.2251 134.437L56.1364 134.155L56.3513 134.849C56.4979 134.497 56.7105 134.197 56.9891 133.947C57.2677 133.698 57.6133 133.509 58.0259 133.381ZM59.6293 139.021C60.0229 138.899 60.3239 138.695 60.5324 138.408C60.7447 138.121 60.8633 137.78 60.8881 137.387C60.9167 136.993 60.8612 136.571 60.7214 136.12C60.5829 135.673 60.391 135.297 60.1457 134.992C59.9031 134.682 59.6109 134.469 59.2692 134.353C58.9314 134.235 58.56 134.239 58.155 134.365C57.5704 134.546 57.1923 134.894 57.0207 135.407C56.8491 135.921 56.8734 136.534 57.0937 137.244C57.3139 137.955 57.6406 138.475 58.0739 138.806C58.511 139.135 59.0295 139.207 59.6293 139.021ZM64.0218 138.495L62.098 132.308L63.1238 131.99L63.8183 134.231L64.7639 133.938C65.2262 133.794 65.5785 133.708 65.8208 133.679C66.9581 133.565 67.6907 134.038 68.0187 135.096C68.1797 135.616 68.1762 136.077 68.0082 136.481C67.8391 136.881 67.5374 137.205 67.1032 137.453C66.8791 137.581 66.5263 137.719 66.0449 137.868L64.0218 138.495ZM70.3604 136.531L69.3403 136.847L67.4222 130.658L68.4423 130.342L70.3604 136.531ZM65.801 137.021C66.1411 136.915 66.3881 136.814 66.542 136.716C66.7408 136.587 66.8837 136.413 66.9706 136.193C67.0613 135.973 67.0611 135.715 66.9699 135.421C66.8764 135.119 66.7279 134.903 66.5244 134.774C66.3235 134.639 66.0882 134.582 65.8182 134.603C65.6218 134.618 65.3822 134.669 65.0995 134.757L64.0794 135.073L64.7809 137.337L65.801 137.021ZM72.9837 135.718L71.9635 136.034L70.0454 129.845L71.0655 129.529L71.8737 132.136L75.1289 131.127L74.3208 128.52L75.341 128.204L77.2591 134.393L76.239 134.709L75.4291 132.096L72.1738 133.105L72.9837 135.718ZM79.8961 133.576L78.8588 133.898L76.9464 127.706L77.978 127.386L78.9015 130.367L80.5742 126.582L81.8981 126.172L80.1234 130.114L84.1371 132.262L82.7101 132.704L78.9726 130.596L79.8961 133.576ZM87.8677 125.459C88.0024 125.609 88.1163 125.788 88.2093 125.993C88.3012 126.195 88.391 126.438 88.4786 126.72L89.665 130.549L88.7595 130.829L88.4611 129.866C88.2027 130.776 87.5557 131.391 86.5203 131.712C86.0733 131.85 85.6657 131.886 85.2977 131.82C84.9285 131.751 84.6204 131.601 84.3735 131.372C84.1266 131.143 83.9505 130.858 83.8451 130.518C83.5621 129.605 83.8807 128.842 84.8008 128.231C85.074 128.058 85.394 127.881 85.761 127.701C86.1279 127.52 86.5695 127.31 87.0858 127.07L87.4366 126.905C87.2662 126.409 87.0264 126.082 86.7173 125.922C86.407 125.758 85.9882 125.758 85.461 125.922C85.0712 126.043 84.7648 126.236 84.5415 126.502C84.3209 126.763 84.2139 127.093 84.2206 127.493L83.1614 127.501C83.1388 126.901 83.2965 126.383 83.6347 125.947C83.9756 125.507 84.4899 125.18 85.1776 124.967C85.7469 124.79 86.2622 124.744 86.7235 124.827C87.1874 124.905 87.5688 125.116 87.8677 125.459ZM86.4104 130.81C86.7657 130.7 87.0595 130.54 87.2917 130.329C87.5227 130.115 87.6891 129.875 87.7909 129.609C87.8916 129.339 87.9259 129.065 87.8938 128.786C87.8918 128.644 87.8716 128.491 87.8333 128.327C87.7989 128.162 87.7528 127.98 87.6951 127.78L87.4249 127.901C86.9087 128.141 86.5125 128.328 86.2363 128.464C85.9639 128.599 85.72 128.737 85.5044 128.879C85.2386 129.062 85.0427 129.261 84.9167 129.476C84.7945 129.69 84.7748 129.931 84.8577 130.198C84.9134 130.378 85.0088 130.53 85.1441 130.656C85.2781 130.778 85.453 130.855 85.6686 130.889C85.8842 130.923 86.1315 130.896 86.4104 130.81Z" fill="white"/>
<path d="M36.1523 201.007L42.0238 199.188L42.4767 200.649L34.2497 203.199L33.8321 201.82L37.7935 195.175C38.1026 194.652 38.2862 194.181 38.3445 193.761C38.4028 193.34 38.3671 192.921 38.2374 192.503C38.0918 192.033 37.8506 191.64 37.5138 191.323C37.1752 191.001 36.7822 190.787 36.3347 190.68C35.8872 190.574 35.4284 190.594 34.9585 190.739C34.4771 190.889 34.0779 191.141 33.761 191.497C33.4423 191.847 33.2316 192.251 33.1289 192.71C33.0301 193.162 33.0528 193.61 33.1971 194.055L31.6325 194.54C31.3945 193.772 31.3599 193.032 31.5288 192.321C31.7016 191.601 32.0479 190.976 32.5678 190.444C33.0917 189.905 33.7462 189.513 34.5314 189.27C35.2879 189.036 36.0278 189.001 36.7511 189.166C37.4727 189.326 38.1033 189.658 38.6429 190.163C39.1865 190.66 39.5747 191.284 39.8073 192.035C39.9707 192.562 40.0449 193.045 40.0299 193.483C40.0189 193.914 39.9331 194.336 39.7724 194.75C39.61 195.159 39.3626 195.637 39.0303 196.186L36.1523 201.007ZM52.2361 197.917C51.4452 198.162 50.6757 198.202 49.9277 198.039C49.1796 197.875 48.5265 197.531 47.9683 197.006C47.4101 196.482 47.0085 195.824 46.7634 195.034L45.3567 190.494C45.1116 189.704 45.071 188.934 45.235 188.186C45.3989 187.438 45.743 186.785 46.2672 186.227C46.7915 185.669 47.4491 185.267 48.24 185.022C49.0309 184.777 49.8003 184.736 50.5484 184.9C51.2964 185.064 51.9495 185.408 52.5077 185.932C53.0659 186.457 53.4676 187.114 53.7127 187.905L55.1193 192.444C55.3644 193.235 55.405 194.004 55.2411 194.752C55.0772 195.5 54.7331 196.154 54.2088 196.712C53.6846 197.27 53.027 197.672 52.2361 197.917ZM51.7805 196.447C52.2562 196.299 52.6582 196.046 52.9866 195.687C53.3149 195.327 53.5345 194.911 53.6451 194.437C53.7558 193.963 53.7374 193.488 53.59 193.012L52.1274 188.293C51.98 187.817 51.7266 187.415 51.3673 187.087C51.008 186.758 50.5914 186.539 50.1174 186.428C49.6434 186.317 49.1685 186.336 48.6929 186.483C48.2172 186.631 47.8152 186.884 47.4868 187.243C47.1584 187.603 46.9389 188.019 46.8283 188.493C46.7176 188.967 46.736 189.442 46.8834 189.918L48.346 194.637C48.4934 195.113 48.7468 195.515 49.1061 195.843C49.4654 196.172 49.882 196.391 50.356 196.502C50.83 196.613 51.3048 196.594 51.7805 196.447ZM60.2825 186.698C60.9941 186.522 61.6668 186.524 62.3006 186.704C62.9402 186.883 63.4929 187.217 63.9589 187.707C64.4288 188.19 64.7747 188.789 64.9967 189.506C65.2383 190.285 65.2764 191.036 65.1111 191.76C64.9516 192.481 64.6165 193.113 64.1058 193.654C63.5992 194.188 62.9676 194.572 62.2111 194.807C61.6036 194.995 60.9987 195.06 60.3964 195.002C59.7924 194.937 59.2336 194.756 58.7199 194.456C58.212 194.155 57.7842 193.748 57.4364 193.234L58.7759 192.357C59.1259 192.858 59.5628 193.193 60.0868 193.364C60.6107 193.534 61.1507 193.534 61.7066 193.361C62.2109 193.205 62.6185 192.959 62.9293 192.624C63.2458 192.288 63.4468 191.892 63.5323 191.439C63.6161 190.979 63.5798 190.497 63.4235 189.993C63.2672 189.489 63.0227 189.075 62.6899 188.751C62.361 188.419 61.9737 188.203 61.528 188.102C61.0822 188.002 60.6158 188.027 60.1286 188.178C59.9223 188.242 59.7134 188.338 59.5019 188.466C59.2962 188.593 59.1118 188.738 58.949 188.902L57.834 187.919L60.7303 183.035L55.3316 184.709L54.8787 183.247L62.1773 180.985L62.6329 182.455L60.2825 186.698ZM69.9537 183.701C70.6653 183.525 71.3381 183.526 71.9719 183.707C72.6114 183.886 73.1642 184.22 73.6301 184.71C74.1 185.193 74.446 185.792 74.668 186.508C74.9095 187.288 74.9477 188.039 74.7824 188.763C74.6228 189.484 74.2877 190.116 73.7771 190.657C73.2704 191.191 72.6388 191.575 71.8823 191.81C71.2748 191.998 70.67 192.063 70.0677 192.004C69.4637 191.94 68.9048 191.759 68.3912 191.459C67.8833 191.158 67.4554 190.751 67.1077 190.236L68.4472 189.36C68.7971 189.86 69.2341 190.196 69.758 190.367C70.282 190.537 70.8219 190.536 71.3779 190.364C71.8822 190.208 72.2897 189.962 72.6005 189.627C72.917 189.29 73.118 188.895 73.2036 188.442C73.2873 187.982 73.2511 187.5 73.0948 186.996C72.9385 186.492 72.6939 186.077 72.3611 185.753C72.0323 185.422 71.6449 185.206 71.1992 185.105C70.7535 185.005 70.287 185.03 69.7999 185.181C69.5935 185.245 69.3846 185.341 69.1732 185.469C68.9674 185.596 68.7831 185.741 68.6202 185.905L67.5053 184.922L70.4016 180.038L65.0029 181.711L64.55 180.25L71.8486 177.988L72.3041 179.458L69.9537 183.701ZM83.067 179.637C83.7786 179.461 84.4513 179.463 85.0852 179.643C85.7247 179.822 86.2775 180.156 86.7434 180.646C87.2133 181.129 87.5592 181.728 87.7813 182.445C88.0228 183.224 88.0609 183.975 87.8956 184.699C87.7361 185.42 87.401 186.052 86.8904 186.593C86.3837 187.127 85.7521 187.511 84.9956 187.746C84.3881 187.934 83.7832 187.999 83.181 187.941C82.5769 187.877 82.0181 187.695 81.5045 187.396C80.9966 187.094 80.5687 186.687 80.221 186.173L81.5604 185.296C81.9104 185.797 82.3473 186.132 82.8713 186.303C83.3953 186.474 83.9352 186.473 84.4911 186.3C84.9955 186.144 85.403 185.898 85.7138 185.563C86.0303 185.227 86.2313 184.831 86.3168 184.378C86.4006 183.918 86.3644 183.437 86.2081 182.932C86.0518 182.428 85.8072 182.014 85.4744 181.69C85.1455 181.358 84.7582 181.142 84.3125 181.042C83.8667 180.941 83.4003 180.966 82.9131 181.117C82.7068 181.181 82.4979 181.277 82.2864 181.406C82.0807 181.532 81.8964 181.677 81.7335 181.841L80.6185 180.858L83.5149 175.975L78.1162 177.648L77.6633 176.186L84.9618 173.924L85.4174 175.394L83.067 179.637ZM95.4439 176.98C96.0742 177.149 96.6104 177.46 97.0524 177.913C97.5002 178.365 97.8253 178.917 98.0278 179.571C98.2587 180.316 98.291 181.028 98.1247 181.708C97.9584 182.388 97.6156 182.984 97.0961 183.497C96.5805 184.002 95.9302 184.376 95.145 184.619C94.3598 184.863 93.6118 184.922 92.9009 184.797C92.19 184.671 91.5738 184.376 91.0523 183.909C90.5348 183.435 90.1606 182.825 89.9297 182.08C89.7255 181.421 89.6754 180.784 89.7796 180.167C89.8895 179.549 90.1577 178.985 90.5841 178.476C90.0677 178.31 89.6247 178.035 89.2551 177.654C88.8913 177.27 88.6259 176.809 88.459 176.27C88.2476 175.588 88.2205 174.943 88.3777 174.336C88.5388 173.72 88.8575 173.188 89.3339 172.739C89.816 172.288 90.421 171.95 91.1489 171.724C91.8767 171.499 92.5641 171.437 93.211 171.538C93.8636 171.637 94.4275 171.896 94.9025 172.314C95.3815 172.724 95.7267 173.271 95.9381 173.953C96.1068 174.497 96.1496 175.03 96.0664 175.552C95.9889 176.073 95.7814 176.548 95.4439 176.98ZM91.6071 173.203C90.9595 173.404 90.4943 173.727 90.2116 174.173C89.9345 174.616 89.8919 175.148 90.0837 175.767C90.2756 176.386 90.6112 176.8 91.0907 177.009C91.5759 177.217 92.1423 177.221 92.79 177.02C93.4376 176.819 93.8999 176.497 94.1769 176.053C94.4597 175.607 94.5051 175.075 94.3133 174.456C94.1215 173.837 93.783 173.424 93.2978 173.216C92.8183 173.007 92.2547 173.002 91.6071 173.203ZM94.6921 183.158C95.1792 183.007 95.5758 182.787 95.8818 182.497C96.1918 182.2 96.3929 181.846 96.4851 181.434C96.5831 181.02 96.5557 180.567 96.403 180.074C96.1721 179.329 95.773 178.822 95.2056 178.552C94.6439 178.28 93.9906 178.259 93.2455 178.49C92.5005 178.721 91.9732 179.107 91.6637 179.649C91.3543 180.191 91.315 180.835 91.5459 181.58C91.775 182.319 92.1704 182.824 92.732 183.096C93.2994 183.367 93.9528 183.387 94.6921 183.158ZM102.896 173.492C103.608 173.316 104.281 173.318 104.915 173.498C105.554 173.677 106.107 174.011 106.573 174.501C107.043 174.984 107.389 175.583 107.611 176.3C107.852 177.079 107.89 177.83 107.725 178.554C107.565 179.275 107.23 179.907 106.72 180.448C106.213 180.982 105.582 181.366 104.825 181.601C104.218 181.789 103.613 181.854 103.01 181.796C102.406 181.732 101.848 181.55 101.334 181.25C100.826 180.949 100.398 180.542 100.05 180.028L101.39 179.151C101.74 179.652 102.177 179.987 102.701 180.158C103.225 180.328 103.765 180.328 104.321 180.155C104.825 179.999 105.232 179.753 105.543 179.418C105.86 179.082 106.061 178.686 106.146 178.233C106.23 177.773 106.194 177.291 106.037 176.787C105.881 176.283 105.637 175.869 105.304 175.545C104.975 175.213 104.588 174.997 104.142 174.897C103.696 174.796 103.23 174.821 102.743 174.972C102.536 175.036 102.327 175.132 102.116 175.261C101.91 175.387 101.726 175.532 101.563 175.696L100.448 174.713L103.344 169.83L97.9456 171.503L97.4927 170.041L104.791 167.779L105.247 169.249L102.896 173.492ZM115.836 172.79L116.289 174.251L120.346 172.994L120.738 174.257L116.68 175.515L117.288 177.475L115.758 177.949L115.15 175.989L113.861 176.389L113.469 175.125L114.758 174.725L114.306 173.264L113.016 173.663L112.598 172.314L113.887 171.914L111.921 165.57L116.555 164.134C116.859 164.04 117.169 163.968 117.487 163.92C118.173 163.821 118.8 163.878 119.368 164.091C119.935 164.299 120.419 164.635 120.821 165.101C121.223 165.567 121.527 166.133 121.733 166.797C122.044 167.8 122.039 168.716 121.718 169.544C121.396 170.372 120.767 171.016 119.829 171.477C119.54 171.617 119.243 171.734 118.939 171.828L115.836 172.79ZM113.902 166.548L115.418 171.44L118.469 170.494C118.762 170.404 119.011 170.295 119.216 170.168C119.728 169.872 120.062 169.47 120.218 168.963C120.374 168.45 120.361 167.901 120.179 167.317C120.002 166.743 119.703 166.277 119.284 165.917C118.863 165.551 118.352 165.392 117.751 165.44C117.523 165.454 117.257 165.509 116.953 165.603L113.902 166.548Z" fill="white"/>
<path fill-rule="evenodd" clip-rule="evenodd" d="M98.4916 99.35C95.2275 100.361 93.4014 103.828 94.413 107.092C95.4245 110.356 98.8906 112.182 102.155 111.17C105.419 110.159 107.245 106.693 106.233 103.429C105.222 100.164 101.756 98.3384 98.4916 99.35ZM93.3384 107.425C92.1429 103.567 94.301 99.4708 98.1586 98.2754C102.016 97.0799 106.113 99.238 107.308 103.096C108.503 106.953 106.345 111.049 102.488 112.245C98.6302 113.44 94.5339 111.282 93.3384 107.425ZM99.0467 101.141C99.3434 101.049 99.6585 101.215 99.7504 101.512L99.7527 101.519C99.8446 101.816 99.6786 102.131 99.3819 102.223C99.0851 102.315 98.77 102.149 98.6781 101.852L98.6759 101.845C98.5839 101.548 98.7499 101.233 99.0467 101.141ZM99.7127 103.29C100.009 103.198 100.325 103.364 100.416 103.661L101.971 108.676C102.062 108.972 101.896 109.287 101.6 109.379C101.303 109.471 100.988 109.305 100.896 109.009L99.3419 103.994C99.2499 103.697 99.4159 103.382 99.7127 103.29Z" fill="#7B7B86"/>
<path d="M52.4373 219.078L51.6651 219.317L51.0431 217.311L49.0363 217.933L48.797 217.16L50.8038 216.538L50.1835 214.537L50.9558 214.297L51.5761 216.299L53.5777 215.679L53.817 216.451L51.8154 217.071L52.4373 219.078ZM57.1804 213.975C57.6153 213.867 58.0264 213.868 58.4138 213.979C58.8046 214.088 59.1424 214.292 59.4271 214.592C59.7143 214.886 59.9257 215.253 60.0614 215.691C60.209 216.167 60.2323 216.626 60.1313 217.068C60.0338 217.509 59.829 217.895 59.5169 218.226C59.2073 218.552 58.8214 218.787 58.359 218.93C57.9878 219.045 57.6181 219.085 57.2501 219.049C56.881 219.01 56.5395 218.899 56.2256 218.716C55.9152 218.532 55.6537 218.283 55.4412 217.969L56.2598 217.433C56.4736 217.739 56.7407 217.944 57.0609 218.048C57.3811 218.153 57.711 218.152 58.0508 218.047C58.359 217.951 58.608 217.801 58.7979 217.596C58.9913 217.391 59.1142 217.149 59.1665 216.872C59.2177 216.591 59.1955 216.297 59.1 215.988C59.0045 215.68 58.855 215.427 58.6516 215.229C58.4507 215.027 58.214 214.895 57.9416 214.833C57.6692 214.772 57.3841 214.787 57.0864 214.879C56.9603 214.918 56.8327 214.977 56.7034 215.056C56.5777 215.133 56.4651 215.222 56.3655 215.322L55.6842 214.721L57.4541 211.737L54.1549 212.759L53.8782 211.866L58.3384 210.484L58.6168 211.382L57.1804 213.975ZM63.0995 216.315L66.6876 215.203L66.9644 216.096L61.9368 217.654L61.6815 216.812L64.1024 212.751C64.2913 212.432 64.4035 212.143 64.4391 211.887C64.4747 211.63 64.4529 211.374 64.3737 211.118C64.2847 210.831 64.1373 210.591 63.9315 210.397C63.7246 210.2 63.4844 210.069 63.2109 210.004C62.9374 209.939 62.6571 209.951 62.3699 210.04C62.0757 210.132 61.8317 210.286 61.6381 210.503C61.4433 210.717 61.3146 210.964 61.2518 211.245C61.1914 211.521 61.2053 211.795 61.2935 212.067L60.3373 212.363C60.1919 211.894 60.1708 211.442 60.274 211.007C60.3796 210.567 60.5912 210.185 60.9089 209.86C61.2291 209.53 61.629 209.291 62.1089 209.143C62.5712 208.999 63.0234 208.978 63.4654 209.079C63.9064 209.177 64.2917 209.38 64.6215 209.688C64.9537 209.992 65.1909 210.374 65.3331 210.832C65.4329 211.155 65.4783 211.45 65.4691 211.717C65.4623 211.98 65.4099 212.238 65.3117 212.492C65.2125 212.741 65.0613 213.034 64.8582 213.369L63.0995 216.315ZM70.825 215.078C70.3416 215.228 69.8714 215.253 69.4143 215.153C68.9571 215.053 68.558 214.842 68.2169 214.522C67.8757 214.202 67.6303 213.8 67.4805 213.317L66.6209 210.543C66.4711 210.059 66.4463 209.589 66.5465 209.132C66.6467 208.675 66.8569 208.276 67.1773 207.935C67.4977 207.593 67.8996 207.348 68.3829 207.198C68.8662 207.048 69.3364 207.024 69.7936 207.124C70.2507 207.224 70.6498 207.434 70.991 207.755C71.3321 208.075 71.5775 208.477 71.7273 208.96L72.5869 211.734C72.7367 212.217 72.7615 212.688 72.6613 213.145C72.5612 213.602 72.3509 214.001 72.0305 214.342C71.7101 214.683 71.3083 214.929 70.825 215.078ZM70.5466 214.18C70.8373 214.09 71.0829 213.935 71.2836 213.716C71.4843 213.496 71.6184 213.241 71.686 212.952C71.7536 212.662 71.7424 212.372 71.6523 212.081L70.7585 209.197C70.6684 208.906 70.5136 208.661 70.294 208.46C70.0745 208.259 69.8199 208.125 69.5302 208.058C69.2405 207.99 68.9503 208.001 68.6596 208.091C68.369 208.181 68.1233 208.336 67.9226 208.556C67.7219 208.775 67.5878 209.03 67.5202 209.32C67.4526 209.609 67.4638 209.9 67.5539 210.19L68.4477 213.074C68.5378 213.365 68.6926 213.611 68.9122 213.811C69.1317 214.012 69.3864 214.146 69.676 214.214C69.9657 214.281 70.2559 214.27 70.5466 214.18ZM81.1168 211.716L80.1712 212.009L79.7398 210.617L76.2619 211.695L75.9868 210.807L76.8444 204.749L77.9056 204.42L77.048 210.478L79.4646 209.729L78.8053 207.602L79.7509 207.309L80.4103 209.436L81.1983 209.192L81.4734 210.08L80.6854 210.324L81.1168 211.716ZM84.5705 210.646L83.5619 210.959L84.2172 203.449L80.7814 204.513L80.503 203.615L84.9422 202.239L85.2206 203.138L84.5705 210.646ZM89.4916 203.962C89.9265 203.854 90.3376 203.855 90.725 203.965C91.1158 204.075 91.4536 204.279 91.7383 204.578C92.0255 204.873 92.2369 205.24 92.3726 205.677C92.5202 206.154 92.5435 206.613 92.4425 207.055C92.345 207.496 92.1402 207.882 91.8281 208.213C91.5185 208.539 91.1325 208.774 90.6702 208.917C90.299 209.032 89.9293 209.072 89.5613 209.036C89.1922 208.997 88.8506 208.886 88.5368 208.703C88.2264 208.519 87.9649 208.27 87.7524 207.956L88.571 207.42C88.7848 207.726 89.0518 207.931 89.372 208.035C89.6922 208.139 90.0222 208.139 90.3619 208.034C90.6701 207.938 90.9192 207.788 91.1091 207.583C91.3025 207.377 91.4254 207.136 91.4777 206.859C91.5288 206.578 91.5067 206.284 91.4112 205.975C91.3157 205.667 91.1662 205.414 90.9628 205.216C90.7618 205.013 90.5252 204.881 90.2528 204.82C89.9804 204.758 89.6953 204.774 89.3976 204.866C89.2715 204.905 89.1439 204.964 89.0146 205.042C88.8889 205.12 88.7762 205.208 88.6767 205.308L87.9953 204.708L89.7653 201.723L86.4661 202.746L86.1894 201.853L90.6496 200.471L90.928 201.369L89.4916 203.962ZM97.399 203.532L97.6758 204.425L100.155 203.657L100.395 204.429L97.9151 205.198L98.2863 206.396L97.3512 206.685L96.98 205.488L96.192 205.732L95.9527 204.959L96.7407 204.715L96.4639 203.822L95.6759 204.066L95.4203 203.242L96.2083 202.997L95.0068 199.12L97.8385 198.243C98.0241 198.185 98.214 198.142 98.4084 198.112C98.8272 198.052 99.2103 198.086 99.5578 198.217C99.9042 198.343 100.2 198.549 100.446 198.834C100.691 199.119 100.877 199.464 101.003 199.87C101.193 200.483 101.19 201.043 100.994 201.549C100.797 202.055 100.413 202.449 99.8394 202.73C99.6625 202.816 99.4812 202.887 99.2956 202.945L97.399 203.532ZM96.2171 199.718L97.1434 202.708L99.0084 202.13C99.1871 202.074 99.3392 202.008 99.465 201.931C99.7773 201.749 99.9814 201.504 100.077 201.194C100.172 200.88 100.164 200.545 100.053 200.188C99.9449 199.838 99.7625 199.552 99.5062 199.332C99.2489 199.109 98.9367 199.012 98.5695 199.041C98.4302 199.05 98.2677 199.083 98.0821 199.14L96.2171 199.718ZM108.96 204.85C108.404 204.504 107.886 204.083 107.406 203.587C106.929 203.09 106.512 202.541 106.153 201.942C105.797 201.339 105.523 200.713 105.33 200.067C105.124 199.425 104.997 198.756 104.95 198.06C104.906 197.36 104.94 196.67 105.052 195.99C105.167 195.309 105.356 194.669 105.62 194.069L106.476 194.38C106.094 195.289 105.882 196.199 105.842 197.11C105.801 198.017 105.916 198.914 106.187 199.801C106.464 200.683 106.877 201.491 107.428 202.227C107.981 202.958 108.668 203.583 109.489 204.104L108.96 204.85ZM111.284 201.383L114.872 200.271L115.149 201.164L110.121 202.722L109.866 201.88L112.287 197.819C112.476 197.499 112.588 197.211 112.624 196.954C112.659 196.698 112.638 196.442 112.558 196.186C112.469 195.899 112.322 195.658 112.116 195.465C111.909 195.268 111.669 195.137 111.396 195.072C111.122 195.007 110.842 195.019 110.554 195.108C110.26 195.199 110.016 195.354 109.823 195.571C109.628 195.785 109.499 196.032 109.436 196.313C109.376 196.589 109.39 196.863 109.478 197.135L108.522 197.431C108.377 196.962 108.355 196.509 108.459 196.074C108.564 195.635 108.776 195.253 109.094 194.928C109.414 194.598 109.814 194.359 110.293 194.21C110.756 194.067 111.208 194.046 111.65 194.147C112.091 194.244 112.476 194.447 112.806 194.756C113.138 195.06 113.375 195.441 113.518 195.9C113.618 196.222 113.663 196.517 113.654 196.785C113.647 197.048 113.595 197.306 113.496 197.559C113.397 197.809 113.246 198.101 113.043 198.437L111.284 201.383ZM117.35 195.329C117.785 195.221 118.196 195.222 118.583 195.332C118.974 195.441 119.312 195.646 119.596 195.945C119.883 196.24 120.095 196.606 120.231 197.044C120.378 197.521 120.401 197.98 120.3 198.422C120.203 198.863 119.998 199.249 119.686 199.58C119.377 199.906 118.991 200.141 118.528 200.284C118.157 200.399 117.787 200.439 117.419 200.403C117.05 200.364 116.709 200.253 116.395 200.07C116.084 199.886 115.823 199.637 115.61 199.322L116.429 198.787C116.643 199.093 116.91 199.298 117.23 199.402C117.55 199.506 117.88 199.506 118.22 199.401C118.528 199.305 118.777 199.155 118.967 198.95C119.161 198.744 119.283 198.503 119.336 198.226C119.387 197.945 119.365 197.65 119.269 197.342C119.174 197.034 119.024 196.781 118.821 196.583C118.62 196.38 118.383 196.248 118.111 196.187C117.838 196.125 117.553 196.141 117.256 196.233C117.13 196.272 117.002 196.331 116.873 196.409C116.747 196.487 116.634 196.575 116.535 196.675L115.853 196.075L117.623 193.09L114.324 194.113L114.047 193.22L118.508 191.837L118.786 192.736L117.35 195.329ZM122.883 194.455C122.54 194.561 122.197 194.575 121.854 194.497C121.515 194.418 121.214 194.26 120.952 194.022C120.694 193.784 120.512 193.493 120.406 193.149C120.301 192.813 120.29 192.473 120.372 192.129C120.457 191.784 120.618 191.481 120.855 191.219C121.093 190.958 121.378 190.775 121.711 190.672C122.054 190.566 122.395 190.552 122.734 190.631C123.077 190.709 123.378 190.868 123.636 191.106C123.898 191.344 124.082 191.634 124.188 191.977C124.294 192.32 124.307 192.664 124.225 193.008C124.147 193.351 123.989 193.651 123.75 193.909C123.515 194.167 123.226 194.348 122.883 194.455ZM127.954 189.601L123.158 198.688L122.332 198.253L127.129 189.166L127.954 189.601ZM122.627 193.63C122.816 193.571 122.979 193.469 123.114 193.324C123.248 193.174 123.337 193.003 123.381 192.809C123.428 192.614 123.422 192.422 123.363 192.233C123.305 192.044 123.201 191.882 123.052 191.748C122.906 191.613 122.736 191.523 122.542 191.48C122.347 191.432 122.155 191.438 121.966 191.497C121.777 191.555 121.615 191.659 121.481 191.808C121.346 191.954 121.255 192.124 121.208 192.319C121.164 192.513 121.172 192.705 121.23 192.894C121.289 193.083 121.391 193.245 121.537 193.38C121.686 193.515 121.858 193.605 122.053 193.652C122.247 193.696 122.438 193.688 122.627 193.63ZM128.576 197.182C128.233 197.288 127.89 197.302 127.547 197.224C127.208 197.145 126.907 196.987 126.646 196.749C126.388 196.511 126.205 196.22 126.099 195.876C125.995 195.54 125.983 195.2 126.065 194.856C126.15 194.511 126.311 194.208 126.549 193.946C126.786 193.685 127.071 193.502 127.404 193.399C127.747 193.293 128.089 193.279 128.428 193.358C128.771 193.436 129.071 193.594 129.329 193.833C129.591 194.071 129.775 194.361 129.881 194.704C129.988 195.047 130 195.391 129.919 195.735C129.841 196.078 129.682 196.378 129.444 196.636C129.209 196.893 128.919 197.075 128.576 197.182ZM128.321 196.357C128.51 196.298 128.672 196.196 128.807 196.05C128.941 195.901 129.03 195.73 129.074 195.536C129.121 195.341 129.115 195.149 129.057 194.96C128.998 194.771 128.894 194.609 128.745 194.475C128.599 194.339 128.43 194.25 128.236 194.206C128.041 194.159 127.849 194.165 127.66 194.224C127.471 194.282 127.309 194.386 127.175 194.535C127.039 194.681 126.948 194.851 126.901 195.046C126.858 195.24 126.865 195.432 126.924 195.621C126.982 195.81 127.084 195.972 127.23 196.107C127.379 196.242 127.551 196.332 127.746 196.379C127.94 196.423 128.131 196.415 128.321 196.357ZM131.931 197.495C132.314 196.601 132.525 195.697 132.564 194.783C132.606 193.864 132.492 192.962 132.222 192.079C131.944 191.194 131.531 190.389 130.984 189.664C130.436 188.936 129.747 188.305 128.917 187.771L129.448 187.031C130.004 187.376 130.521 187.798 130.997 188.295C131.477 188.791 131.895 189.341 132.251 189.945C132.61 190.544 132.885 191.167 133.078 191.813C133.285 192.456 133.41 193.127 133.454 193.827C133.501 194.523 133.467 195.211 133.351 195.892C133.24 196.571 133.052 197.211 132.789 197.811L131.931 197.495Z" fill="#98E012"/>
<path d="M39.3352 219.873C39.3939 219.905 39.463 219.912 39.5268 219.892L40.7705 219.507C40.8675 219.477 40.9705 219.531 41.0006 219.628L42.2059 223.517C42.2461 223.647 42.3842 223.72 42.5142 223.68L44.9349 222.929C45.0649 222.889 45.1376 222.751 45.0973 222.621L43.8921 218.732C43.862 218.635 43.9163 218.532 44.0133 218.502L45.2605 218.115C45.3913 218.077 45.4666 217.941 45.4288 217.81C45.4098 217.745 45.3646 217.69 45.3039 217.659L41.5486 215.68C41.4913 215.65 41.4241 215.643 41.3617 215.661C41.2983 215.681 41.2453 215.725 41.2149 215.784L39.2364 219.539C39.1714 219.659 39.2156 219.808 39.3352 219.873Z" fill="#98E012"/>
<rect x="127.438" y="102.219" width="114" height="124" rx="12" transform="rotate(1.2604 127.438 102.219)" fill="#2D2D34"/>
<path d="M140.723 136.519L135.648 136.408L135.838 127.77L136.906 127.793L136.738 135.417L140.745 135.506L140.723 136.519ZM141.737 136.542L141.927 127.904L145.341 127.979C145.569 127.984 145.78 128.005 145.975 128.041C146.43 128.123 146.814 128.291 147.129 128.546C147.443 128.797 147.678 129.115 147.834 129.498C147.99 129.878 148.062 130.299 148.052 130.763C148.042 131.227 147.951 131.647 147.778 132.024C147.606 132.396 147.355 132.702 147.026 132.943C146.701 133.18 146.311 133.33 145.858 133.392C145.661 133.419 145.449 133.431 145.221 133.426L142.875 133.374L142.805 136.565L141.737 136.542ZM145.207 132.411C145.411 132.416 145.591 132.401 145.748 132.369C146.138 132.289 146.434 132.096 146.637 131.788C146.844 131.481 146.952 131.131 146.96 130.739C146.969 130.347 146.877 129.993 146.684 129.677C146.495 129.361 146.207 129.154 145.821 129.058C145.666 129.018 145.486 128.996 145.282 128.992L142.973 128.941L142.898 132.36L145.207 132.411Z" fill="white"/>
<path d="M138.667 189.487L137.039 189.451L137.285 178.267L134.814 179.689L134.853 177.898L137.324 176.494L138.952 176.53L138.667 189.487ZM150.061 190.008C149.233 189.989 148.49 189.784 147.833 189.391C147.175 188.999 146.665 188.465 146.301 187.791C145.938 187.117 145.766 186.366 145.784 185.538L145.888 180.788C145.907 179.96 146.112 179.217 146.505 178.56C146.897 177.902 147.43 177.392 148.105 177.028C148.779 176.665 149.53 176.493 150.358 176.511C151.185 176.529 151.928 176.734 152.586 177.127C153.243 177.52 153.753 178.053 154.117 178.727C154.48 179.401 154.653 180.152 154.634 180.98L154.53 185.731C154.512 186.559 154.306 187.301 153.914 187.959C153.521 188.616 152.988 189.127 152.314 189.49C151.639 189.853 150.888 190.026 150.061 190.008ZM150.094 188.469C150.592 188.48 151.054 188.367 151.479 188.13C151.905 187.894 152.245 187.568 152.5 187.154C152.755 186.739 152.888 186.283 152.899 185.785L153.008 180.845C153.019 180.347 152.906 179.886 152.669 179.46C152.433 179.035 152.107 178.695 151.692 178.44C151.278 178.184 150.822 178.051 150.324 178.04C149.826 178.029 149.364 178.142 148.939 178.379C148.514 178.616 148.174 178.941 147.918 179.356C147.663 179.77 147.53 180.227 147.519 180.724L147.411 185.664C147.4 186.162 147.512 186.624 147.749 187.049C147.986 187.474 148.311 187.815 148.726 188.07C149.14 188.325 149.597 188.458 150.094 188.469ZM161.325 190.255C160.498 190.237 159.755 190.032 159.097 189.639C158.44 189.247 157.93 188.713 157.566 188.039C157.203 187.365 157.031 186.614 157.049 185.786L157.153 181.035C157.171 180.208 157.377 179.465 157.769 178.807C158.162 178.15 158.695 177.639 159.369 177.276C160.044 176.913 160.795 176.74 161.622 176.759C162.45 176.777 163.193 176.982 163.85 177.375C164.508 177.767 165.018 178.301 165.382 178.975C165.745 179.649 165.917 180.4 165.899 181.228L165.795 185.979C165.776 186.806 165.571 187.549 165.178 188.207C164.786 188.864 164.253 189.375 163.578 189.738C162.904 190.101 162.153 190.274 161.325 190.255ZM161.359 188.717C161.857 188.728 162.319 188.615 162.744 188.378C163.169 188.141 163.51 187.816 163.765 187.401C164.02 186.987 164.153 186.531 164.164 186.033L164.273 181.093C164.284 180.595 164.171 180.134 163.934 179.708C163.697 179.283 163.372 178.943 162.957 178.687C162.543 178.432 162.087 178.299 161.589 178.288C161.091 178.277 160.629 178.39 160.204 178.627C159.779 178.864 159.438 179.189 159.183 179.604C158.928 180.018 158.795 180.474 158.784 180.972L158.675 185.912C158.664 186.41 158.777 186.872 159.014 187.297C159.251 187.722 159.576 188.062 159.991 188.318C160.405 188.573 160.861 188.706 161.359 188.717ZM170.363 188.645L176.508 188.78L176.475 190.31L167.864 190.12L167.904 188.681L173.768 183.633C174.227 183.235 174.55 182.847 174.739 182.467C174.927 182.087 175.026 181.678 175.036 181.24C175.046 180.748 174.942 180.299 174.723 179.892C174.504 179.479 174.199 179.151 173.809 178.908C173.418 178.666 172.977 178.539 172.485 178.528C171.981 178.517 171.522 178.63 171.109 178.867C170.696 179.098 170.368 179.415 170.125 179.817C169.888 180.214 169.767 180.647 169.763 181.115L168.126 181.079C168.143 180.275 168.345 179.562 168.731 178.941C169.123 178.313 169.649 177.829 170.311 177.49C170.979 177.145 171.724 176.981 172.545 176.999C173.337 177.016 174.05 177.218 174.684 177.604C175.317 177.984 175.81 178.499 176.162 179.149C176.52 179.793 176.69 180.508 176.673 181.294C176.661 181.846 176.578 182.327 176.425 182.738C176.278 183.143 176.063 183.516 175.779 183.858C175.496 184.194 175.109 184.569 174.62 184.985L170.363 188.645ZM187.02 182.206C187.812 182.223 188.525 182.428 189.158 182.82C189.798 183.206 190.293 183.73 190.645 184.392C191.002 185.054 191.172 185.781 191.155 186.573C191.138 187.358 190.921 188.08 190.504 188.737C190.094 189.394 189.545 189.91 188.859 190.285C188.173 190.654 187.433 190.83 186.642 190.812C185.826 190.794 185.083 190.58 184.414 190.169C183.751 189.759 183.232 189.204 182.858 188.506C182.483 187.801 182.305 187.023 182.324 186.171L182.419 181.861C182.438 180.968 182.651 180.174 183.056 179.481C183.462 178.782 184.013 178.245 184.712 177.87C185.416 177.489 186.207 177.309 187.082 177.328C187.796 177.344 188.456 177.505 189.061 177.812C189.673 178.114 190.182 178.542 190.59 179.097L189.37 180.133C189.115 179.749 188.779 179.442 188.364 179.21C187.955 178.979 187.517 178.859 187.049 178.848C186.491 178.836 185.984 178.96 185.528 179.22C185.079 179.48 184.723 179.833 184.461 180.277C184.199 180.721 184.062 181.201 184.051 181.717L184.012 183.481C184.399 183.069 184.854 182.752 185.375 182.53C185.902 182.301 186.45 182.193 187.02 182.206ZM186.676 189.265C187.186 189.276 187.656 189.163 188.088 188.927C188.519 188.684 188.865 188.353 189.127 187.932C189.388 187.512 189.524 187.047 189.535 186.537C189.547 186.027 189.431 185.556 189.188 185.125C188.952 184.694 188.623 184.347 188.203 184.086C187.783 183.825 187.318 183.689 186.808 183.677C186.298 183.666 185.827 183.782 185.396 184.024C184.964 184.267 184.618 184.598 184.357 185.019C184.095 185.439 183.959 185.904 183.948 186.414C183.937 186.918 184.049 187.386 184.286 187.817C184.529 188.248 184.86 188.595 185.28 188.856C185.707 189.117 186.172 189.254 186.676 189.265ZM200.623 190.85L199.003 190.814L199.056 188.43L193.099 188.299L193.133 186.778L197.606 177.82L199.423 177.86L194.95 186.818L199.089 186.909L199.169 183.265L200.789 183.301L200.709 186.945L202.059 186.975L202.025 188.495L200.675 188.466L200.623 190.85ZM208.368 182.675C209.154 182.693 209.867 182.897 210.506 183.29C211.146 183.676 211.642 184.2 211.993 184.862C212.351 185.518 212.521 186.242 212.503 187.033C212.486 187.813 212.266 188.534 211.844 189.197C211.427 189.854 210.873 190.37 210.18 190.745C209.488 191.12 208.746 191.299 207.954 191.281C207.294 191.267 206.679 191.118 206.109 190.836C205.545 190.547 205.065 190.155 204.668 189.661C204.271 189.16 203.992 188.596 203.832 187.968L205.379 187.588C205.478 188.004 205.659 188.374 205.922 188.698C206.185 189.016 206.501 189.266 206.869 189.448C207.243 189.624 207.631 189.717 208.033 189.726C208.549 189.737 209.023 189.621 209.454 189.379C209.886 189.136 210.229 188.805 210.484 188.384C210.746 187.958 210.882 187.496 210.893 186.998C210.904 186.488 210.785 186.017 210.537 185.586C210.294 185.154 209.96 184.811 209.533 184.555C209.113 184.294 208.654 184.158 208.156 184.147C207.616 184.135 207.137 184.239 206.718 184.457C206.305 184.67 205.969 184.957 205.709 185.317L204.299 184.746L204.844 177.98L211.799 178.133L211.766 179.653L206.25 179.532L205.929 183.459C206.271 183.196 206.654 182.998 207.077 182.863C207.5 182.728 207.93 182.666 208.368 182.675ZM221.227 186.397L221.194 187.927L225.441 188.02L225.412 189.343L221.165 189.249L221.12 191.301L219.518 191.266L219.563 189.214L218.213 189.184L218.243 187.862L219.592 187.891L219.626 186.362L218.276 186.332L218.307 184.919L219.657 184.949L219.803 178.309L224.653 178.416C224.971 178.423 225.288 178.453 225.605 178.508C226.286 178.631 226.863 178.884 227.335 179.267C227.807 179.643 228.159 180.116 228.393 180.685C228.626 181.255 228.735 181.887 228.72 182.583C228.697 183.633 228.402 184.499 227.835 185.183C227.268 185.867 226.466 186.278 225.431 186.418C225.112 186.459 224.794 186.476 224.476 186.469L221.227 186.397ZM221.371 179.865L221.259 184.984L224.453 185.055C224.759 185.061 225.029 185.037 225.265 184.983C225.843 184.863 226.287 184.588 226.597 184.157C226.907 183.719 227.068 183.195 227.082 182.583C227.095 181.983 226.96 181.446 226.676 180.972C226.393 180.491 225.958 180.179 225.373 180.034C225.153 179.975 224.883 179.942 224.565 179.935L221.371 179.865Z" fill="white"/>
<path fill-rule="evenodd" clip-rule="evenodd" d="M228.265 111.251C224.849 111.176 222.019 113.885 221.943 117.301C221.868 120.718 224.577 123.548 227.993 123.623C231.41 123.699 234.24 120.99 234.315 117.574C234.391 114.157 231.682 111.327 228.265 111.251ZM220.819 117.277C220.907 113.239 224.253 110.038 228.29 110.127C232.328 110.216 235.529 113.561 235.44 117.598C235.351 121.636 232.006 124.837 227.969 124.748C223.931 124.659 220.73 121.314 220.819 117.277ZM228.224 113.126C228.535 113.133 228.781 113.39 228.774 113.701L228.774 113.708C228.767 114.019 228.51 114.265 228.199 114.258C227.889 114.251 227.642 113.994 227.649 113.683L227.649 113.676C227.656 113.365 227.914 113.119 228.224 113.126ZM228.175 115.375C228.485 115.382 228.732 115.64 228.725 115.95L228.609 121.199C228.602 121.509 228.345 121.756 228.035 121.749C227.724 121.742 227.478 121.485 227.485 121.174L227.6 115.925C227.607 115.615 227.864 115.369 228.175 115.375Z" fill="#7B7B86"/>
<path d="M146.638 210.21L145.83 210.192L145.876 208.091L143.775 208.045L143.793 207.237L145.894 207.283L145.94 205.188L146.748 205.206L146.702 207.301L148.797 207.347L148.779 208.155L146.684 208.109L146.638 210.21ZM154.543 211.842L153.553 211.82L153.585 210.363L149.945 210.283L149.965 209.353L152.699 203.879L153.81 203.903L151.076 209.378L153.605 209.433L153.654 207.206L154.644 207.228L154.595 209.455L155.42 209.473L155.4 210.403L154.575 210.384L154.543 211.842ZM159.353 212.112C158.847 212.101 158.393 211.976 157.991 211.736C157.589 211.496 157.277 211.17 157.055 210.758C156.833 210.346 156.728 209.887 156.739 209.381L156.803 206.478C156.814 205.972 156.94 205.518 157.18 205.116C157.419 204.715 157.745 204.403 158.157 204.181C158.569 203.959 159.028 203.853 159.534 203.864C160.04 203.876 160.494 204.001 160.896 204.241C161.297 204.481 161.609 204.807 161.831 205.219C162.053 205.631 162.159 206.09 162.148 206.596L162.084 209.499C162.073 210.005 161.947 210.459 161.707 210.86C161.467 211.262 161.141 211.574 160.729 211.796C160.317 212.018 159.859 212.124 159.353 212.112ZM159.373 211.172C159.678 211.179 159.96 211.11 160.22 210.965C160.479 210.821 160.687 210.622 160.843 210.368C160.999 210.115 161.081 209.836 161.087 209.532L161.154 206.513C161.16 206.209 161.091 205.927 160.947 205.667C160.802 205.407 160.603 205.199 160.35 205.043C160.097 204.887 159.818 204.806 159.514 204.799C159.209 204.792 158.927 204.861 158.667 205.006C158.407 205.151 158.199 205.35 158.044 205.603C157.888 205.856 157.806 206.135 157.8 206.439L157.733 209.458C157.726 209.762 157.795 210.044 157.94 210.304C158.085 210.564 158.284 210.772 158.537 210.928C158.79 211.084 159.069 211.165 159.373 211.172ZM166.495 207.005C166.979 207.015 167.415 207.141 167.802 207.38C168.193 207.616 168.496 207.936 168.711 208.341C168.929 208.745 169.033 209.19 169.022 209.674C169.012 210.154 168.879 210.595 168.625 210.996C168.374 211.398 168.039 211.713 167.619 211.942C167.2 212.168 166.748 212.275 166.264 212.264C165.766 212.254 165.312 212.122 164.903 211.871C164.498 211.62 164.181 211.282 163.952 210.855C163.723 210.424 163.614 209.949 163.625 209.428L163.683 206.794C163.695 206.248 163.825 205.763 164.073 205.34C164.321 204.912 164.658 204.584 165.085 204.355C165.515 204.123 165.998 204.012 166.534 204.024C166.97 204.034 167.373 204.132 167.743 204.32C168.117 204.504 168.428 204.766 168.677 205.105L167.932 205.738C167.775 205.504 167.571 205.316 167.317 205.174C167.067 205.033 166.799 204.959 166.513 204.953C166.172 204.946 165.862 205.021 165.584 205.18C165.309 205.339 165.092 205.555 164.932 205.826C164.771 206.098 164.688 206.391 164.681 206.706L164.657 207.784C164.894 207.533 165.171 207.339 165.49 207.203C165.812 207.063 166.147 206.997 166.495 207.005ZM166.285 211.319C166.597 211.326 166.884 211.257 167.148 211.112C167.411 210.964 167.623 210.761 167.783 210.504C167.942 210.248 168.026 209.963 168.033 209.652C168.039 209.34 167.969 209.053 167.821 208.789C167.676 208.525 167.475 208.314 167.218 208.154C166.961 207.994 166.677 207.911 166.366 207.904C166.054 207.897 165.766 207.968 165.503 208.116C165.239 208.264 165.027 208.467 164.868 208.724C164.708 208.981 164.625 209.265 164.618 209.577C164.611 209.885 164.68 210.17 164.825 210.434C164.973 210.698 165.175 210.909 165.432 211.069C165.693 211.229 165.977 211.312 166.285 211.319ZM174.975 212.291L173.98 212.269L174.131 205.434L172.621 206.303L172.645 205.209L174.154 204.351L175.15 204.373L174.975 212.291ZM181.191 208.186C181.524 208.406 181.775 208.691 181.943 209.039C182.115 209.388 182.196 209.771 182.187 210.189C182.177 210.665 182.057 211.084 181.829 211.446C181.601 211.808 181.287 212.087 180.887 212.284C180.49 212.477 180.041 212.568 179.538 212.557C179.036 212.545 178.591 212.435 178.203 212.225C177.816 212.014 177.516 211.724 177.304 211.352C177.096 210.977 176.997 210.551 177.007 210.075C177.017 209.653 177.111 209.274 177.291 208.937C177.474 208.6 177.739 208.325 178.085 208.112C177.818 207.916 177.614 207.671 177.474 207.378C177.337 207.086 177.273 206.767 177.28 206.422C177.29 205.986 177.399 205.607 177.608 205.285C177.82 204.96 178.108 204.713 178.471 204.545C178.838 204.377 179.254 204.298 179.72 204.309C180.185 204.319 180.596 204.416 180.951 204.6C181.31 204.784 181.587 205.043 181.781 205.377C181.979 205.708 182.074 206.091 182.064 206.528C182.056 206.876 181.978 207.193 181.829 207.48C181.683 207.766 181.471 208.002 181.191 208.186ZM179.699 205.254C179.285 205.245 178.953 205.342 178.702 205.546C178.456 205.75 178.328 206.049 178.32 206.445C178.311 206.841 178.425 207.146 178.663 207.361C178.904 207.575 179.231 207.687 179.645 207.696C180.06 207.705 180.39 207.608 180.637 207.404C180.887 207.2 181.016 206.901 181.025 206.505C181.034 206.109 180.917 205.804 180.676 205.589C180.439 205.375 180.113 205.263 179.699 205.254ZM179.559 211.622C179.871 211.629 180.143 211.578 180.377 211.469C180.614 211.357 180.799 211.191 180.932 210.97C181.069 210.749 181.141 210.481 181.148 210.166C181.158 209.689 181.025 209.318 180.749 209.051C180.476 208.785 180.101 208.646 179.625 208.636C179.148 208.625 178.768 208.747 178.483 209.001C178.199 209.256 178.052 209.621 178.041 210.097C178.031 210.57 178.162 210.94 178.435 211.206C178.711 211.473 179.086 211.611 179.559 211.622ZM187.975 212.577L186.985 212.555L187.017 211.098L183.377 211.018L183.398 210.089L186.131 204.615L187.242 204.639L184.508 210.113L187.038 210.169L187.087 207.942L188.077 207.964L188.028 210.191L188.852 210.209L188.832 211.138L188.007 211.12L187.975 212.577ZM194.187 209.716L194.167 210.65L196.762 210.707L196.744 211.516L194.149 211.459L194.121 212.712L193.143 212.691L193.17 211.437L192.345 211.419L192.363 210.611L193.188 210.629L193.209 209.694L192.384 209.676L192.403 208.813L193.228 208.831L193.317 204.773L196.281 204.838C196.475 204.842 196.669 204.861 196.863 204.895C197.279 204.97 197.631 205.124 197.92 205.358C198.208 205.588 198.423 205.877 198.566 206.225C198.709 206.573 198.776 206.959 198.766 207.385C198.752 208.026 198.572 208.556 198.225 208.974C197.879 209.392 197.389 209.643 196.756 209.728C196.561 209.753 196.367 209.764 196.172 209.759L194.187 209.716ZM194.275 205.724L194.206 208.852L196.158 208.895C196.345 208.899 196.511 208.885 196.654 208.851C197.008 208.778 197.28 208.61 197.469 208.346C197.658 208.079 197.757 207.759 197.765 207.385C197.773 207.018 197.69 206.69 197.517 206.4C197.344 206.106 197.078 205.915 196.721 205.827C196.586 205.791 196.422 205.771 196.227 205.766L194.275 205.724ZM204.735 214.629C204.317 214.125 203.959 213.561 203.661 212.939C203.367 212.316 203.144 211.664 202.994 210.982C202.848 210.297 202.786 209.617 202.808 208.943C202.816 208.268 202.908 207.593 203.084 206.919C203.264 206.24 203.514 205.597 203.836 204.988C204.161 204.379 204.544 203.831 204.983 203.346L205.697 203.912C205.046 204.653 204.557 205.449 204.231 206.3C203.904 207.148 203.729 208.035 203.704 208.962C203.688 209.886 203.824 210.784 204.113 211.656C204.405 212.524 204.859 213.336 205.473 214.09L204.735 214.629ZM208.419 213.027L207.363 213.004L210.365 206.089L206.769 206.009L206.789 205.069L211.436 205.171L211.415 206.112L208.419 213.027ZM214.959 213.171L213.964 213.149L214.114 206.314L212.604 207.183L212.628 206.089L214.138 205.231L215.133 205.253L214.959 213.171ZM219.011 209.134C218.652 209.126 218.322 209.031 218.022 208.848C217.725 208.666 217.49 208.42 217.317 208.112C217.148 207.804 217.068 207.47 217.075 207.111C217.083 206.759 217.18 206.433 217.367 206.133C217.557 205.832 217.806 205.596 218.114 205.423C218.422 205.25 218.75 205.167 219.099 205.175C219.458 205.183 219.786 205.278 220.082 205.461C220.383 205.643 220.618 205.889 220.787 206.197C220.96 206.505 221.042 206.839 221.035 207.198C221.027 207.557 220.929 207.887 220.743 208.187C220.561 208.488 220.315 208.723 220.007 208.892C219.703 209.061 219.371 209.142 219.011 209.134ZM225.36 206.138L217.931 213.236L217.286 212.562L224.715 205.464L225.36 206.138ZM219.03 208.271C219.228 208.275 219.415 208.23 219.589 208.134C219.764 208.036 219.902 207.901 220.005 207.731C220.111 207.561 220.167 207.377 220.171 207.179C220.176 206.981 220.128 206.795 220.029 206.62C219.934 206.446 219.802 206.307 219.632 206.204C219.461 206.098 219.277 206.043 219.08 206.038C218.882 206.034 218.695 206.081 218.521 206.18C218.346 206.275 218.206 206.408 218.099 206.578C217.997 206.748 217.943 206.932 217.939 207.13C217.934 207.328 217.98 207.514 218.075 207.689C218.174 207.863 218.308 208.004 218.478 208.11C218.648 208.213 218.832 208.266 219.03 208.271ZM223.547 213.525C223.188 213.517 222.858 213.422 222.557 213.239C222.261 213.056 222.026 212.811 221.853 212.503C221.684 212.195 221.603 211.861 221.611 211.502C221.619 211.15 221.716 210.824 221.902 210.523C222.092 210.223 222.341 209.987 222.649 209.814C222.958 209.641 223.286 209.558 223.634 209.566C223.993 209.574 224.321 209.669 224.618 209.851C224.918 210.034 225.153 210.28 225.322 210.588C225.495 210.896 225.578 211.23 225.57 211.589C225.562 211.948 225.465 212.278 225.279 212.578C225.096 212.879 224.851 213.113 224.543 213.283C224.238 213.452 223.906 213.533 223.547 213.525ZM223.566 212.662C223.764 212.666 223.95 212.62 224.125 212.525C224.299 212.426 224.438 212.292 224.541 212.122C224.647 211.952 224.702 211.768 224.707 211.57C224.711 211.372 224.664 211.186 224.565 211.011C224.47 210.837 224.337 210.698 224.167 210.595C223.997 210.489 223.813 210.433 223.615 210.429C223.417 210.425 223.231 210.472 223.056 210.571C222.882 210.666 222.741 210.799 222.635 210.969C222.532 211.139 222.479 211.323 222.474 211.521C222.47 211.719 222.515 211.905 222.611 212.079C222.709 212.254 222.844 212.394 223.014 212.501C223.184 212.604 223.368 212.657 223.566 212.662ZM226.629 214.885C227.276 214.159 227.763 213.368 228.09 212.513C228.42 211.655 228.598 210.764 228.622 209.841C228.638 208.913 228.502 208.019 228.213 207.158C227.924 206.293 227.471 205.476 226.853 204.707L227.591 204.173C228.009 204.678 228.365 205.241 228.66 205.864C228.958 206.487 229.18 207.141 229.326 207.826C229.476 208.508 229.54 209.186 229.518 209.86C229.511 210.535 229.417 211.211 229.237 211.89C229.061 212.564 228.81 213.206 228.485 213.815C228.163 214.424 227.783 214.971 227.343 215.457L226.629 214.885Z" fill="#98E012"/>
<path d="M133.958 206.811C134.004 206.86 134.067 206.888 134.134 206.89L135.436 206.918C135.537 206.92 135.618 207.005 135.615 207.106L135.526 211.177C135.523 211.313 135.631 211.426 135.767 211.429L138.3 211.484C138.436 211.487 138.549 211.379 138.552 211.243L138.642 207.173C138.644 207.071 138.728 206.991 138.83 206.993L140.135 207.022C140.271 207.027 140.386 206.921 140.391 206.785C140.394 206.717 140.369 206.651 140.321 206.603L137.386 203.536C137.342 203.489 137.28 203.461 137.215 203.459C137.149 203.457 137.085 203.482 137.037 203.528L133.97 206.463C133.871 206.556 133.865 206.712 133.958 206.811Z" fill="#98E012"/>
</svg>
