<svg width="21" height="20" viewBox="0 0 21 20" fill="none" xmlns="http://www.w3.org/2000/svg">
<g clip-path="url(#clip0_215_19325)">
<path d="M15.5234 6.40308C15.3903 6.27363 15.2034 6.21476 15.0205 6.24488C14.8372 6.27484 14.679 6.38988 14.594 6.55496C14.3016 7.12289 13.9303 7.6448 13.4934 8.10617C13.537 7.77292 13.5589 7.43761 13.5589 7.10144C13.5589 6.45636 13.4724 5.79253 13.3018 5.12828C12.741 2.94624 11.2704 1.10085 9.26699 0.0653851C9.0927 -0.0247712 8.88477 -0.021529 8.71312 0.0738226C8.54156 0.169252 8.42918 0.344213 8.41379 0.539916C8.25762 2.52289 7.23617 4.32699 5.60992 5.49074C5.58836 5.50624 5.56699 5.52195 5.54562 5.53757C5.50141 5.56999 5.45965 5.60058 5.4207 5.62628C5.41461 5.63035 5.40855 5.63449 5.40258 5.63874C4.37977 6.37105 3.53582 7.34722 2.96191 8.46203C2.37871 9.59597 2.08301 10.8128 2.08301 12.0786C2.08301 12.7235 2.16945 13.3873 2.33996 14.0517C3.23977 17.5539 6.39148 19.9999 10.0043 19.9999C14.372 19.9999 17.9252 16.4464 17.9252 12.0786C17.9252 9.92472 17.0723 7.9091 15.5234 6.40308ZM10.0043 18.8281C6.9266 18.8281 4.24164 16.7441 3.47504 13.7603C3.32898 13.1911 3.25488 12.6253 3.25488 12.0787C3.25488 11.001 3.50691 9.9646 4.00391 8.99828C4.49145 8.05128 5.20801 7.22136 6.07664 6.59749C6.13555 6.55816 6.19 6.51824 6.23844 6.48277C6.25715 6.46902 6.27594 6.45527 6.2934 6.44269C7.94805 5.25859 9.06949 3.5071 9.45687 1.54281C10.7904 2.46101 11.7599 3.83648 12.1669 5.41992C12.3129 5.98886 12.387 6.55464 12.387 7.10148C12.387 7.90218 12.2403 8.69886 11.9508 9.46929C11.8623 9.70488 11.9341 9.9707 12.1293 10.1296C12.3244 10.2885 12.5992 10.3051 12.812 10.1709C13.7788 9.56074 14.6005 8.75101 15.2217 7.80218C16.2143 9.00589 16.7534 10.4987 16.7534 12.0787C16.7534 15.8003 13.7257 18.8281 10.0043 18.8281Z" fill="black"/>
</g>
<defs>
<clipPath id="clip0_215_19325">
<rect width="20" height="20" fill="white" transform="translate(0.00390625)"/>
</clipPath>
</defs>
</svg>
