<svg width="21" height="20" viewBox="0 0 21 20" fill="none" xmlns="http://www.w3.org/2000/svg">
<g clip-path="url(#clip0_215_19329)">
<mask id="mask0_215_19329" style="mask-type:luminance" maskUnits="userSpaceOnUse" x="0" y="0" width="21" height="20">
<path d="M0.00390625 1.90735e-06H20.0039V20H0.00390625V1.90735e-06Z" fill="white"/>
</mask>
<g mask="url(#mask0_215_19329)">
<path fill-rule="evenodd" clip-rule="evenodd" d="M0.121094 19.4141C0.121094 19.6729 0.33096 19.8828 0.589844 19.8828H19.418C19.6768 19.8828 19.8867 19.6729 19.8867 19.4141C19.8867 19.1552 19.6768 18.9453 19.418 18.9453H1.05859V0.585939C1.05859 0.327057 0.848727 0.117189 0.589844 0.117189C0.33096 0.117189 0.121094 0.327057 0.121094 0.585939V19.4141Z" fill="black"/>
</g>
<path fill-rule="evenodd" clip-rule="evenodd" d="M2.46484 17.0703C2.46484 17.3292 2.67471 17.5391 2.93359 17.5391H5.31641C5.57529 17.5391 5.78516 17.3292 5.78516 17.0703V13.4766C5.78516 13.2177 5.57529 13.0078 5.31641 13.0078H2.93359C2.67471 13.0078 2.46484 13.2177 2.46484 13.4766V17.0703ZM3.40234 16.6016V13.9453H4.84766V16.6016H3.40234Z" fill="black"/>
<path fill-rule="evenodd" clip-rule="evenodd" d="M7.19141 17.0703C7.19141 17.3292 7.40127 17.5391 7.66016 17.5391H10.0039C10.2628 17.5391 10.4727 17.3292 10.4727 17.0703V11.1328C10.4727 10.8739 10.2628 10.6641 10.0039 10.6641H7.66016C7.40127 10.6641 7.19141 10.8739 7.19141 11.1328V17.0703ZM8.12891 16.6016V11.6016H9.53516V16.6016H8.12891Z" fill="black"/>
<path fill-rule="evenodd" clip-rule="evenodd" d="M11.8789 17.0703C11.8789 17.3292 12.0888 17.5391 12.3477 17.5391H14.6914C14.9503 17.5391 15.1602 17.3292 15.1602 17.0703V8.78906C15.1602 8.53018 14.9503 8.32031 14.6914 8.32031H12.3477C12.0888 8.32031 11.8789 8.53018 11.8789 8.78906V17.0703ZM12.8164 16.6016V9.25781H14.2227V16.6016H12.8164Z" fill="black"/>
<mask id="mask1_215_19329" style="mask-type:luminance" maskUnits="userSpaceOnUse" x="0" y="0" width="21" height="20">
<path d="M0.00390625 1.90735e-06H20.0039V20H0.00390625V1.90735e-06Z" fill="white"/>
</mask>
<g mask="url(#mask1_215_19329)">
<path fill-rule="evenodd" clip-rule="evenodd" d="M16.5664 17.0703C16.5664 17.3292 16.7763 17.5391 17.0352 17.5391H19.418C19.6769 17.5391 19.8867 17.3292 19.8867 17.0703V6.44531C19.8867 6.18643 19.6769 5.97656 19.418 5.97656H17.0352C16.7763 5.97656 16.5664 6.18643 16.5664 6.44531V17.0703ZM17.5039 16.6016V6.91406H18.9492V16.6016H17.5039Z" fill="black"/>
<path fill-rule="evenodd" clip-rule="evenodd" d="M2.52073 10.1827C2.64322 10.4108 2.92741 10.4964 3.15548 10.3739L18.2914 2.24468C18.5194 2.12219 18.605 1.838 18.4825 1.60993C18.36 1.38186 18.0759 1.29627 17.8478 1.41876L2.71189 9.54798C2.48382 9.67047 2.39823 9.95466 2.52073 10.1827Z" fill="black"/>
<path fill-rule="evenodd" clip-rule="evenodd" d="M16.8255 4.52083C17.0571 4.63661 17.3386 4.54275 17.4544 4.3112L18.6263 1.96745C18.6989 1.82214 18.6912 1.64958 18.6058 1.51138C18.5204 1.37319 18.3695 1.28907 18.207 1.28907H15.2773C15.0185 1.28907 14.8086 1.49893 14.8086 1.75782C14.8086 2.0167 15.0185 2.22657 15.2773 2.22657H17.4486L16.6159 3.89194C16.5001 4.12349 16.594 4.40505 16.8255 4.52083Z" fill="black"/>
</g>
</g>
<defs>
<clipPath id="clip0_215_19329">
<rect width="20" height="20" fill="white" transform="translate(0.00390625)"/>
</clipPath>
</defs>
</svg>
