<svg width="40" height="40" viewBox="0 0 40 40" fill="none" xmlns="http://www.w3.org/2000/svg">
<path d="M14.8554 20.6243L21.9756 27.7444C22.1402 27.9092 22.3601 28 22.5945 28C22.8289 28 23.0487 27.9092 23.2134 27.7444L23.7378 27.2202C24.079 26.8786 24.079 26.3234 23.7378 25.9823L17.7587 20.0033L23.7444 14.0177C23.9091 13.8529 24 13.6332 24 13.3989C24 13.1643 23.9091 12.9446 23.7444 12.7797L23.22 12.2556C23.0552 12.0908 22.8355 12 22.6011 12C22.3667 12 22.1469 12.0908 21.9822 12.2556L14.8554 19.3822C14.6903 19.5475 14.5996 19.7683 14.6001 20.0029C14.5996 20.2385 14.6903 20.4591 14.8554 20.6243Z" fill="#18181C"/>
</svg>
