<svg width="21" height="20" viewBox="0 0 21 20" fill="none" xmlns="http://www.w3.org/2000/svg">
<g clip-path="url(#clip0_215_19308)">
<path fill-rule="evenodd" clip-rule="evenodd" d="M10.8288 0.146833C10.9547 0.035611 11.1223 -0.0162385 11.289 0.00444856C15.8339 0.568485 19.4355 4.16994 19.9994 8.71494C20.0201 8.88164 19.9683 9.04919 19.8571 9.17507C19.7458 9.30095 19.5859 9.37303 19.418 9.37303H11.2168C10.8932 9.37303 10.6309 9.1107 10.6309 8.7871V0.585926C10.6309 0.417951 10.7029 0.258054 10.8288 0.146833ZM11.8027 1.2744V8.20116H18.7295C18.0276 4.71978 15.2841 1.97631 11.8027 1.2744Z" fill="black"/>
<path fill-rule="evenodd" clip-rule="evenodd" d="M12.3395 10.9158C12.4302 10.6969 12.6439 10.5541 12.8809 10.5541H19.4182C19.5862 10.5541 19.7461 10.6262 19.8573 10.7521C19.9685 10.8779 20.0204 11.0455 19.9997 11.2122C19.7718 13.049 19.0476 14.7322 17.9654 16.1221C17.8621 16.2547 17.707 16.3366 17.5393 16.347C17.3716 16.3574 17.2075 16.2953 17.0887 16.1765L12.4666 11.5544C12.299 11.3868 12.2488 11.1348 12.3395 10.9158ZM14.2955 11.726L17.4304 14.8609C18.0521 13.9253 18.5002 12.8651 18.7298 11.726H14.2955Z" fill="black"/>
<path fill-rule="evenodd" clip-rule="evenodd" d="M9.25192 0.146757C9.37779 0.257979 9.44988 0.417875 9.44988 0.585849V9.47601C9.44988 9.6314 9.38815 9.78043 9.27828 9.89031L2.9923 16.1767C2.87349 16.2955 2.70938 16.3576 2.54166 16.3472C2.37395 16.3368 2.21878 16.2549 2.11557 16.1223C0.792542 14.4223 0.00390625 12.2841 0.00390625 9.96343C0.00390625 4.84314 3.83791 0.619126 8.79179 0.00437189C8.95848 -0.0163142 9.12604 0.0355357 9.25192 0.146757ZM8.27801 1.27431C4.22686 2.09099 1.17578 5.67133 1.17578 9.96343C1.17578 11.7748 1.71869 13.4581 2.65064 14.861L8.27801 9.23331V1.27431Z" fill="black"/>
<path fill-rule="evenodd" clip-rule="evenodd" d="M9.62585 11.213C9.85468 10.9842 10.2257 10.9842 10.4545 11.2131L16.253 17.0116C16.3718 17.1304 16.4339 17.2945 16.4235 17.4622C16.4131 17.6299 16.3312 17.7851 16.1987 17.8883C14.4986 19.2118 12.3604 20 10.0402 20C7.71944 20 5.58124 19.2114 3.88133 17.8883C3.74873 17.7851 3.66681 17.63 3.6564 17.4622C3.64599 17.2945 3.70808 17.1304 3.82691 17.0116L9.62585 11.213ZM5.14255 17.3533C6.5455 18.2852 8.22882 18.8281 10.0402 18.8281C11.8512 18.8281 13.5345 18.2855 14.9375 17.3533L10.0401 12.456L5.14255 17.3533Z" fill="black"/>
</g>
<defs>
<clipPath id="clip0_215_19308">
<rect width="20" height="20" fill="white" transform="translate(0.00390625)"/>
</clipPath>
</defs>
</svg>
