<svg width="21" height="20" viewBox="0 0 21 20" fill="none" xmlns="http://www.w3.org/2000/svg">
<path d="M8.93073 1C4.56 1 1.00391 4.55609 1.00391 8.92682C1.00391 13.2978 4.56 16.8536 8.93073 16.8536C13.3017 16.8536 16.8575 13.2978 16.8575 8.92682C16.8575 4.55609 13.3017 1 8.93073 1ZM8.93073 15.3903C5.36683 15.3903 2.46732 12.4908 2.46732 8.92686C2.46732 5.36296 5.36683 2.46341 8.93073 2.46341C12.4946 2.46341 15.3941 5.36293 15.3941 8.92682C15.3941 12.4907 12.4946 15.3903 8.93073 15.3903Z" fill="black"/>
<path d="M18.7879 17.7513L14.5928 13.5562C14.3069 13.2703 13.844 13.2703 13.5581 13.5562C13.2723 13.8418 13.2723 14.3052 13.5581 14.5908L17.7533 18.786C17.8962 18.9289 18.0833 19.0003 18.2706 19.0003C18.4577 19.0003 18.645 18.9289 18.7879 18.786C19.0738 18.5004 19.0738 18.0369 18.7879 17.7513Z" fill="black"/>
</svg>
