<svg width="56" height="56" viewBox="0 0 56 56" fill="none" xmlns="http://www.w3.org/2000/svg">
<circle cx="28" cy="28" r="27.5" fill="white" stroke="#E9E9EA"/>
<g clip-path="url(#clip0_329_12368)">
<path d="M39.5046 25.8364L29.3527 25.8359C28.9044 25.8359 28.541 26.1993 28.541 26.6475V29.8906C28.541 30.3388 28.9044 30.7023 29.3526 30.7023H35.0696C34.4436 32.3269 33.2752 33.6875 31.7844 34.552L34.2221 38.7718C38.1325 36.5103 40.4444 32.5422 40.4444 28.1002C40.4444 27.4678 40.3978 27.0156 40.3045 26.5065C40.2336 26.1197 39.8978 25.8364 39.5046 25.8364Z" fill="#167EE6"/>
<path d="M28.0002 35.5751C25.2024 35.5751 22.76 34.0464 21.4483 31.7844L17.2285 34.2166C19.3759 37.9384 23.3987 40.4446 28.0002 40.4446C30.2576 40.4446 32.3876 39.8369 34.2224 38.7777V38.7719L31.7847 34.552C30.6697 35.1987 29.3793 35.5751 28.0002 35.5751Z" fill="#12B347"/>
<path d="M34.2222 38.7775V38.7717L31.7845 34.5518C30.6695 35.1984 29.3792 35.5749 28 35.5749V40.4444C30.2574 40.4444 32.3874 39.8367 34.2222 38.7775Z" fill="#0F993E"/>
<path d="M20.4252 28.0001C20.4252 26.6211 20.8016 25.3309 21.4482 24.2159L17.2284 21.7837C16.1634 23.6128 15.5557 25.737 15.5557 28.0001C15.5557 30.2633 16.1634 32.3875 17.2284 34.2166L21.4482 31.7844C20.8016 30.6694 20.4252 29.3792 20.4252 28.0001Z" fill="#FFD500"/>
<path d="M28.0002 20.4252C29.8246 20.4252 31.5004 21.0735 32.8094 22.1519C33.1323 22.4179 33.6017 22.3987 33.8975 22.1029L36.1953 19.805C36.5309 19.4694 36.507 18.92 36.1485 18.609C33.9554 16.7064 31.1019 15.5557 28.0002 15.5557C23.3987 15.5557 19.3759 18.0619 17.2285 21.7837L21.4483 24.2159C22.76 21.9539 25.2024 20.4252 28.0002 20.4252Z" fill="#FF4B26"/>
<path d="M32.8092 22.1519C33.1321 22.4179 33.6015 22.3987 33.8973 22.1029L36.1951 19.805C36.5307 19.4694 36.5068 18.92 36.1483 18.609C33.9552 16.7064 31.1017 15.5557 28 15.5557V20.4252C29.8244 20.4252 31.5002 21.0735 32.8092 22.1519Z" fill="#D93F21"/>
</g>
<defs>
<clipPath id="clip0_329_12368">
<rect width="24.8889" height="24.8889" fill="white" transform="translate(15.5557 15.5557)"/>
</clipPath>
</defs>
</svg>
