<svg width="56" height="56" viewBox="0 0 56 56" fill="none" xmlns="http://www.w3.org/2000/svg">
<circle cx="28" cy="28" r="28" fill="#4169E1"/>
<g clip-path="url(#clip0_329_12377)">
<path d="M38.0484 27.4691C38.4466 26.9544 38.7627 26.5414 38.9962 26.2298C40.6775 23.9945 41.4062 22.5665 41.1829 21.944L41.0953 21.7982C41.037 21.7106 40.8861 21.6302 40.6433 21.5574C40.4003 21.4846 40.0893 21.473 39.7104 21.521L35.5119 21.5507C35.4147 21.541 35.3175 21.5432 35.2203 21.5574C35.1231 21.5722 35.06 21.587 35.0307 21.6011C35.0014 21.616 34.9772 21.6279 34.9579 21.6375L34.8997 21.6813C34.8511 21.7103 34.7977 21.7615 34.7394 21.8346C34.6811 21.9076 34.6322 21.9923 34.5936 22.0898C34.1368 23.2657 33.6169 24.3592 33.0337 25.37C32.6741 25.9726 32.3435 26.4954 32.0426 26.937C31.7412 27.3796 31.4885 27.7051 31.2844 27.9137C31.0804 28.1226 30.8956 28.2906 30.7305 28.4165C30.565 28.5433 30.4388 28.5965 30.3516 28.5771C30.264 28.5578 30.1813 28.5385 30.1037 28.5186C29.9676 28.4313 29.8581 28.3125 29.7757 28.1616C29.6931 28.0113 29.6374 27.8216 29.608 27.5931C29.579 27.3649 29.5617 27.1679 29.5571 27.0024C29.552 26.8373 29.5546 26.6042 29.5646 26.3026C29.5742 26.0013 29.579 25.7975 29.579 25.6903C29.579 25.3214 29.5864 24.9204 29.601 24.4877C29.6155 24.0554 29.6277 23.7126 29.6374 23.4599C29.647 23.2075 29.6518 22.94 29.6518 22.658C29.6518 22.3767 29.6348 22.1552 29.6005 21.9946C29.5664 21.8346 29.5153 21.6791 29.4477 21.5281C29.3795 21.3778 29.2799 21.2609 29.1486 21.1786C29.0173 21.0958 28.8547 21.0305 28.6603 20.9815C28.1449 20.8647 27.4889 20.8022 26.6922 20.792C24.8844 20.7733 23.723 20.8898 23.2079 21.1422C23.0039 21.2494 22.8191 21.3949 22.654 21.5796C22.4789 21.7937 22.4547 21.9105 22.5812 21.9292C23.1645 22.0168 23.5772 22.226 23.8202 22.5563L23.9078 22.7311C23.9757 22.8579 24.0437 23.0813 24.1119 23.4019C24.1799 23.7225 24.2236 24.0773 24.2432 24.4661C24.2918 25.1756 24.2918 25.7827 24.2432 26.2884C24.1946 26.7941 24.1486 27.1875 24.1049 27.4688C24.061 27.7508 23.9954 27.9791 23.9081 28.1538C23.8206 28.3293 23.7623 28.4361 23.733 28.4751C23.7037 28.5137 23.6796 28.5381 23.6603 28.5479C23.5338 28.5961 23.4028 28.6206 23.2666 28.6206C23.1305 28.6206 22.9653 28.5523 22.7709 28.4161C22.5765 28.2807 22.3746 28.0933 22.166 27.8551C21.9568 27.6172 21.7215 27.2841 21.4588 26.8562C21.1964 26.4291 20.9241 25.9234 20.6424 25.3404L20.4094 24.9174C20.2636 24.6457 20.0643 24.2495 19.8116 23.7296C19.5589 23.2097 19.3351 22.7069 19.1411 22.2205C19.0632 22.0168 18.9466 21.8613 18.7912 21.7541L18.7184 21.7103C18.6698 21.6717 18.5919 21.6302 18.485 21.5867C18.3778 21.5429 18.2665 21.5114 18.1496 21.4917L14.1552 21.5207C13.747 21.5207 13.4702 21.6135 13.3244 21.7982L13.2661 21.8854C13.2366 21.9344 13.2222 22.0123 13.2222 22.1188C13.2222 22.226 13.2515 22.357 13.3097 22.5122C13.893 23.8829 14.5272 25.2046 15.2122 26.4774C15.8975 27.7508 16.4927 28.7764 16.9981 29.5538C17.5035 30.3318 18.0185 31.0651 18.5435 31.7552C19.0686 32.4454 19.4159 32.8873 19.5858 33.0815C19.7558 33.2762 19.8894 33.4221 19.9866 33.5189L20.351 33.8691C20.5841 34.1022 20.9269 34.3816 21.3789 34.7074C21.8308 35.0331 22.3311 35.3538 22.8806 35.6692C23.4294 35.9853 24.0687 36.2425 24.7975 36.4421C25.5263 36.6417 26.2357 36.7218 26.9259 36.6825H28.6024C28.9426 36.6536 29.2 36.547 29.3749 36.3619L29.4332 36.2892C29.4718 36.2312 29.5085 36.1411 29.5426 36.0197C29.5764 35.8984 29.5939 35.7644 29.5939 35.6189C29.5838 35.2012 29.6157 34.8239 29.6885 34.4891C29.7612 34.1537 29.8439 33.9013 29.9364 33.7307C30.0287 33.561 30.133 33.4175 30.2498 33.3006C30.3664 33.1838 30.4488 33.1139 30.4977 33.0894C30.5463 33.0656 30.5853 33.0486 30.6143 33.0383C30.8473 32.9606 31.1219 33.036 31.438 33.2642C31.7538 33.4931 32.0503 33.7744 32.3274 34.1099C32.6042 34.4453 32.937 34.8216 33.326 35.2397C33.7145 35.6575 34.0547 35.9685 34.3464 36.1725L34.638 36.348C34.8324 36.4642 35.0848 36.5711 35.3961 36.6687C35.707 36.7655 35.9794 36.79 36.2124 36.7414L39.9445 36.6828C40.3137 36.6828 40.6006 36.6223 40.8047 36.5006C41.0087 36.3799 41.1302 36.2453 41.1691 36.0999C41.2077 35.9541 41.2103 35.7896 41.1765 35.6044C41.1424 35.42 41.1083 35.2912 41.0745 35.2185C41.0404 35.1457 41.0088 35.0846 40.9795 35.0363C40.4935 34.1617 39.5654 33.0874 38.195 31.8144L38.1657 31.7854L38.1513 31.7706L38.1368 31.7564H38.1222C37.4999 31.1635 37.1066 30.7649 36.9414 30.5605C36.6402 30.1723 36.5719 29.7786 36.7374 29.3802C36.8533 29.078 37.2904 28.4413 38.0484 27.4691Z" fill="white"/>
</g>
<defs>
<clipPath id="clip0_329_12377">
<rect width="28" height="28" fill="white" transform="translate(13.2222 14.7778)"/>
</clipPath>
</defs>
</svg>
